{
.appVersion = "3316";
.formatVersion = 3;
DisplayStrings = (
"HAMBURGEF
ONTSIVWXYZ
PQCDJKL
hamburgefontsıivp
cdȷjklqwxyz 
+−×÷.,?!:;“”‘’[{()}]/.notdef/.notdef/.notdef/.notdef/.notdef/.notdef 
-–—_/.notdef/.notdef/.notdef/hyphen.flat &$@/backslash//#12578
0123456789
/zero.osf/one.osf/two.osf/three.osf/four.osf/five.osf/six.osf/seven.osf/eight.osf/nine.osf 
ðbþHÞÐnßBẞ
ææœÆŒ

HH/Placeholder HH OO/Placeholder OO
nn/Placeholder nn oo/Placeholder oo
HH/Placeholder/Placeholder HH OO/Placeholder/Placeholder OO
nn/Placeholder/Placeholder nn oo/Placeholder/Placeholder oo
",
"[{(abcggHH|gg|/backslash AABA//QQ{[()}]d(a)(b)(c)(g)
(H)(l)[H]
Chapter 8
adn/two.osf yac++C++bx3+5−4+×7÷2+=+÷12<34>67a/less.osf/.notdef b3/one.osf/plus.osf xa/equal.osf/two.osf/minus.osf c/multiply.osf/three.osf/three.osf/divide.osf/one.osf/nine.osf/five.osf/five.osf/six.osf/two.osf .
YEAR 1978/.notdef 202335 WAS GREAT
year wear version vola 1978/.notdef 1260543 was great",
"tAH.,!??a@:;Oa“”‘’ '\"/backslash//|¦g[
!¡¿x·;•*/.notdef x‚„«»x‹›S$ Variable
x~//p//casouri//^Lx^+Ã̂/circumflexcomb.case 
show
(a(b(c(d(e(f(g(h(i(j(k(l(m(n
(o(p(q(r(s(t(u(v(w(x(y(z(
)a)b)c)d)e)f)g)h)i)j)k)l)m)n
)o)p)q)r)s)t)u)v)w)x)y)z)
)(a)(b)(c)(d)(e)(f)(g)(h)(i)(j)(k)(l)(m)
(n)(o)(p)(q)(r)(s)(t)(u)(v)(w)(x)(y)(z)(.)
[a][b][c][d][e][f][g][h][i][j][k][l][m][n]
[o][p][q][r][s][t][u][v][w][x][y][z][.]
{a}{b}{c}{d}{e}{f}{g}{h}{i}{j}{k}{l}{m}{n}
{o}{p}{q}{r}{s}{t}{u}{v}{w}{x}{y}{z}{.}
Tonight. Tonight?
Tonight, Tonight!
Tonight: \"tonight\"
Tonight; 'tonight'
“Tonight” ‘Tonight’
I’ll kill you
• accume
• item b
• Cap item
",
"́áíȷéóúẃý /acutecomb.case ÁÉÍJ́ÓÚẂ
̀àèìòùẁỳ /gravecomb.case ÀÈÌÒÙẀỲ
̂âêîôûŵŷ /circumflexcomb.case ÂÊÎÔÛŴŶ
̈äëïöüẅÿ /dieresiscomb.case ÄËÏÖÜẄŸ
̊å/ringcomb.case Å
̃ãñõ /tildecomb.case ÃÑÕ
̧ç/cedillacomb.case Ç
øØ
ðÐþÞßẞLYLdATodoMLOGO
æœÆŒ
",
"Oblique Dnice Once Ounce A.B.C.V.V,Y,W,Y.W.G.H.H
/hyphen.case/endash.case H/emdash.case OVAVAOH/endash.case VABC/emdash.case V
comon,v.a.n.w.x.z.yooyy.yes,s.wef.afeb.aoeifj,o.

glyphs = (
{
glyphname = A;
kernLeft = A;
kernRight = A;
lastChange = "2024-09-11 16:37:16 +0000";
layers = (
{
anchors = (
{
name = bottom;
pos = (404,0);
},
{
name = ogonek;
pos = (726,10);
},
{
name = top;
pos = (374,800);
}
);
background = {
shapes = (
{
closed = 1;
nodes = (
(300,0,l),
(300,62,l),
(200,65,o),
(169,103,o),
(201,192,cs),
(372,670,l),
(562,194,ls),
(599,102,o),
(592,78,o),
(477,66,c),
(477,0,l),
(829,0,l),
(829,62,l),
(746,78,o),
(721,96,o),
(688,175,cs),
(423,816,l),
(312,816,l),
(333,741,l),
(119,163,ls),
(92,90,o),
(63,74,o),
(-31,62,c),
(-31,0,l)
);
}
);
};
guides = (
{
angle = -68.0906;
pos = (472,419);
},
{
angle = -68.0906;
pos = (585,431);
},
{
angle = 250.1424;
pos = (268,382);
},
{
angle = 250.1424;
pos = (198,382);
}
);
layerId = m01;
shapes = (
{
closed = 1;
nodes = (
(300,0,l),
(300,52,l),
(190,62,o),
(177,85,o),
(210,182,cs),
(375,663,l),
(566,184,ls),
(607,81,o),
(592,59,o),
(477,52,c),
(477,0,l),
(797,0,l),
(797,52,l),
(746,58,o),
(721,82,o),
(687,165,cs),
(419,816,l),
(313,816,l),
(324,778,ls),
(331,752,o),
(329,728,o),
(322,708,cs),
(119,153,ls),
(92,80,o),
(67,58,o),
(10,52,c),
(10,0,l)
);
},
{
closed = 1;
nodes = (
(586,280,l),
(559,355,l),
(204,355,l),
(182,280,l)
);
}
);
width = 807;
}
);
unicode = 65;
},
{
glyphname = AE;
lastChange = "2024-09-08 04:43:05 +0000";
layers = (
{
layerId = m01;
shapes = (
{
closed = 1;
nodes = (
(1083,0,l),
(1123,218,l),
(1068,219,l),
(1034,119,o),
(976,71,o),
(790,71,cs),
(711,71,o),
(668,108,o),
(668,182,cs),
(668,722,l),
(736,730,o),
(805,733,o),
(857,733,cs),
(971,733,o),
(1009,707,o),
(1029,607,c),
(1083,607,l),
(1057,800,l),
(565,800,l),
(564,159,ls),
(564,85,o),
(531,56,o),
(450,45,c),
(450,0,l)
);
},
{
closed = 1;
nodes = (
(300,0,l),
(300,48,l),
(200,55,o),
(204,100,o),
(251,178,cs),
(590,743,l),
(590,799,l),
(389,800,l),
(389,755,l),
(467,750,o),
(484,716,o),
(444,648,cs),
(155,149,ls),
(115,80,o),
(54,53,o),
(10,48,c),
(10,0,l)
);
},
{
closed = 1;
nodes = (
(616,280,l),
(589,355,l),
(294,355,l),
(272,280,l)
);
},
{
closed = 1;
nodes = (
(976,281,l),
(976,532,l),
(927,532,l),
(920,465,o),
(900,445,o),
(829,445,cs),
(614,445,l),
(614,378,l),
(829,378,ls),
(900,378,o),
(922,359,o),
(927,281,c)
);
}
);
width = 1163;
}
);
metricLeft = "=A";
metricRight = "=E";
unicode = 198;
},
{
glyphname = B;
lastChange = "2024-09-09 00:03:20 +0000";
layers = (
{
layerId = m01;
shapes = (
{
closed = 1;
nodes = (
(388,0,ls),
(593,0,o),
(694,84,o),
(694,244,cs),
(694,361,o),
(571,453,o),
(419,447,cs),
(138,436,l),
(138,147,ls),
(138,75,o),
(124,57,o),
(50,49,c),
(50,0,l)
);
},
{
closed = 1;
nodes = (
(273,63,o),
(238,84,o),
(239,157,cs),
(241,390,l),
(307,393,ls),
(489,401,o),
(566,333,o),
(566,216,cs),
(566,118,o),
(494,65,o),
(367,64,cs)
);
},
{
closed = 1;
nodes = (
(390,433,ls),
(546,442,o),
(624,516,o),
(624,612,cs),
(624,728,o),
(528,800,o),
(375,800,cs),
(50,800,l),
(50,751,l),
(121,746,o),
(138,728,o),
(138,656,cs),
(138,419,l)
);
},
{
closed = 1;
nodes = (
(243,466,l),
(243,722,l),
(285,729,ls),
(423,752,o),
(521,694,o),
(521,593,cs),
(521,500,o),
(438,457,o),
(307,463,cs)
);
}
);
width = 724;
}
);
unicode = 66;
},
{
glyphname = C;
kernLeft = O;
lastChange = "2024-08-23 22:19:52 +0000";
layers = (
{
associatedMasterId = m01;
background = {
shapes = (
{
closed = 1;
nodes = (
(704,-15,o),
(863,159,o),
(863,401,cs),
(863,614,o),
(714,812,o),
(479,812,cs),
(227,812,o),
(40,653,o),
(40,401,cs),
(40,164,o),
(188,-15,o),
(439,-15,cs)
);
},
{
closed = 1;
nodes = (
(275,65,o),
(162,248,o),
(162,424,cs),
(162,600,o),
(269,732,o),
(433,732,cs),
(634,732,o),
(746,548,o),
(746,371,cs),
(746,199,o),
(646,65,o),
(475,65,cs)
);
}
);
};
backgroundImage = {
imagePath = "../../Desktop/Screenshot 2024-07-29 at 5.56.01 PM.png";
locked = 1;
pos = (-83,-134);
scale = (18.2058,18.2058);
};
guides = (
{
angle = 270;
pos = (793,-204);
}
);
layerId = "84482C40-F249-408E-85FD-B5E789880D52";
name = "Jul 30, 24 at 20:52";
shapes = (
{
closed = 1;
nodes = (
(597,-15,o),
(657,29,o),
(768,52,c),
(789,259,l),
(723,259,l),
(694,124,o),
(610,64,o),
(474,64,cs),
(315,64,o),
(165,210,o),
(165,393,cs),
(165,602,o),
(275,733,o),
(444,733,cs),
(569,733,o),
(683,681,o),
(712,571,c),
(772,571,l),
(746,760,l),
(646,766,o),
(579,810,o),
(454,810,cs),
(207,810,o),
(40,629,o),
(40,393,cs),
(40,158,o),
(196,-15,o),
(454,-15,cs)
);
}
);
width = 819;
},
{
anchors = (
{
name = bottom;
pos = (430,-18);
},
{
name = top;
pos = (399,800);
}
);
background = {
shapes = (
{
closed = 1;
nodes = (
(692,-15,o),
(851,159,o),
(851,401,cs),
(851,614,o),
(702,812,o),
(467,812,cs),
(215,812,o),
(28,653,o),
(28,401,cs),
(28,164,o),
(176,-15,o),
(427,-15,cs)
);
},
{
closed = 1;
nodes = (
(263,65,o),
(150,248,o),
(150,424,cs),
(150,600,o),
(257,732,o),
(421,732,cs),
(622,732,o),
(734,548,o),
(734,371,cs),
(734,199,o),
(634,65,o),
(463,65,cs)
);
}
);
};
backgroundImage = {
imagePath = "../../Desktop/Screenshot 2024-07-29 at 5.56.01 PM.png";
locked = 1;
pos = (-95,-134);
scale = (18.2058,18.2058);
};
guides = (
{
angle = 270;
pos = (781,-204);
}
);
layerId = m01;
name = Regular;
shapes = (
{
closed = 1;
nodes = (
(560,-17,o),
(632,18,o),
(684,21,c),
(767,180,l),
(714,180,l),
(650,97,o),
(595,64,o),
(455,64,cs),
(276,64,o),
(147,199,o),
(147,393,cs),
(147,602,o),
(263,740,o),
(432,740,cs),
(557,740,o),
(641,708,o),
(670,578,c),
(730,578,l),
(704,787,l),
(604,792,o),
(567,817,o),
(442,817,cs),
(195,817,o),
(20,629,o),
(20,393,cs),
(20,158,o),
(174,-17,o),
(432,-17,cs)
);
}
);
width = 797;
},
{
associatedMasterId = m01;
background = {
shapes = (
{
closed = 1;
nodes = (
(701,-15,o),
(860,159,o),
(860,401,cs),
(860,614,o),
(711,812,o),
(476,812,cs),
(224,812,o),
(37,653,o),
(37,401,cs),
(37,164,o),
(185,-15,o),
(436,-15,cs)
);
},
{
closed = 1;
nodes = (
(272,65,o),
(159,248,o),
(159,424,cs),
(159,600,o),
(266,732,o),
(430,732,cs),
(631,732,o),
(743,548,o),
(743,371,cs),
(743,199,o),
(643,65,o),
(472,65,cs)
);
}
);
};
backgroundImage = {
imagePath = "../../Desktop/Screenshot 2024-07-29 at 5.56.01 PM.png";
locked = 1;
pos = (-86,-134);
scale = (18.2058,18.2058);
};
guides = (
{
angle = 270;
pos = (790,-204);
}
);
layerId = "912C2AEF-7BF0-49A9-91E9-56C048B18437";
name = "Aug 2, 24 at 09:03";
shapes = (
{
closed = 1;
nodes = (
(594,-17,o),
(634,4,o),
(745,13,c),
(776,230,l),
(700,230,l),
(671,85,o),
(607,62,o),
(471,62,cs),
(312,62,o),
(155,210,o),
(155,393,cs),
(155,602,o),
(272,740,o),
(441,740,cs),
(566,740,o),
(650,708,o),
(679,578,c),
(749,578,l),
(723,787,l),
(623,792,o),
(576,817,o),
(451,817,cs),
(204,817,o),
(30,629,o),
(30,393,cs),
(30,158,o),
(193,-17,o),
(451,-17,cs)
);
}
);
width = 816;
}
);
unicode = 67;
},
{
glyphname = D;
kernRight = O;
lastChange = "2024-09-09 00:14:16 +0000";
layers = (
{
associatedMasterId = m01;
background = {
shapes = (
{
closed = 1;
nodes = (
(704,-15,o),
(863,159,o),
(863,401,cs),
(863,614,o),
(714,812,o),
(479,812,cs),
(227,812,o),
(40,653,o),
(40,401,cs),
(40,164,o),
(188,-15,o),
(439,-15,cs)
);
},
{
closed = 1;
nodes = (
(275,65,o),
(162,248,o),
(162,424,cs),
(162,600,o),
(269,732,o),
(433,732,cs),
(634,732,o),
(746,548,o),
(746,371,cs),
(746,199,o),
(646,65,o),
(475,65,cs)
);
}
);
};
backgroundImage = {
imagePath = "../../Desktop/Screenshot 2024-07-29 at 5.55.46 PM.png";
locked = 1;
pos = (-67,-110);
scale = (13.8839,13.8839);
};
layerId = "4FE98B57-7EE3-4A0B-A395-9EE28843A3D9";
name = "Jul 30, 24 at 09:50";
shapes = (
{
closed = 1;
nodes = (
(69,800,l),
(69,741,l),
(126,734,o),
(162,710,o),
(162,640,cs),
(162,173,ls),
(162,99,o),
(131,70,o),
(50,59,c),
(50,0,l),
(369,0,ls),
(691,0,o),
(863,159,o),
(863,401,cs),
(863,640,o),
(691,804,o),
(389,802,cs)
);
},
{
closed = 1;
nodes = (
(582,726,o),
(746,592,o),
(746,371,cs),
(746,199,o),
(594,63,o),
(382,80,cs),
(268,89,l),
(268,711,l),
(373,716,ls)
);
}
);
width = 893;
},
{
anchors = (
{
name = bottom;
pos = (427,0);
},
{
name = center;
pos = (208,400);
},
{
name = top;
pos = (427,800);
}
);
background = {
shapes = (
{
closed = 1;
nodes = (
(674,-15,o),
(833,159,o),
(833,401,cs),
(833,614,o),
(684,812,o),
(449,812,cs),
(197,812,o),
(10,653,o),
(10,401,cs),
(10,164,o),
(158,-15,o),
(409,-15,cs)
);
},
{
closed = 1;
nodes = (
(245,65,o),
(132,248,o),
(132,424,cs),
(132,600,o),
(239,732,o),
(403,732,cs),
(604,732,o),
(716,548,o),
(716,371,cs),
(716,199,o),
(616,65,o),
(445,65,cs)
);
}
);
};
backgroundImage = {
imagePath = "../../Desktop/Screenshot 2024-07-29 at 5.55.46 PM.png";
locked = 1;
pos = (-97,-110);
scale = (13.8839,13.8839);
};
layerId = m01;
name = Regular;
shapes = (
{
closed = 1;
nodes = (
(339,0,ls),
(675,0,o),
(833,193,o),
(833,421,cs),
(833,629,o),
(656,804,o),
(359,802,cs),
(49,800,l),
(49,751,l),
(116,744,o),
(132,730,o),
(132,650,cs),
(132,163,ls),
(132,79,o),
(111,60,o),
(40,49,c),
(40,0,l)
);
},
{
closed = 1;
nodes = (
(238,89,l),
(238,711,l),
(343,718,ls),
(565,733,o),
(711,602,o),
(711,381,cs),
(711,167,o),
(554,70,o),
(352,82,cs)
);
}
);
width = 853;
},
{
associatedMasterId = m01;
background = {
shapes = (
{
closed = 1;
nodes = (
(704,-15,o),
(863,159,o),
(863,401,cs),
(863,614,o),
(714,812,o),
(479,812,cs),
(227,812,o),
(40,653,o),
(40,401,cs),
(40,164,o),
(188,-15,o),
(439,-15,cs)
);
},
{
closed = 1;
nodes = (
(275,65,o),
(162,248,o),
(162,424,cs),
(162,600,o),
(269,732,o),
(433,732,cs),
(634,732,o),
(746,548,o),
(746,371,cs),
(746,199,o),
(646,65,o),
(475,65,cs)
);
}
);
};
backgroundImage = {
imagePath = "../../Desktop/Screenshot 2024-07-29 at 5.55.46 PM.png";
locked = 1;
pos = (-67,-110);
scale = (13.8839,13.8839);
};
layerId = "470BE169-3CDB-4908-A49C-937EDC8C5E46";
name = "Jul 30, 24 at 22:12";
shapes = (
{
closed = 1;
nodes = (
(59,800,l),
(59,741,l),
(116,734,o),
(162,710,o),
(162,640,cs),
(162,173,ls),
(162,99,o),
(131,70,o),
(50,59,c),
(50,0,l),
(369,0,ls),
(705,0,o),
(853,173,o),
(853,411,cs),
(853,624,o),
(681,804,o),
(389,802,cs)
);
},
{
closed = 1;
nodes = (
(595,727,o),
(736,582,o),
(736,371,cs),
(736,167,o),
(584,64,o),
(382,80,cs),
(268,89,l),
(268,711,l),
(373,716,ls)
);
}
);
width = 903;
}
);
unicode = 68;
},
{
glyphname = E;
kernLeft = H;
lastChange = "2024-09-09 00:04:45 +0000";
layers = (
{
anchors = (
{
name = bottom;
pos = (377,0);
},
{
name = ogonek;
pos = (686,10);
},
{
name = top;
pos = (377,800);
},
{
name = topleft;
pos = (10,800);
}
);
layerId = m01;
shapes = (
{
closed = 1;
nodes = (
(673,0,l),
(713,218,l),
(657,219,l),
(623,119,o),
(566,71,o),
(380,71,cs),
(301,71,o),
(258,108,o),
(258,182,cs),
(258,722,l),
(326,730,o),
(395,733,o),
(447,733,cs),
(561,733,o),
(599,707,o),
(619,607,c),
(673,607,l),
(647,800,l),
(59,800,l),
(59,751,l),
(116,744,o),
(154,720,o),
(154,650,cs),
(154,163,ls),
(154,89,o),
(121,60,o),
(40,49,c),
(40,0,l)
);
},
{
closed = 1;
nodes = (
(566,281,l),
(566,532,l),
(517,532,l),
(510,465,o),
(500,445,o),
(419,445,cs),
(204,445,l),
(204,378,l),
(419,378,ls),
(500,378,o),
(512,359,o),
(517,281,c)
);
}
);
width = 753;
}
);
unicode = 69;
},
{
glyphname = F;
kernLeft = H;
lastChange = "2024-09-09 00:05:04 +0000";
layers = (
{
background = {
shapes = (
{
closed = 1;
nodes = (
(673,0,l),
(713,218,l),
(654,219,l),
(620,119,o),
(566,71,o),
(380,71,cs),
(301,71,o),
(258,108,o),
(258,182,cs),
(258,722,l),
(326,730,o),
(395,733,o),
(447,733,cs),
(561,733,o),
(597,707,o),
(617,607,c),
(673,607,l),
(647,800,l),
(59,800,l),
(59,741,l),
(116,734,o),
(152,710,o),
(152,640,cs),
(152,173,ls),
(152,99,o),
(121,70,o),
(40,59,c),
(40,0,l)
);
},
{
closed = 1;
nodes = (
(566,281,l),
(566,530,l),
(515,530,l),
(508,463,o),
(488,443,o),
(417,443,cs),
(204,443,l),
(204,378,l),
(417,378,ls),
(488,378,o),
(510,359,o),
(515,281,c)
);
}
);
};
layerId = m01;
shapes = (
{
closed = 1;
nodes = (
(400,0,l),
(400,58,l),
(307,65,o),
(258,87,o),
(258,169,cs),
(258,722,l),
(326,730,o),
(385,733,o),
(427,733,cs),
(533,733,o),
(580,706,o),
(599,607,c),
(653,607,l),
(627,800,l),
(59,800,l),
(59,751,l),
(116,744,o),
(154,720,o),
(154,650,cs),
(154,163,ls),
(154,89,o),
(121,60,o),
(40,49,c),
(40,0,l)
);
},
{
closed = 1;
nodes = (
(552,265,l),
(552,516,l),
(503,516,l),
(496,444,o),
(481,429,o),
(405,429,cs),
(200,429,l),
(200,362,l),
(405,362,ls),
(481,362,o),
(498,348,o),
(503,265,c)
);
}
);
width = 673;
}
);
unicode = 70;
},
{
glyphname = G;
kernLeft = O;
lastChange = "2024-09-09 00:04:35 +0000";
layers = (
{
background = {
shapes = (
{
closed = 1;
nodes = (
(597,-15,o),
(665,3,o),
(754,42,c),
(755,249,ls),
(755,298,o),
(775,324,o),
(847,330,c),
(847,389,l),
(543,389,l),
(543,330,l),
(629,324,o),
(650,298,o),
(651,249,cs),
(652,106,l),
(607,79,o),
(543,65,o),
(474,65,cs),
(305,65,o),
(160,200,o),
(160,383,cs),
(160,592,o),
(275,732,o),
(444,732,cs),
(569,732,o),
(642,671,o),
(671,541,c),
(741,541,l),
(718,732,l),
(705,741,o),
(692,750,o),
(678,757,cs),
(616,792,o),
(542,810,o),
(444,810,cs),
(197,810,o),
(28,619,o),
(28,383,cs),
(28,148,o),
(206,-15,o),
(474,-15,cs)
);
}
);
};
guides = (
{
angle = 270;
pos = (757,-65);
}
);
layerId = m01;
shapes = (
{
closed = 1;
nodes = (
(577,-15,o),
(640,19,o),
(751,42,c),
(752,253,ls),
(752,312,o),
(763,328,o),
(845,334,c),
(845,386,l),
(543,386,l),
(543,334,l),
(639,328,o),
(652,312,o),
(652,253,cs),
(653,106,l),
(608,79,o),
(543,64,o),
(474,64,cs),
(305,64,o),
(149,200,o),
(149,383,cs),
(149,592,o),
(265,741,o),
(434,741,cs),
(559,741,o),
(647,679,o),
(676,549,c),
(742,549,l),
(716,758,l),
(616,774,o),
(569,818,o),
(444,818,cs),
(197,818,o),
(20,619,o),
(20,383,cs),
(20,148,o),
(186,-15,o),
(454,-15,cs)
);
}
);
width = 865;
},
{
associatedMasterId = m01;
background = {
shapes = (
{
closed = 1;
nodes = (
(619,-15,o),
(687,3,o),
(776,42,c),
(777,249,ls),
(777,298,o),
(797,324,o),
(869,330,c),
(869,389,l),
(565,389,l),
(565,330,l),
(651,324,o),
(672,298,o),
(673,249,cs),
(674,106,l),
(629,79,o),
(565,65,o),
(496,65,cs),
(327,65,o),
(182,200,o),
(182,383,cs),
(182,592,o),
(297,732,o),
(466,732,cs),
(591,732,o),
(664,671,o),
(693,541,c),
(763,541,l),
(740,732,l),
(727,741,o),
(714,750,o),
(700,757,cs),
(638,792,o),
(564,810,o),
(466,810,cs),
(219,810,o),
(50,619,o),
(50,383,cs),
(50,148,o),
(228,-15,o),
(496,-15,cs)
);
}
);
};
backgroundImage = {
angle = -0.1;
imagePath = "../../../../var/folders/j2/c80jlpq56g38qtrpmn4sn6hw0000gn/T/TemporaryItems/NSIRD_screencaptureui_Mxn2Bg/Screenshot 2024-07-09 at 11.30.28 PM.png";
locked = 1;
pos = (-21,-81);
scale = (24.977,24.977);
};
guides = (
{
angle = 270;
pos = (779,-65);
}
);
layerId = "9A1C39EE-F7AD-4865-AEC3-25D9F89B52C7";
name = "curve only on top";
shapes = (
{
closed = 1;
nodes = (
(619,-15,o),
(687,3,o),
(776,42,c),
(777,246,ls),
(777,295,o),
(797,321,o),
(869,327,c),
(869,386,l),
(565,386,l),
(565,327,l),
(651,321,o),
(673,295,o),
(673,246,cs),
(674,106,l),
(629,79,o),
(565,65,o),
(496,65,cs),
(327,65,o),
(182,200,o),
(182,383,cs),
(182,592,o),
(287,732,o),
(456,732,cs),
(581,732,o),
(665,671,o),
(694,541,c),
(764,541,l),
(738,750,l),
(638,767,o),
(591,810,o),
(466,810,cs),
(219,810,o),
(50,619,o),
(50,383,cs),
(50,148,o),
(228,-15,o),
(496,-15,cs)
);
}
);
width = 899;
}
);
unicode = 71;
},
{
glyphname = H;
kernLeft = H;
kernRight = H;
lastChange = "2024-09-09 00:01:23 +0000";
layers = (
{
layerId = m01;
shapes = (
{
closed = 1;
nodes = (
(972,0,l),
(972,52,l),
(898,57,o),
(858,81,o),
(858,149,cs),
(858,658,ls),
(858,722,o),
(890,744,o),
(968,751,c),
(968,800,l),
(638,800,l),
(638,751,l),
(722,744,o),
(754,722,o),
(754,658,cs),
(754,149,ls),
(754,80,o),
(732,57,o),
(643,52,c),
(643,0,l)
);
},
{
closed = 1;
nodes = (
(374,0,l),
(374,52,l),
(300,57,o),
(260,80,o),
(260,149,cs),
(260,658,ls),
(260,722,o),
(289,744,o),
(370,751,c),
(370,800,l),
(40,800,l),
(40,751,l),
(118,744,o),
(156,722,o),
(156,658,cs),
(156,149,ls),
(156,79,o),
(128,60,o),
(45,52,c),
(45,0,l)
);
},
{
closed = 1;
nodes = (
(779,450,l),
(234,454,l),
(234,375,l),
(779,373,l)
);
}
);
width = 1012;
}
);
unicode = 72;
},
{
glyphname = I;
lastChange = "2024-09-09 00:07:11 +0000";
layers = (
{
anchors = (
{
name = bottom;
pos = (222,0);
},
{
name = ogonek;
pos = (408,10);
},
{
name = top;
pos = (222,800);
},
{
name = topleft;
pos = (10,800);
}
);
layerId = m01;
shapes = (
{
closed = 1;
nodes = (
(395,0,l),
(395,52,l),
(311,57,o),
(273,80,o),
(273,149,cs),
(273,658,ls),
(273,722,o),
(304,744,o),
(395,751,c),
(395,800,l),
(50,800,l),
(50,751,l),
(138,744,o),
(172,722,o),
(172,658,cs),
(172,149,ls),
(172,79,o),
(143,60,o),
(50,52,c),
(50,0,l)
);
}
);
width = 445;
}
);
unicode = 73;
},
{
glyphname = J;
lastChange = "2024-09-09 00:14:32 +0000";
layers = (
{
associatedMasterId = m01;
layerId = "AA1F763E-6161-4D6C-AFA2-18431D6B8305";
name = "Jul 31, 24 at 17:59";
shapes = (
{
closed = 1;
nodes = (
(185,-51,o),
(127,-103,o),
(62,-103,cs),
(28,-103,o),
(0,-95,o),
(-23,-53,c),
(-47,-53,l),
(-122,-84,l),
(-120,-152,o),
(-50,-182,o),
(24,-182,cs),
(153,-182,o),
(290,-59,o),
(289,136,cs),
(287,648,l),
(287,702,o),
(327,734,o),
(408,741,c),
(408,800,l),
(60,800,l),
(60,741,l),
(138,734,o),
(181,702,o),
(181,648,c),
(184,94,ls)
);
}
);
width = 438;
},
{
associatedMasterId = m01;
layerId = "93C2D8B3-9E64-4C37-B11F-814AE8413CF8";
name = "Jul 31, 24 at 18:02";
shapes = (
{
closed = 1;
nodes = (
(216,-169,o),
(290,-59,o),
(289,110,cs),
(287,648,ls),
(287,702,o),
(327,734,o),
(408,741,c),
(408,800,l),
(60,800,l),
(60,741,l),
(138,734,o),
(181,702,o),
(181,648,cs),
(183,110,ls),
(184,-60,o),
(136,-139,o),
(30,-220,c),
(62,-268,l)
);
}
);
width = 438;
},
{
anchors = (
{
name = bottom;
pos = (199,0);
},
{
name = top;
pos = (199,800);
}
);
layerId = m01;
name = Regular;
shapes = (
{
closed = 1;
nodes = (
(196,-169,o),
(263,-49,o),
(261,150,cs),
(256,658,ls),
(255,722,o),
(287,744,o),
(378,751,c),
(378,800,l),
(30,800,l),
(30,751,l),
(118,744,o),
(151,722,o),
(152,658,cs),
(157,150,ls),
(159,-20,o),
(106,-119,o),
(-20,-200,c),
(12,-248,l)
);
}
);
width = 398;
}
);
unicode = 74;
},
{
glyphname = K;
lastChange = "2024-09-09 00:15:31 +0000";
layers = (
{
associatedMasterId = m01;
background = {
shapes = (
{
closed = 1;
nodes = (
(704,-15,o),
(863,159,o),
(863,401,cs),
(863,614,o),
(714,812,o),
(479,812,cs),
(227,812,o),
(40,653,o),
(40,401,cs),
(40,164,o),
(188,-15,o),
(439,-15,cs)
);
},
{
closed = 1;
nodes = (
(275,65,o),
(162,248,o),
(162,424,cs),
(162,600,o),
(269,732,o),
(433,732,cs),
(634,732,o),
(746,548,o),
(746,371,cs),
(746,199,o),
(646,65,o),
(475,65,cs)
);
}
);
};
guides = (
{
pos = (729,416);
},
{
angle = 270;
pos = (850,319);
}
);
layerId = "1CA38100-763D-4C83-B439-1928058693BE";
name = "Aug 2, 24 at 18:21";
shapes = (
{
closed = 1;
nodes = (
(384,0,l),
(384,62,l),
(310,67,o),
(271,100,o),
(271,159,cs),
(271,648,ls),
(271,702,o),
(299,734,o),
(380,741,c),
(380,800,l),
(50,800,l),
(50,741,l),
(128,734,o),
(165,702,o),
(165,648,cs),
(165,159,ls),
(165,99,o),
(138,70,o),
(55,62,c),
(55,0,l)
);
},
{
closed = 1;
nodes = (
(842,0,l),
(842,62,l),
(785,74,o),
(754,85,o),
(716,130,cs),
(415,485,l),
(335,433,l),
(556,148,ls),
(601,90,o),
(597,68,o),
(523,62,c),
(523,0,l)
);
},
{
closed = 1;
nodes = (
(193,251,l),
(679,694,ls),
(720,731,o),
(751,744,o),
(808,751,c),
(808,810,l),
(528,810,l),
(528,751,l),
(601,744,o),
(597,717,o),
(559,682,cs),
(241,383,l)
);
}
);
width = 862;
},
{
background = {
shapes = (
{
closed = 1;
nodes = (
(694,-15,o),
(853,159,o),
(853,401,cs),
(853,614,o),
(704,812,o),
(469,812,cs),
(217,812,o),
(30,653,o),
(30,401,cs),
(30,164,o),
(178,-15,o),
(429,-15,cs)
);
},
{
closed = 1;
nodes = (
(265,65,o),
(152,248,o),
(152,424,cs),
(152,600,o),
(259,732,o),
(423,732,cs),
(624,732,o),
(736,548,o),
(736,371,cs),
(736,199,o),
(636,65,o),
(465,65,cs)
);
}
);
};
guides = (
{
pos = (719,416);
},
{
angle = 270;
pos = (840,319);
}
);
layerId = m01;
name = Regular;
shapes = (
{
closed = 1;
nodes = (
(832,0,l),
(832,52,l),
(775,64,o),
(759,73,o),
(708,120,cs),
(367,430,l),
(672,694,ls),
(715,731,o),
(738,744,o),
(798,751,c),
(798,800,l),
(518,800,l),
(518,751,l),
(591,744,o),
(594,721,o),
(549,682,cs),
(251,423,l),
(546,138,ls),
(604,82,o),
(597,58,o),
(513,52,c),
(513,0,l)
);
},
{
closed = 1;
nodes = (
(374,0,l),
(374,52,l),
(290,57,o),
(260,80,o),
(260,149,cs),
(260,658,ls),
(260,722,o),
(279,744,o),
(370,751,c),
(370,800,l),
(40,800,l),
(40,751,l),
(128,744,o),
(156,722,o),
(156,658,cs),
(156,149,ls),
(156,79,o),
(138,60,o),
(45,52,c),
(45,0,l)
);
}
);
width = 842;
}
);
unicode = 75;
},
{
glyphname = L;
lastChange = "2024-09-09 00:16:26 +0000";
layers = (
{
layerId = m01;
shapes = (
{
closed = 1;
nodes = (
(673,0,l),
(713,218,l),
(659,219,l),
(625,119,o),
(566,71,o),
(370,71,cs),
(291,71,o),
(247,108,o),
(247,182,cs),
(247,645,ls),
(247,719,o),
(264,738,o),
(351,748,c),
(351,800,l),
(39,800,l),
(39,748,l),
(129,738,o),
(143,719,o),
(143,645,cs),
(143,163,ls),
(143,79,o),
(121,60,o),
(30,49,c),
(30,0,l)
);
}
);
width = 723;
}
);
unicode = 76;
},
{
glyphname = M;
kernLeft = H;
kernRight = H;
lastChange = "2024-09-09 00:02:30 +0000";
layers = (
{
layerId = m01;
shapes = (
{
closed = 1;
nodes = (
(339,0,l),
(339,52,l),
(253,59,o),
(221,77,o),
(221,163,cs),
(221,655,l),
(523,20,l),
(553,20,l),
(830,655,l),
(830,163,ls),
(830,74,o),
(804,57,o),
(724,52,c),
(724,0,l),
(1048,0,l),
(1048,52,l),
(975,57,o),
(940,74,o),
(938,163,cs),
(926,679,ls),
(925,726,o),
(959,747,o),
(1022,754,c),
(1022,803,l),
(800,800,l),
(800,773,o),
(795,742,o),
(785,718,cs),
(547,163,l),
(289,718,ls),
(280,738,o),
(273,774,o),
(273,800,c),
(44,803,l),
(44,754,l),
(119,746,o),
(154,716,o),
(153,661,cs),
(147,163,ls),
(146,77,o),
(125,62,o),
(40,52,c),
(40,0,l)
);
}
);
width = 1088;
},
{
associatedMasterId = m01;
layerId = "4BD4B0F7-B249-430E-BB06-6C7DDE575AFB";
name = narrow;
shapes = (
{
closed = 1;
nodes = (
(349,0,l),
(349,62,l),
(263,69,o),
(224,97,o),
(231,173,cs),
(274,632,l),
(533,20,l),
(563,20,l),
(799,639,l),
(840,173,ls),
(847,94,o),
(814,67,o),
(734,62,c),
(734,0,l),
(1058,0,l),
(1058,62,l),
(985,67,o),
(959,94,o),
(951,173,cs),
(899,669,ls),
(894,716,o),
(929,737,o),
(992,744,c),
(992,803,l),
(770,800,l),
(770,773,o),
(764,742,o),
(755,718,cs),
(560,176,l),
(342,718,ls),
(334,738,o),
(326,774,o),
(326,800,c),
(94,803,l),
(94,744,l),
(169,736,o),
(208,706,o),
(203,651,cs),
(157,173,ls),
(150,97,o),
(135,72,o),
(50,62,c),
(50,0,l)
);
}
);
width = 1108;
},
{
associatedMasterId = m01;
layerId = "6B69E96F-B83B-4AEA-94CC-15B45DBE63E6";
name = "Aug 8, 24 at 22:39";
shapes = (
{
closed = 1;
nodes = (
(349,0,l),
(349,62,l),
(263,69,o),
(231,97,o),
(231,173,cs),
(234,632,l),
(533,20,l),
(563,20,l),
(839,639,l),
(840,173,ls),
(840,94,o),
(814,67,o),
(734,62,c),
(734,0,l),
(1058,0,l),
(1058,62,l),
(985,67,o),
(953,94,o),
(951,173,cs),
(939,669,ls),
(938,716,o),
(969,737,o),
(1032,744,c),
(1032,803,l),
(810,800,l),
(810,773,o),
(805,742,o),
(795,718,cs),
(560,176,l),
(302,718,ls),
(292,738,o),
(286,774,o),
(286,800,c),
(54,803,l),
(54,744,l),
(129,736,o),
(164,706,o),
(163,651,cs),
(157,173,ls),
(156,97,o),
(135,72,o),
(50,62,c),
(50,0,l)
);
}
);
width = 1108;
}
);
unicode = 77;
},
{
glyphname = N;
kernLeft = H;
kernRight = H;
lastChange = "2024-09-09 00:06:21 +0000";
layers = (
{
anchors = (
{
name = bottom;
pos = (480,0);
},
{
name = top;
pos = (480,800);
}
);
background = {
shapes = (
{
closed = 1;
nodes = (
(340,0,l),
(340,62,l),
(254,69,o),
(223,97,o),
(222,173,cs),
(219,626,l),
(730,58,l),
(747,39,o),
(765,19,o),
(782,0,c),
(834,0,l),
(832,630,ls),
(832,706,o),
(854,731,o),
(939,741,c),
(939,803,l),
(639,803,l),
(639,741,l),
(725,734,o),
(756,706,o),
(757,630,cs),
(762,190,l),
(289,718,ls),
(273,736,o),
(263,774,o),
(263,800,c),
(45,803,l),
(45,744,l),
(120,736,o),
(147,713,o),
(147,651,cs),
(147,173,ls),
(147,97,o),
(125,72,o),
(40,62,c),
(40,0,l)
);
}
);
};
layerId = m01;
shapes = (
{
closed = 1;
nodes = (
(340,0,l),
(340,52,l),
(249,59,o),
(223,82,o),
(222,163,cs),
(219,625,l),
(782,0,l),
(834,0,l),
(832,640,ls),
(832,721,o),
(849,741,o),
(939,751,c),
(939,803,l),
(639,803,l),
(639,751,l),
(730,744,o),
(756,721,o),
(757,640,cs),
(762,188,l),
(289,716,ls),
(273,734,o),
(263,774,o),
(263,800,c),
(45,803,l),
(45,754,l),
(120,746,o),
(147,723,o),
(147,661,cs),
(147,163,ls),
(147,82,o),
(130,62,o),
(40,52,c),
(40,0,l)
);
}
);
width = 959;
}
);
unicode = 78;
},
{
glyphname = O;
kernLeft = O;
kernRight = O;
lastChange = "2024-08-23 22:19:52 +0000";
layers = (
{
anchors = (
{
name = bottom;
pos = (443,-16);
},
{
name = center;
pos = (445,400);
},
{
name = ogonek;
pos = (808,10);
},
{
name = top;
pos = (445,819);
},
{
name = topleft;
pos = (10,800);
},
{
name = topright;
pos = (879,800);
}
);
background = {
shapes = (
{
closed = 1;
nodes = (
(653,18,o),
(736,104,cs),
(836,207,o),
(882,361,o),
(842,509,cs),
(800,668,o),
(668,781,o),
(516,808,cs),
(416,826,o),
(238,773,o),
(163,702,cs),
(57,601,o),
(7,447,o),
(47,296,cs),
(89,140,o),
(217,24,o),
(367,-8,cs),
(482,-34,o)
);
},
{
closed = 1;
nodes = (
(382,32,o),
(217,144,o),
(170,324,cs),
(122,502,o),
(208,681,o),
(361,722,cs),
(514,763,o),
(678,652,o),
(724,472,cs),
(772,294,o),
(688,114,o),
(534,75,cs)
);
}
);
};
layerId = m01;
shapes = (
{
closed = 1;
nodes = (
(700,-16,o),
(859,160,o),
(859,404,cs),
(859,619,o),
(710,819,o),
(462,819,cs),
(218,819,o),
(30,659,o),
(30,404,cs),
(30,165,o),
(178,-16,o),
(432,-16,cs)
);
},
{
closed = 1;
nodes = (
(266,65,o),
(151,249,o),
(151,427,cs),
(151,605,o),
(260,738,o),
(426,738,cs),
(629,738,o),
(743,552,o),
(743,374,cs),
(743,200,o),
(641,65,o),
(468,65,cs)
);
}
);
width = 889;
},
{
associatedMasterId = m01;
background = {
shapes = (
{
closed = 1;
nodes = (
(660,18,o),
(743,104,cs),
(843,207,o),
(889,361,o),
(849,509,cs),
(807,668,o),
(675,781,o),
(523,808,cs),
(423,826,o),
(245,773,o),
(170,702,cs),
(64,601,o),
(14,447,o),
(54,296,cs),
(96,140,o),
(224,24,o),
(374,-8,cs),
(489,-34,o)
);
},
{
closed = 1;
nodes = (
(389,32,o),
(224,144,o),
(177,324,cs),
(129,502,o),
(215,681,o),
(368,722,cs),
(521,763,o),
(685,652,o),
(731,472,cs),
(779,294,o),
(695,114,o),
(541,75,cs)
);
}
);
};
layerId = "637D4A0F-D371-42CC-A1DC-F6B5E1DE4E16";
name = "Jul 30, 24 at 20:54";
shapes = (
{
closed = 1;
nodes = (
(704,-15,o),
(863,159,o),
(863,401,cs),
(863,614,o),
(714,812,o),
(479,812,cs),
(227,812,o),
(40,653,o),
(40,401,cs),
(40,164,o),
(188,-15,o),
(439,-15,cs)
);
},
{
closed = 1;
nodes = (
(275,65,o),
(162,248,o),
(162,424,cs),
(162,600,o),
(269,732,o),
(433,732,cs),
(634,732,o),
(746,548,o),
(746,371,cs),
(746,199,o),
(646,65,o),
(475,65,cs)
);
}
);
width = 903;
}
);
unicode = 79;
},
{
glyphname = OE;
lastChange = "2024-09-08 04:43:18 +0000";
layers = (
{
layerId = m01;
shapes = (
{
closed = 1;
nodes = (
(1073,0,l),
(1113,218,l),
(1058,219,l),
(1024,119,o),
(966,71,o),
(780,71,cs),
(701,71,o),
(658,108,o),
(658,182,cs),
(658,722,l),
(726,730,o),
(795,733,o),
(847,733,cs),
(961,733,o),
(1001,707,o),
(1021,607,c),
(1073,607,l),
(1047,800,l),
(459,800,ls),
(216,799,o),
(30,658,o),
(30,404,cs),
(30,165,o),
(178,0,o),
(432,0,cs)
);
},
{
closed = 1;
nodes = (
(261,81,o),
(151,253,o),
(151,427,cs),
(151,605,o),
(260,719,o),
(426,719,cs),
(526,719,o),
(554,701,o),
(554,650,cs),
(554,176,ls),
(554,106,o),
(526,81,o),
(454,81,cs)
);
},
{
closed = 1;
nodes = (
(966,281,l),
(966,532,l),
(917,532,l),
(910,465,o),
(890,445,o),
(819,445,cs),
(604,445,l),
(604,378,l),
(819,378,ls),
(890,378,o),
(912,359,o),
(917,281,c)
);
}
);
width = 1153;
}
);
metricLeft = "=O";
metricRight = "=E";
unicode = 338;
},
{
glyphname = P;
lastChange = "2024-09-09 00:13:58 +0000";
layers = (
{
background = {
shapes = (
{
closed = 1;
nodes = (
(279,341,ls),
(533,351,o),
(652,426,o),
(652,584,cs),
(652,720,o),
(551,800,o),
(322,800,cs),
(59,800,l),
(59,741,l),
(116,734,o),
(152,710,o),
(152,640,cs),
(152,336,l)
);
},
{
closed = 1;
nodes = (
(370,0,l),
(370,59,l),
(292,70,o),
(258,99,o),
(258,173,cs),
(258,477,l),
(152,477,l),
(152,173,ls),
(152,99,o),
(121,70,o),
(40,59,c),
(40,0,l)
);
},
{
closed = 1;
nodes = (
(817,-87,l),
(640,6,o),
(547,199,o),
(491,399,c),
(379,360,l),
(465,122,o),
(579,-55,o),
(783,-146,c)
);
},
{
closed = 1;
nodes = (
(258,409,l),
(258,728,l),
(330,733,ls),
(442,741,o),
(543,679,o),
(543,569,cs),
(543,461,o),
(458,403,o),
(292,408,cs)
);
}
);
};
backgroundImage = {
imagePath = "../../Desktop/Screenshot 2024-07-29 at 5.56.15 PM.png";
locked = 1;
pos = (-126,-102);
scale = (29.3982,29.3982);
};
layerId = m01;
shapes = (
{
closed = 1;
nodes = (
(279,309,ls),
(533,315,o),
(638,416,o),
(638,574,cs),
(638,705,o),
(546,800,o),
(322,800,cs),
(59,800,l),
(59,751,l),
(133,744,o),
(154,720,o),
(154,650,cs),
(154,306,l)
);
},
{
closed = 1;
nodes = (
(390,0,l),
(390,49,l),
(278,59,o),
(258,75,o),
(258,163,cs),
(258,477,l),
(154,477,l),
(154,163,ls),
(154,81,o),
(137,59,o),
(40,49,c),
(40,0,l)
);
},
{
closed = 1;
nodes = (
(258,379,l),
(258,728,l),
(330,733,ls),
(442,741,o),
(529,679,o),
(529,559,cs),
(529,451,o),
(458,361,o),
(292,376,cs)
);
}
);
width = 668;
}
);
unicode = 80;
},
{
glyphname = Thorn;
lastChange = "2024-08-23 22:19:52 +0000";
layers = (
{
layerId = m01;
shapes = (
{
closed = 1;
nodes = (
(394,0,l),
(394,52,l),
(309,59,o),
(260,90,o),
(260,149,cs),
(260,658,ls),
(260,712,o),
(289,744,o),
(370,751,c),
(370,800,l),
(40,800,l),
(40,751,l),
(118,744,o),
(156,712,o),
(156,658,cs),
(156,149,ls),
(156,89,o),
(128,60,o),
(45,52,c),
(45,0,l)
);
},
{
closed = 1;
nodes = (
(475,187,o),
(619,276,o),
(619,422,cs),
(619,549,o),
(526,617,o),
(322,618,cs),
(165,619,l),
(164,206,l),
(279,199,ls)
);
},
{
closed = 1;
nodes = (
(258,268,l),
(258,549,l),
(326,551,ls),
(424,554,o),
(519,505,o),
(519,396,cs),
(519,319,o),
(445,252,o),
(292,265,cs)
);
}
);
width = 639;
}
);
unicode = 222;
},
{
glyphname = Q;
kernLeft = O;
kernRight = O;
lastChange = "2024-08-23 22:19:52 +0000";
layers = (
{
associatedMasterId = m01;
backgroundImage = {
imagePath = "../../Desktop/IMG_2849.jpeg";
locked = 1;
pos = (-150,-333);
scale = (1.5735,1.5735);
};
layerId = "6B7D40AA-B522-4F81-81B1-AA5A1E5342FD";
name = "Jul 30, 24 at 20:08";
shapes = (
{
closed = 1;
nodes = (
(704,-15,o),
(863,159,o),
(863,401,cs),
(863,614,o),
(714,812,o),
(479,812,cs),
(227,812,o),
(40,653,o),
(40,401,cs),
(40,164,o),
(188,-15,o),
(439,-15,cs)
);
},
{
closed = 1;
nodes = (
(275,65,o),
(162,248,o),
(162,424,cs),
(162,600,o),
(269,732,o),
(433,732,cs),
(634,732,o),
(746,548,o),
(746,371,cs),
(746,199,o),
(646,65,o),
(475,65,cs)
);
},
{
closed = 1;
nodes = (
(1071,-141,l),
(696,-154,o),
(586,117,o),
(332,52,c),
(300,6,l),
(511,-43,o),
(775,-279,o),
(1085,-188,c)
);
}
);
width = 903;
},
{
associatedMasterId = m01;
backgroundImage = {
imagePath = "../../Desktop/IMG_2849.jpeg";
locked = 1;
pos = (-150,-333);
scale = (1.5735,1.5735);
};
layerId = "A1843705-1738-4F15-A304-79F236486E18";
name = "Jul 30, 24 at 20:58";
shapes = (
{
closed = 1;
nodes = (
(523,-46,o),
(805,-306,o),
(1138,-169,c),
(1128,-137,l),
(706,-182,o),
(599,120,o),
(332,52,c),
(300,6,l)
);
},
{
closed = 1;
nodes = (
(704,-15,o),
(863,159,o),
(863,401,cs),
(863,614,o),
(714,812,o),
(479,812,cs),
(227,812,o),
(40,653,o),
(40,401,cs),
(40,164,o),
(188,-15,o),
(439,-15,cs)
);
},
{
closed = 1;
nodes = (
(275,65,o),
(162,248,o),
(162,424,cs),
(162,600,o),
(269,732,o),
(433,732,cs),
(634,732,o),
(746,548,o),
(746,371,cs),
(746,199,o),
(646,65,o),
(475,65,cs)
);
}
);
width = 903;
},
{
associatedMasterId = m01;
backgroundImage = {
imagePath = "../../Desktop/IMG_2849.jpeg";
locked = 1;
pos = (-146,-333);
scale = (1.5735,1.5735);
};
layerId = "14050E10-5D63-4B52-895F-15F6E315A6AF";
name = "Jul 31, 24 at 18:35";
shapes = (
{
closed = 1;
nodes = (
(527,-48,o),
(809,-308,o),
(1142,-171,c),
(1132,-139,l),
(710,-184,o),
(603,118,o),
(336,50,c),
(304,4,l)
);
},
{
closed = 1;
nodes = (
(711,-16,o),
(871,160,o),
(871,404,cs),
(871,619,o),
(721,819,o),
(483,819,cs),
(229,819,o),
(40,659,o),
(40,404,cs),
(40,165,o),
(189,-16,o),
(443,-16,cs)
);
},
{
closed = 1;
nodes = (
(277,65,o),
(163,249,o),
(163,427,cs),
(163,605,o),
(271,738,o),
(437,738,cs),
(640,738,o),
(753,552,o),
(753,374,cs),
(753,200,o),
(652,65,o),
(479,65,cs)
);
}
);
width = 907;
},
{
associatedMasterId = m01;
backgroundImage = {
imagePath = "../../Desktop/Screenshot 2024-08-01 at 8.55.47 AM.png";
locked = 1;
pos = (-232,-473);
scale = (10.3993,10.3993);
};
layerId = "ACA53567-C202-452A-8B8D-FE17DB20031A";
name = "Aug 1, 24 at 10:21";
shapes = (
{
closed = 1;
nodes = (
(705,0,o),
(871,180,o),
(871,424,cs),
(871,639,o),
(721,839,o),
(483,839,cs),
(229,839,o),
(40,679,o),
(40,424,cs),
(40,185,o),
(189,8,o),
(443,4,cs)
);
},
{
closed = 1;
nodes = (
(277,85,o),
(163,269,o),
(163,447,cs),
(163,625,o),
(271,758,o),
(437,758,cs),
(640,758,o),
(753,572,o),
(753,394,cs),
(753,220,o),
(652,85,o),
(479,85,cs)
);
},
{
closed = 1;
nodes = (
(1217,-162,l),
(654,-278,o),
(655,12,o),
(350,102,c),
(304,24,l),
(466,-52,o),
(646,-396,o),
(1232,-205,c)
);
}
);
width = 907;
},
{
associatedMasterId = m01;
backgroundImage = {
imagePath = "../../Desktop/Screenshot 2024-08-01 at 8.55.47 AM.png";
locked = 1;
pos = (-232,-473);
scale = (10.3993,10.3993);
};
layerId = "99A85131-92C7-4D9F-9B29-D18DCCB928E2";
name = "Aug 1, 24 at 10:24";
shapes = (
{
closed = 1;
nodes = (
(527,-28,o),
(799,-298,o),
(1142,-171,c),
(1132,-139,l),
(710,-164,o),
(603,138,o),
(336,80,c),
(304,34,l)
);
},
{
closed = 1;
nodes = (
(711,14,o),
(871,190,o),
(871,434,cs),
(871,649,o),
(721,849,o),
(473,849,cs),
(229,849,o),
(40,689,o),
(40,434,cs),
(40,195,o),
(189,14,o),
(443,14,cs)
);
},
{
closed = 1;
nodes = (
(277,95,o),
(163,279,o),
(163,457,cs),
(163,635,o),
(271,768,o),
(437,768,cs),
(640,768,o),
(753,582,o),
(753,404,cs),
(753,230,o),
(652,95,o),
(479,95,cs)
);
}
);
width = 907;
},
{
backgroundImage = {
imagePath = "../../Desktop/Screenshot 2024-08-01 at 8.55.47 AM.png";
locked = 1;
pos = (-243,-473);
scale = (10.3993,10.3993);
};
layerId = m01;
name = Regular;
shapes = (
{
closed = 1;
nodes = (
(694,10,o),
(859,190,o),
(859,434,cs),
(859,649,o),
(710,849,o),
(472,849,cs),
(218,849,o),
(30,689,o),
(30,434,cs),
(30,195,o),
(178,18,o),
(432,14,cs)
);
},
{
closed = 1;
nodes = (
(1397,-148,l),
(851,-309,o),
(718,-40,o),
(388,90,c),
(331,26,l),
(598,-111,o),
(785,-411,o),
(1411,-195,c)
);
},
{
closed = 1;
nodes = (
(266,95,o),
(152,279,o),
(152,457,cs),
(152,635,o),
(260,768,o),
(426,768,cs),
(629,768,o),
(743,582,o),
(743,404,cs),
(743,230,o),
(641,95,o),
(468,95,cs)
);
}
);
width = 886;
},
{
associatedMasterId = m01;
backgroundImage = {
imagePath = "../../Desktop/Screenshot 2024-08-01 at 8.55.47 AM.png";
locked = 1;
pos = (-232,-473);
scale = (10.3993,10.3993);
};
layerId = "1AA4BA6A-47C6-4E3D-B3CF-3209122AAC57";
name = "Aug 8, 24 at 21:42";
shapes = (
{
closed = 1;
nodes = (
(705,10,o),
(871,190,o),
(871,434,cs),
(871,649,o),
(721,849,o),
(483,849,cs),
(229,849,o),
(40,689,o),
(40,434,cs),
(40,195,o),
(189,18,o),
(443,14,cs)
);
},
{
closed = 1;
nodes = (
(1408,-148,l),
(862,-309,o),
(729,-40,o),
(399,90,c),
(284,44,l),
(546,-73,o),
(796,-442,o),
(1422,-195,c)
);
},
{
closed = 1;
nodes = (
(277,95,o),
(163,279,o),
(163,457,cs),
(163,635,o),
(271,768,o),
(437,768,cs),
(640,768,o),
(753,582,o),
(753,404,cs),
(753,230,o),
(652,95,o),
(479,95,cs)
);
}
);
width = 907;
}
);
unicode = 81;
},
{
glyphname = R;
kernLeft = H;
lastChange = "2024-09-09 00:04:23 +0000";
layers = (
{
associatedMasterId = m01;
background = {
shapes = (
{
closed = 1;
nodes = (
(301,341,ls),
(555,351,o),
(666,426,o),
(666,584,cs),
(666,720,o),
(573,800,o),
(344,800,cs),
(79,800,l),
(79,741,l),
(136,734,o),
(172,710,o),
(172,640,cs),
(172,336,l)
);
},
{
closed = 1;
nodes = (
(392,0,l),
(392,59,l),
(314,70,o),
(280,99,o),
(280,173,cs),
(280,477,l),
(172,477,l),
(172,173,ls),
(172,99,o),
(141,70,o),
(60,59,c),
(60,0,l)
);
},
{
closed = 1;
nodes = (
(765,0,l),
(434,380,l),
(291,380,l),
(622,0,l)
);
},
{
closed = 1;
nodes = (
(280,409,l),
(280,728,l),
(352,733,ls),
(464,741,o),
(555,679,o),
(555,569,cs),
(555,461,o),
(480,403,o),
(314,408,cs)
);
}
);
};
layerId = "326B27E2-8ABA-48BA-B43F-17DF91114AFC";
name = "flatter leg";
shapes = (
{
closed = 1;
nodes = (
(301,341,ls),
(555,351,o),
(674,426,o),
(674,584,cs),
(674,720,o),
(573,800,o),
(344,800,cs),
(81,800,l),
(81,741,l),
(138,734,o),
(174,710,o),
(174,640,cs),
(174,336,l)
);
},
{
closed = 1;
nodes = (
(392,0,l),
(392,59,l),
(314,70,o),
(280,99,o),
(280,173,cs),
(280,477,l),
(174,477,l),
(174,173,ls),
(174,99,o),
(143,70,o),
(62,59,c),
(62,0,l)
);
},
{
closed = 1;
nodes = (
(849,-87,l),
(682,6,o),
(579,199,o),
(513,399,c),
(401,360,l),
(497,122,o),
(625,-64,o),
(819,-155,c)
);
},
{
closed = 1;
nodes = (
(280,409,l),
(280,728,l),
(352,733,ls),
(464,741,o),
(565,679,o),
(565,569,cs),
(565,461,o),
(480,403,o),
(314,408,cs)
);
}
);
width = 819;
},
{
associatedMasterId = m01;
background = {
shapes = (
{
closed = 1;
nodes = (
(299,341,ls),
(553,351,o),
(664,426,o),
(664,584,cs),
(664,720,o),
(571,800,o),
(342,800,cs),
(77,800,l),
(77,741,l),
(134,734,o),
(170,710,o),
(170,640,cs),
(170,336,l)
);
},
{
closed = 1;
nodes = (
(390,0,l),
(390,59,l),
(312,70,o),
(278,99,o),
(278,173,cs),
(278,477,l),
(170,477,l),
(170,173,ls),
(170,99,o),
(139,70,o),
(58,59,c),
(58,0,l)
);
},
{
closed = 1;
nodes = (
(763,0,l),
(432,380,l),
(289,380,l),
(620,0,l)
);
},
{
closed = 1;
nodes = (
(278,409,l),
(278,728,l),
(350,733,ls),
(462,741,o),
(553,679,o),
(553,569,cs),
(553,461,o),
(478,403,o),
(312,408,cs)
);
}
);
};
backgroundImage = {
imagePath = "../../Desktop/IMG_2850.jpeg";
locked = 1;
pos = (40,-229);
};
layerId = "85D8B7D3-B141-4EB4-B7FC-43ECA133102C";
name = "Jul 29, 24 at 23:02";
shapes = (
{
closed = 1;
nodes = (
(299,341,ls),
(553,351,o),
(672,426,o),
(672,584,cs),
(672,720,o),
(571,800,o),
(342,800,cs),
(79,800,l),
(79,741,l),
(136,734,o),
(172,710,o),
(172,640,cs),
(172,336,l)
);
},
{
closed = 1;
nodes = (
(390,0,l),
(390,59,l),
(312,70,o),
(278,99,o),
(278,173,cs),
(278,477,l),
(172,477,l),
(172,173,ls),
(172,99,o),
(141,70,o),
(60,59,c),
(60,0,l)
);
},
{
closed = 1;
nodes = (
(777,-154,l),
(632,-131,o),
(606,247,o),
(426,384,c),
(319,355,l),
(497,242,o),
(553,-192,o),
(683,-192,cs),
(717,-192,o),
(750,-192,o),
(783,-178,c)
);
},
{
closed = 1;
nodes = (
(278,409,l),
(278,728,l),
(350,733,ls),
(462,741,o),
(563,679,o),
(563,569,cs),
(563,461,o),
(478,403,o),
(312,408,cs)
);
}
);
width = 807;
},
{
background = {
shapes = (
{
closed = 1;
nodes = (
(279,341,ls),
(533,351,o),
(644,426,o),
(644,584,cs),
(644,720,o),
(551,800,o),
(322,800,cs),
(57,800,l),
(57,741,l),
(114,734,o),
(150,710,o),
(150,640,cs),
(150,336,l)
);
},
{
closed = 1;
nodes = (
(370,0,l),
(370,59,l),
(292,70,o),
(258,99,o),
(258,173,cs),
(258,477,l),
(150,477,l),
(150,173,ls),
(150,99,o),
(119,70,o),
(38,59,c),
(38,0,l)
);
},
{
closed = 1;
nodes = (
(743,0,l),
(412,380,l),
(269,380,l),
(600,0,l)
);
},
{
closed = 1;
nodes = (
(258,409,l),
(258,728,l),
(330,733,ls),
(442,741,o),
(533,679,o),
(533,569,cs),
(533,461,o),
(458,403,o),
(292,408,cs)
);
}
);
};
layerId = m01;
name = Regular;
shapes = (
{
closed = 1;
nodes = (
(279,341,ls),
(533,351,o),
(652,426,o),
(652,584,cs),
(652,720,o),
(551,800,o),
(322,800,cs),
(59,800,l),
(59,751,l),
(126,744,o),
(154,720,o),
(154,650,cs),
(154,336,l)
);
},
{
closed = 1;
nodes = (
(370,0,l),
(370,49,l),
(282,60,o),
(258,79,o),
(258,163,cs),
(258,477,l),
(154,477,l),
(154,163,ls),
(154,79,o),
(131,60,o),
(40,49,c),
(40,0,l)
);
},
{
closed = 1;
nodes = (
(817,-87,l),
(640,6,o),
(547,199,o),
(491,399,c),
(379,360,l),
(465,122,o),
(579,-55,o),
(783,-146,c)
);
},
{
closed = 1;
nodes = (
(258,409,l),
(258,728,l),
(330,733,ls),
(442,741,o),
(543,679,o),
(543,569,cs),
(543,461,o),
(458,403,o),
(292,408,cs)
);
}
);
width = 767;
}
);
unicode = 82;
},
{
glyphname = S;
lastChange = "2024-09-08 03:49:36 +0000";
layers = (
{
background = {
shapes = (
{
closed = 1;
nodes = (
(579,584,l),
(513,584,l),
(488,683,o),
(433,740,o),
(321,740,cs),
(247,740,o),
(182,704,o),
(182,628,cs),
(182,409,o),
(630,526,o),
(625,214,cs),
(623,97,o),
(518,-15,o),
(335,-15,cs),
(242,-15,o),
(157,15,o),
(66,64,c),
(45,238,l),
(112,238,l),
(137,129,o),
(226,63,o),
(325,63,cs),
(425,63,o),
(495,126,o),
(495,188,cs),
(495,436,o),
(70,303,o),
(70,596,cs),
(70,721,o),
(184,811,o),
(336,811,cs),
(429,811,o),
(504,785,o),
(559,743,c)
);
}
);
};
layerId = m01;
shapes = (
{
closed = 1;
nodes = (
(524,-18,o),
(626,82,o),
(625,218,cs),
(622,500,o),
(185,438,o),
(185,623,cs),
(185,692,o),
(235,740,o),
(325,740,cs),
(437,740,o),
(503,676,o),
(528,577,c),
(589,577,l),
(568,762,l),
(483,779,o),
(445,816,o),
(340,816,cs),
(181,816,o),
(80,721,o),
(80,591,cs),
(80,328,o),
(502,409,o),
(502,195,cs),
(502,123,o),
(447,66,o),
(347,66,cs),
(224,66,o),
(134,141,o),
(110,250,c),
(50,251,l),
(74,50,l),
(171,31,o),
(200,-18,o),
(345,-18,cs)
);
}
);
width = 675;
},
{
associatedMasterId = m01;
background = {
shapes = (
{
closed = 1;
nodes = (
(594,584,l),
(528,584,l),
(503,683,o),
(448,740,o),
(336,740,cs),
(262,740,o),
(197,704,o),
(197,628,cs),
(197,409,o),
(645,526,o),
(640,214,cs),
(638,97,o),
(533,-15,o),
(350,-15,cs),
(257,-15,o),
(172,15,o),
(81,64,c),
(60,238,l),
(127,238,l),
(152,129,o),
(241,63,o),
(340,63,cs),
(440,63,o),
(510,126,o),
(510,188,cs),
(510,436,o),
(85,303,o),
(85,596,cs),
(85,721,o),
(199,811,o),
(351,811,cs),
(444,811,o),
(519,785,o),
(574,743,c)
);
}
);
};
backgroundImage = {
angle = -2;
imagePath = "../../Desktop/Screenshot 2024-07-16 at 1.16.43 PM.png";
locked = 1;
pos = (-38,-135);
scale = (26.9586,26.9586);
};
layerId = "CEF95E0C-7C28-42FB-A686-86B96CDAB871";
name = "Curve only on top";
shapes = (
{
closed = 1;
nodes = (
(594,584,l),
(528,584,l),
(503,683,o),
(448,740,o),
(336,740,cs),
(262,740,o),
(190,704,o),
(190,618,cs),
(190,429,o),
(645,506,o),
(640,224,cs),
(638,97,o),
(533,-15,o),
(350,-15,cs),
(257,-15,o),
(172,15,o),
(81,64,c),
(60,238,l),
(127,238,l),
(152,129,o),
(251,63,o),
(350,63,cs),
(450,63,o),
(517,126,o),
(517,198,cs),
(517,416,o),
(85,323,o),
(85,586,cs),
(85,721,o),
(199,811,o),
(351,811,cs),
(444,811,o),
(486,777,o),
(572,762,c)
);
}
);
width = 700;
}
);
unicode = 83;
},
{
glyphname = Germandbls;
lastChange = "2024-09-08 04:45:36 +0000";
layers = (
{
associatedMasterId = m01;
background = {
shapes = (
{
closed = 1;
nodes = (
(704,-18,o),
(806,82,o),
(805,218,cs),
(802,496,o),
(355,438,o),
(355,623,cs),
(355,709,o),
(427,746,o),
(501,746,cs),
(613,746,o),
(667,676,o),
(692,577,c),
(765,577,l),
(744,762,l),
(659,779,o),
(621,816,o),
(516,816,cs),
(364,816,o),
(250,726,o),
(250,591,cs),
(250,332,o),
(682,409,o),
(682,195,cs),
(682,123,o),
(627,63,o),
(527,63,cs),
(404,63,o),
(326,141,o),
(302,250,c),
(230,251,l),
(254,50,l),
(351,31,o),
(380,-18,o),
(525,-18,cs)
);
}
);
};
layerId = "D6AB1B96-1F13-48EC-A2E2-38FC6C9616F5";
name = "Aug 13, 24 at 20:55";
shapes = (
{
closed = 1;
nodes = (
(704,-18,o),
(807,82,o),
(805,218,cs),
(802,448,o),
(555,418,o),
(555,553,cs),
(555,603,o),
(638,676,o),
(704,707,c),
(710,745,l),
(662,841,o),
(556,871,o),
(448,871,cs),
(290,871,o),
(136,756,o),
(135,505,cs),
(134,173,ls),
(134,95,o),
(94,65,o),
(20,59,c),
(20,0,l),
(238,0,l),
(238,548,ls),
(238,687,o),
(323,797,o),
(430,797,cs),
(490,797,o),
(557,764,o),
(584,721,c),
(506,673,o),
(443,587,o),
(443,500,cs),
(443,318,o),
(682,352,o),
(682,195,cs),
(682,123,o),
(637,63,o),
(565,63,cs),
(454,63,o),
(406,141,o),
(382,250,c),
(310,251,l),
(334,50,l),
(411,21,o),
(448,-18,o),
(552,-18,cs)
);
}
);
width = 835;
},
{
associatedMasterId = m01;
background = {
shapes = (
{
closed = 1;
nodes = (
(704,-18,o),
(806,82,o),
(805,218,cs),
(802,496,o),
(355,438,o),
(355,623,cs),
(355,709,o),
(427,746,o),
(501,746,cs),
(613,746,o),
(667,676,o),
(692,577,c),
(765,577,l),
(744,762,l),
(659,779,o),
(621,816,o),
(516,816,cs),
(364,816,o),
(250,726,o),
(250,591,cs),
(250,332,o),
(682,409,o),
(682,195,cs),
(682,123,o),
(627,63,o),
(527,63,cs),
(404,63,o),
(326,141,o),
(302,250,c),
(230,251,l),
(254,50,l),
(351,31,o),
(380,-18,o),
(525,-18,cs)
);
}
);
};
layerId = "4E3AF383-BE05-4427-90EA-A40326321E03";
name = "Aug 13, 24 at 21:03";
shapes = (
{
closed = 1;
nodes = (
(734,-18,o),
(837,82,o),
(835,218,cs),
(832,448,o),
(633,418,o),
(635,552,cs),
(636,619,o),
(728,717,o),
(790,767,c),
(760,825,l),
(680,826,o),
(603,871,o),
(495,871,cs),
(300,871,o),
(136,756,o),
(135,505,cs),
(134,173,ls),
(134,95,o),
(94,65,o),
(20,59,c),
(20,0,l),
(238,0,l),
(238,548,ls),
(238,720,o),
(363,797,o),
(460,797,cs),
(525,797,o),
(587,764,o),
(650,750,c),
(578,675,o),
(523,587,o),
(523,500,cs),
(523,318,o),
(712,352,o),
(712,195,cs),
(712,123,o),
(667,63,o),
(595,63,cs),
(484,63,o),
(436,141,o),
(412,250,c),
(340,251,l),
(364,50,l),
(441,21,o),
(478,-18,o),
(582,-18,cs)
);
}
);
width = 835;
},
{
background = {
shapes = (
{
closed = 1;
nodes = (
(704,-18,o),
(806,82,o),
(805,218,cs),
(802,496,o),
(355,438,o),
(355,623,cs),
(355,709,o),
(427,746,o),
(501,746,cs),
(613,746,o),
(667,676,o),
(692,577,c),
(765,577,l),
(744,762,l),
(659,779,o),
(621,816,o),
(516,816,cs),
(364,816,o),
(250,726,o),
(250,591,cs),
(250,332,o),
(682,409,o),
(682,195,cs),
(682,123,o),
(627,63,o),
(527,63,cs),
(404,63,o),
(326,141,o),
(302,250,c),
(230,251,l),
(254,50,l),
(351,31,o),
(380,-18,o),
(525,-18,cs)
);
}
);
};
layerId = m01;
name = Regular;
shapes = (
{
closed = 1;
nodes = (
(734,-18,o),
(837,82,o),
(835,218,cs),
(832,448,o),
(633,418,o),
(635,552,cs),
(636,619,o),
(698,696,o),
(760,746,c),
(760,785,l),
(692,841,o),
(603,871,o),
(495,871,cs),
(300,871,o),
(136,756,o),
(135,505,cs),
(134,163,ls),
(134,85,o),
(104,55,o),
(30,49,c),
(30,0,l),
(238,0,l),
(238,548,ls),
(238,720,o),
(363,783,o),
(460,783,cs),
(525,783,o),
(587,752,o),
(624,717,c),
(578,661,o),
(523,587,o),
(523,500,cs),
(523,318,o),
(712,352,o),
(712,195,cs),
(712,123,o),
(667,63,o),
(595,63,cs),
(484,63,o),
(426,141,o),
(402,250,c),
(335,251,l),
(359,50,l),
(436,21,o),
(478,-18,o),
(582,-18,cs)
);
}
);
width = 855;
}
);
unicode = 7838;
},
{
glyphname = T;
kernLeft = V;
kernRight = V;
lastChange = "2024-09-09 00:06:36 +0000";
layers = (
{
layerId = m01;
shapes = (
{
closed = 1;
nodes = (
(578,0,l),
(578,52,l),
(464,57,o),
(436,90,o),
(436,139,cs),
(436,725,l),
(541,725,ls),
(611,725,o),
(669,676,o),
(684,581,c),
(736,581,l),
(709,800,l),
(57,800,l),
(30,581,l),
(82,581,l),
(97,676,o),
(155,725,o),
(225,725,cs),
(330,725,l),
(330,139,ls),
(330,90,o),
(302,57,o),
(188,52,c),
(188,0,l)
);
}
);
width = 766;
}
);
unicode = 84;
},
{
glyphname = U;
lastChange = "2024-09-09 00:03:41 +0000";
layers = (
{
anchors = (
{
name = bottom;
pos = (459,0);
},
{
name = ogonek;
pos = (834,10);
},
{
name = top;
pos = (459,800);
},
{
name = topright;
pos = (908,800);
}
);
layerId = m01;
shapes = (
{
closed = 1;
nodes = (
(675,-12,o),
(797,128,o),
(797,342,cs),
(797,658,ls),
(797,726,o),
(816,743,o),
(898,749,c),
(898,800,l),
(603,800,l),
(603,747,l),
(690,744,o),
(717,726,o),
(717,658,cs),
(718,342,ls),
(719,165,o),
(627,64,o),
(468,64,cs),
(336,64,o),
(241,146,o),
(241,312,cs),
(241,658,ls),
(241,726,o),
(266,744,o),
(336,747,c),
(336,800,l),
(30,800,l),
(30,748,l),
(105,743,o),
(124,726,o),
(124,658,cs),
(123,312,ls),
(122,95,o),
(268,-12,o),
(450,-12,cs)
);
}
);
width = 918;
}
);
unicode = 85;
},
{
glyphname = V;
kernLeft = V;
kernRight = V;
lastChange = "2024-09-11 16:33:52 +0000";
layers = (
{
guides = (
{
angle = 90;
pos = (457,317);
}
);
layerId = m01;
shapes = (
{
closed = 1;
nodes = (
(498,0,l),
(756,647,ls),
(786,723,o),
(801,737,o),
(866,748,c),
(866,800,l),
(567,800,l),
(567,748,l),
(679,742,o),
(695,717,o),
(657,618,cs),
(469,128,l),
(254,616,ls),
(207,723,o),
(211,739,o),
(330,748,c),
(330,800,l),
(10,800,l),
(10,748,l),
(56,741,o),
(78,726,o),
(103,671,cs),
(413,0,l)
);
}
);
width = 876;
}
);
unicode = 86;
},
{
glyphname = W;
kernLeft = V;
kernRight = V;
lastChange = "2024-09-09 00:08:43 +0000";
layers = (
{
associatedMasterId = m01;
layerId = "37D486AB-FEB0-46B6-BD2F-BB7CEA4FAC42";
name = "Jul 30, 24 at 09:51";
shapes = (
{
closed = 1;
nodes = (
(849,0,l),
(1083,637,ls),
(1105,698,o),
(1138,731,o),
(1186,738,c),
(1186,800,l),
(897,800,l),
(897,738,l),
(997,731,o),
(1027,695,o),
(996,608,cs),
(821,121,l),
(640,606,ls),
(605,698,o),
(624,732,o),
(720,738,c),
(720,800,l),
(430,800,l),
(430,738,l),
(464,732,o),
(490,719,o),
(506,676,cs),
(762,0,l)
);
},
{
closed = 1;
nodes = (
(429,0,l),
(626,558,l),
(584,653,l),
(404,126,l),
(220,606,ls),
(185,698,o),
(200,732,o),
(300,738,c),
(300,800,l),
(10,800,l),
(10,738,l),
(34,732,o),
(65,707,o),
(83,661,cs),
(342,0,l)
);
}
);
width = 1196;
},
{
anchors = (
{
name = bottom;
pos = (603,0);
},
{
name = top;
pos = (603,800);
}
);
layerId = m01;
name = Regular;
shapes = (
{
closed = 1;
nodes = (
(849,0,l),
(1093,647,ls),
(1119,716,o),
(1136,736,o),
(1196,748,c),
(1196,800,l),
(907,800,l),
(907,748,l),
(1023,737,o),
(1038,717,o),
(1001,618,cs),
(818,126,l),
(652,616,ls),
(615,724,o),
(622,738,o),
(730,748,c),
(730,800,l),
(440,800,l),
(440,748,l),
(490,743,o),
(503,729,o),
(518,686,cs),
(764,0,l)
);
},
{
closed = 1;
nodes = (
(449,0,l),
(636,568,l),
(589,663,l),
(421,126,l),
(232,616,ls),
(192,720,o),
(198,737,o),
(310,748,c),
(310,800,l),
(10,800,l),
(10,748,l),
(62,738,o),
(72,728,o),
(95,671,cs),
(364,0,l)
);
}
);
width = 1206;
}
);
unicode = 87;
},
{
glyphname = X;
lastChange = "2024-09-09 00:11:11 +0000";
layers = (
{
background = {
shapes = (
{
closed = 1;
nodes = (
(478,0,l),
(746,637,ls),
(772,698,o),
(798,731,o),
(846,738,c),
(846,800,l),
(557,800,l),
(557,738,l),
(657,731,o),
(692,693,o),
(656,608,cs),
(447,114,l),
(235,606,ls),
(196,696,o),
(205,731,o),
(320,738,c),
(320,800,l),
(10,800,l),
(10,738,l),
(34,732,o),
(70,707,o),
(91,661,cs),
(391,0,l)
);
}
);
};
guides = (
{
angle = 270;
pos = (862,234);
},
{
pos = (687,413);
},
{
angle = 270;
pos = (320,891);
},
{
angle = 270;
pos = (533,928);
}
);
layerId = m01;
shapes = (
{
closed = 1;
nodes = (
(832,0,l),
(832,52,l),
(778,61,o),
(751,71,o),
(716,114,cs),
(277,655,ls),
(228,715,o),
(229,738,o),
(320,748,c),
(320,800,l),
(20,800,l),
(20,748,l),
(72,741,o),
(87,733,o),
(123,688,cs),
(544,158,ls),
(597,91,o),
(600,68,o),
(513,52,c),
(513,0,l)
);
},
{
closed = 1;
nodes = (
(314,0,l),
(314,52,l),
(221,68,o),
(215,85,o),
(268,158,cs),
(453,413,l),
(356,413,l),
(136,124,ls),
(94,69,o),
(75,61,o),
(20,52,c),
(20,0,l)
);
},
{
closed = 1;
nodes = (
(468,413,l),
(653,655,ls),
(710,729,o),
(723,739,o),
(793,748,c),
(793,800,l),
(507,800,l),
(507,748,l),
(600,740,o),
(607,720,o),
(557,655,cs),
(372,413,l)
);
}
);
width = 852;
}
);
unicode = 88;
},
{
glyphname = Y;
kernLeft = V;
kernRight = V;
lastChange = "2024-09-09 00:12:46 +0000";
layers = (
{
anchors = (
{
name = bottom;
pos = (393,0);
},
{
name = top;
pos = (413,800);
},
{
name = topleft;
pos = (20,800);
}
);
layerId = m01;
shapes = (
{
closed = 1;
nodes = (
(655,644,ls),
(709,724,o),
(717,736,o),
(776,748,c),
(776,800,l),
(517,800,l),
(517,748,l),
(612,737,o),
(619,723,o),
(567,644,cs),
(416,414,l),
(256,646,ls),
(202,724,o),
(210,737,o),
(310,748,c),
(310,800,l),
(10,800,l),
(10,748,l),
(63,739,o),
(75,722,o),
(131,644,cs),
(403,267,l)
);
},
{
closed = 1;
nodes = (
(561,0,l),
(561,52,l),
(470,60,o),
(450,80,o),
(450,149,cs),
(450,363,l),
(346,363,l),
(346,149,ls),
(346,80,o),
(328,60,o),
(235,52,c),
(235,0,l)
);
}
);
width = 786;
}
);
unicode = 89;
},
{
glyphname = Z;
lastChange = "2024-09-08 03:49:17 +0000";
layers = (
{
background = {
shapes = (
{
closed = 1;
nodes = (
(451,71,ls),
(612,71,o),
(660,127,o),
(699,239,c),
(768,238,l),
(718,0,l),
(30,0,l),
(30,61,l),
(591,733,l),
(282,733,ls),
(168,733,o),
(134,710,o),
(112,597,c),
(46,597,l),
(72,800,l),
(739,800,l),
(739,738,l),
(188,71,l)
);
}
);
};
layerId = m01;
shapes = (
{
closed = 1;
nodes = (
(718,0,l),
(768,238,l),
(709,239,l),
(670,127,o),
(622,81,o),
(461,81,cs),
(195,81,l),
(739,738,l),
(739,800,l),
(72,800,l),
(46,597,l),
(102,597,l),
(124,710,o),
(159,735,o),
(318,731,cs),
(587,724,l),
(30,61,l),
(30,0,l)
);
}
);
width = 788;
}
);
unicode = 90;
},
{
glyphname = Q.short;
lastChange = "2024-08-23 22:19:52 +0000";
layers = (
{
associatedMasterId = m01;
backgroundImage = {
imagePath = "../../Desktop/IMG_2849.jpeg";
locked = 1;
pos = (-150,-333);
scale = (1.5735,1.5735);
};
layerId = "6B7D40AA-B522-4F81-81B1-AA5A1E5342FD";
name = "Jul 30, 24 at 20:08";
shapes = (
{
closed = 1;
nodes = (
(704,-15,o),
(863,159,o),
(863,401,cs),
(863,614,o),
(714,812,o),
(479,812,cs),
(227,812,o),
(40,653,o),
(40,401,cs),
(40,164,o),
(188,-15,o),
(439,-15,cs)
);
},
{
closed = 1;
nodes = (
(275,65,o),
(162,248,o),
(162,424,cs),
(162,600,o),
(269,732,o),
(433,732,cs),
(634,732,o),
(746,548,o),
(746,371,cs),
(746,199,o),
(646,65,o),
(475,65,cs)
);
},
{
closed = 1;
nodes = (
(1071,-141,l),
(696,-154,o),
(586,117,o),
(332,52,c),
(300,6,l),
(511,-43,o),
(775,-279,o),
(1085,-188,c)
);
}
);
width = 903;
},
{
associatedMasterId = m01;
backgroundImage = {
imagePath = "../../Desktop/IMG_2849.jpeg";
locked = 1;
pos = (-150,-333);
scale = (1.5735,1.5735);
};
layerId = "A1843705-1738-4F15-A304-79F236486E18";
name = "Jul 30, 24 at 20:58";
shapes = (
{
closed = 1;
nodes = (
(523,-46,o),
(805,-306,o),
(1138,-169,c),
(1128,-137,l),
(706,-182,o),
(599,120,o),
(332,52,c),
(300,6,l)
);
},
{
closed = 1;
nodes = (
(704,-15,o),
(863,159,o),
(863,401,cs),
(863,614,o),
(714,812,o),
(479,812,cs),
(227,812,o),
(40,653,o),
(40,401,cs),
(40,164,o),
(188,-15,o),
(439,-15,cs)
);
},
{
closed = 1;
nodes = (
(275,65,o),
(162,248,o),
(162,424,cs),
(162,600,o),
(269,732,o),
(433,732,cs),
(634,732,o),
(746,548,o),
(746,371,cs),
(746,199,o),
(646,65,o),
(475,65,cs)
);
}
);
width = 903;
},
{
associatedMasterId = m01;
backgroundImage = {
imagePath = "../../Desktop/Screenshot 2024-08-01 at 8.55.47 AM.png";
locked = 1;
pos = (-232,-473);
scale = (10.3993,10.3993);
};
layerId = "ACA53567-C202-452A-8B8D-FE17DB20031A";
name = "Aug 1, 24 at 10:21";
shapes = (
{
closed = 1;
nodes = (
(705,0,o),
(871,180,o),
(871,424,cs),
(871,639,o),
(721,839,o),
(483,839,cs),
(229,839,o),
(40,679,o),
(40,424,cs),
(40,185,o),
(189,8,o),
(443,4,cs)
);
},
{
closed = 1;
nodes = (
(277,85,o),
(163,269,o),
(163,447,cs),
(163,625,o),
(271,758,o),
(437,758,cs),
(640,758,o),
(753,572,o),
(753,394,cs),
(753,220,o),
(652,85,o),
(479,85,cs)
);
},
{
closed = 1;
nodes = (
(1217,-162,l),
(654,-278,o),
(655,12,o),
(350,102,c),
(304,24,l),
(466,-52,o),
(646,-396,o),
(1232,-205,c)
);
}
);
width = 907;
},
{
associatedMasterId = m01;
backgroundImage = {
imagePath = "../../Desktop/Screenshot 2024-08-01 at 8.55.47 AM.png";
locked = 1;
pos = (-232,-473);
scale = (10.3993,10.3993);
};
layerId = "99A85131-92C7-4D9F-9B29-D18DCCB928E2";
name = "Aug 1, 24 at 10:24";
shapes = (
{
closed = 1;
nodes = (
(527,-28,o),
(799,-298,o),
(1142,-171,c),
(1132,-139,l),
(710,-164,o),
(603,138,o),
(336,80,c),
(304,34,l)
);
},
{
closed = 1;
nodes = (
(711,14,o),
(871,190,o),
(871,434,cs),
(871,649,o),
(721,849,o),
(473,849,cs),
(229,849,o),
(40,689,o),
(40,434,cs),
(40,195,o),
(189,14,o),
(443,14,cs)
);
},
{
closed = 1;
nodes = (
(277,95,o),
(163,279,o),
(163,457,cs),
(163,635,o),
(271,768,o),
(437,768,cs),
(640,768,o),
(753,582,o),
(753,404,cs),
(753,230,o),
(652,95,o),
(479,95,cs)
);
}
);
width = 907;
},
{
associatedMasterId = m01;
backgroundImage = {
imagePath = "../../Desktop/Screenshot 2024-08-01 at 8.55.47 AM.png";
locked = 1;
pos = (-232,-473);
scale = (10.3993,10.3993);
};
layerId = "48B11E20-0EE0-40FC-9642-744F786EE067";
name = "Aug 2, 24 at 09:08";
shapes = (
{
closed = 1;
nodes = (
(705,10,o),
(871,190,o),
(871,434,cs),
(871,649,o),
(721,849,o),
(483,849,cs),
(229,849,o),
(40,689,o),
(40,434,cs),
(40,195,o),
(189,18,o),
(443,14,cs)
);
},
{
closed = 1;
nodes = (
(277,95,o),
(163,279,o),
(163,457,cs),
(163,635,o),
(271,768,o),
(437,768,cs),
(640,768,o),
(753,582,o),
(753,404,cs),
(753,230,o),
(652,95,o),
(479,95,cs)
);
},
{
closed = 1;
nodes = (
(1408,-148,l),
(742,-317,o),
(657,23,o),
(437,73,c),
(256,56,l),
(550,-73,o),
(676,-422,o),
(1422,-195,c)
);
}
);
width = 907;
},
{
backgroundImage = {
imagePath = "../../Desktop/IMG_2849.jpeg";
locked = 1;
pos = (-146,-333);
scale = (1.5735,1.5735);
};
layerId = m01;
name = Regular;
shapes = (
{
closed = 1;
nodes = (
(711,-16,o),
(871,160,o),
(871,404,cs),
(871,619,o),
(721,819,o),
(483,819,cs),
(229,819,o),
(41,659,o),
(41,404,cs),
(41,165,o),
(189,-16,o),
(443,-16,cs)
);
},
{
closed = 1;
nodes = (
(867,-271,l),
(539,-207,o),
(588,81,o),
(264,81,c),
(256,27,l),
(503,-78,o),
(486,-299,o),
(855,-316,c)
);
},
{
closed = 1;
nodes = (
(277,65,o),
(163,249,o),
(163,427,cs),
(163,605,o),
(271,738,o),
(437,738,cs),
(640,738,o),
(754,552,o),
(754,374,cs),
(754,200,o),
(652,65,o),
(479,65,cs)
);
}
);
width = 907;
}
);
},
{
glyphname = a;
lastChange = "2024-08-29 04:21:56 +0000";
layers = (
{
associatedMasterId = m01;
backgroundImage = {
imagePath = "../../Desktop/IMG_2828.jpeg";
locked = 1;
pos = (-41,-72);
scale = (0.7475,0.7475);
};
layerId = "C2BEE956-892F-4372-9AB7-1F5FC5805A25";
name = "not parallel";
shapes = (
{
closed = 1;
nodes = (
(72,327,l),
(57,334,l),
(28,430,o),
(178,516,o),
(262,516,cs),
(350,516,o),
(414,473,o),
(414,385,cs),
(414,103,ls),
(414,56,o),
(434,43,o),
(478,60,c),
(495,31,l),
(460,5,o),
(419,-8,o),
(381,-8,cs),
(343,-8,o),
(313,14,o),
(313,50,cs),
(315,353,ls),
(316,438,o),
(288,461,o),
(238,461,cs),
(185,461,o),
(149,427,o),
(157,373,c)
);
},
{
closed = 1;
nodes = (
(334,241,l),
(205,200,ls),
(156,184,o),
(132,159,o),
(132,115,cs),
(132,76,o),
(162,53,o),
(200,53,cs),
(251,53,o),
(284,68,o),
(349,138,c),
(349,86,l),
(283,18,o),
(228,-10,o),
(158,-10,cs),
(85,-10,o),
(40,25,o),
(40,93,cs),
(40,170,o),
(78,211,o),
(151,235,cs),
(334,296,l)
);
}
);
width = 525;
},
{
associatedMasterId = m01;
backgroundImage = {
imagePath = "../../Desktop/IMG_2828.jpeg";
locked = 1;
pos = (-29,-72);
scale = (0.7475,0.7475);
};
guides = (
{
angle = 270;
pos = (168,399);
}
);
layerId = "9E97AB71-95DF-4EF2-904F-1D93B8C3E1F2";
name = "Aug 8, 24 at 22:47";
shapes = (
{
closed = 1;
nodes = (
(431,-8,o),
(472,5,o),
(507,31,c),
(490,60,l),
(446,43,o),
(425,56,o),
(425,103,cs),
(428,385,ls),
(429,477,o),
(374,516,o),
(284,516,cs),
(158,516,o),
(29,414,o),
(65,336,c),
(80,329,l),
(172,366,l),
(155,422,o),
(189,456,o),
(240,456,cs),
(297,456,o),
(328,431,o),
(327,353,cs),
(325,50,ls),
(325,14,o),
(355,-8,o),
(393,-8,cs)
);
},
{
closed = 1;
nodes = (
(240,-10,o),
(295,18,o),
(361,86,c),
(361,143,l),
(296,73,o),
(263,58,o),
(212,58,cs),
(174,58,o),
(147,76,o),
(147,115,cs),
(147,159,o),
(168,181,o),
(217,197,cs),
(346,238,l),
(346,298,l),
(163,237,ls),
(90,213,o),
(50,170,o),
(50,93,cs),
(50,25,o),
(97,-10,o),
(170,-10,cs)
);
}
);
width = 527;
},
{
anchors = (
{
name = bottom;
pos = (264,0);
},
{
name = ogonek;
pos = (474,10);
},
{
name = top;
pos = (254,516);
}
);
backgroundImage = {
imagePath = "../../Desktop/IMG_2828.jpeg";
locked = 1;
pos = (-34,-72);
scale = (0.7475,0.7475);
};
guides = (
{
angle = 270;
pos = (168,399);
}
);
layerId = m01;
name = Regular;
shapes = (
{
closed = 1;
nodes = (
(431,-8,o),
(472,5,o),
(507,31,c),
(491,62,l),
(454,46,o),
(425,56,o),
(425,103,cs),
(428,385,ls),
(429,477,o),
(374,516,o),
(284,516,cs),
(147,516,o),
(8,379,o),
(82,327,c),
(164,356,l),
(175,372,l),
(159,419,o),
(189,456,o),
(240,456,cs),
(297,456,o),
(328,431,o),
(327,353,cs),
(325,50,ls),
(325,14,o),
(355,-8,o),
(393,-8,cs)
);
},
{
closed = 1;
nodes = (
(240,-10,o),
(295,18,o),
(361,86,c),
(361,143,l),
(296,73,o),
(263,58,o),
(212,58,cs),
(174,58,o),
(149,76,o),
(149,115,cs),
(149,159,o),
(187,187,o),
(263,211,cs),
(346,238,l),
(346,298,l),
(201,250,ls),
(103,218,o),
(50,170,o),
(50,93,cs),
(50,25,o),
(97,-10,o),
(170,-10,cs)
);
}
);
width = 522;
}
);
unicode = 97;
},
{
glyphname = ae;
lastChange = "2024-08-23 22:19:52 +0000";
layers = (
{
layerId = m01;
shapes = (
{
closed = 1;
nodes = (
(673,-12,o),
(752,35,o),
(801,102,c),
(777,129,l),
(725,86,o),
(660,68,o),
(604,68,cs),
(526,68,o),
(453,130,o),
(453,278,cs),
(453,396,o),
(493,451,o),
(555,451,cs),
(602,451,o),
(645,416,o),
(671,344,c),
(697,360,l),
(424,293,l),
(431,247,l),
(791,325,l),
(760,447,o),
(684,511,o),
(577,511,cs),
(455,511,o),
(345,406,o),
(345,233,cs),
(345,80,o),
(467,-12,o),
(584,-12,cs)
);
},
{
closed = 1;
nodes = (
(275,-12,o),
(366,37,o),
(409,138,c),
(345,233,l),
(342,112,o),
(263,58,o),
(212,58,cs),
(174,58,o),
(147,76,o),
(147,115,cs),
(147,159,o),
(168,183,o),
(264,210,cs),
(366,238,l),
(366,298,l),
(218,254,ls),
(90,215,o),
(50,170,o),
(50,93,cs),
(50,37,o),
(97,-12,o),
(181,-12,cs)
);
},
{
closed = 1;
nodes = (
(448,267,l),
(448,333,o),
(448,349,o),
(448,366,cs),
(447,460,o),
(374,511,o),
(284,511,cs),
(147,511,o),
(8,379,o),
(82,327,c),
(164,356,l),
(175,372,l),
(159,419,o),
(189,456,o),
(240,456,cs),
(297,456,o),
(348,431,o),
(347,353,cs),
(347,342,o),
(347,330,o),
(347,267,c)
);
}
);
width = 831;
}
);
metricLeft = "=a";
metricRight = "=e";
unicode = 230;
},
{
glyphname = b;
lastChange = "2024-09-07 19:51:50 +0000";
layers = (
{
associatedMasterId = m01;
layerId = "2D25634E-B151-4032-87E0-63601E8AA75F";
name = "right angle";
shapes = (
{
closed = 1;
nodes = (
(475,-12,o),
(578,97,o),
(578,265,cs),
(578,421,o),
(495,508,o),
(368,508,cs),
(297,508,o),
(201,444,o),
(144,371,c),
(86,371,l),
(86,13,l),
(182,12,o),
(237,-12,o),
(341,-12,cs)
);
},
{
closed = 1;
nodes = (
(257,40,o),
(186,79,o),
(186,144,cs),
(186,357,l),
(221,396,o),
(271,419,o),
(325,419,cs),
(421,419,o),
(470,341,o),
(470,240,cs),
(470,112,o),
(413,40,o),
(327,40,cs)
);
},
{
closed = 1;
nodes = (
(186,325,l),
(186,876,l),
(143,876,l),
(10,799,l),
(10,773,l),
(86,740,l),
(86,325,l)
);
}
);
width = 618;
},
{
associatedMasterId = m01;
layerId = "AD06F061-213B-49AE-B1F3-D5FBE8938259";
name = smooth;
shapes = (
{
closed = 1;
nodes = (
(432,-12,o),
(570,77,o),
(570,265,cs),
(570,416,o),
(490,510,o),
(372,510,cs),
(311,510,o),
(247,479,o),
(186,418,c),
(188,876,l),
(145,876,l),
(10,799,l),
(10,773,l),
(86,740,l),
(86,52,l),
(133,12,o),
(213,-12,o),
(309,-12,cs)
);
},
{
closed = 1;
nodes = (
(247,47,o),
(191,89,o),
(190,164,cs),
(188,358,l),
(222,399,o),
(263,424,o),
(317,424,cs),
(411,424,o),
(467,351,o),
(467,240,cs),
(467,123,o),
(413,47,o),
(317,47,cs)
);
}
);
width = 600;
},
{
layerId = m01;
name = Regular;
shapes = (
{
closed = 1;
nodes = (
(442,-12,o),
(580,77,o),
(580,265,cs),
(580,426,o),
(490,510,o),
(372,510,cs),
(291,510,o),
(204,455,o),
(126,345,c),
(126,45,l),
(169,3,o),
(239,-12,o),
(309,-12,cs)
);
},
{
closed = 1;
nodes = (
(111,0,l),
(185,41,l),
(188,876,l),
(145,876,l),
(10,799,l),
(10,773,l),
(86,740,l),
(86,0,l)
);
},
{
closed = 1;
nodes = (
(247,47,o),
(191,89,o),
(190,164,cs),
(188,358,l),
(222,399,o),
(263,424,o),
(317,424,cs),
(409,424,o),
(475,359,o),
(475,240,cs),
(475,123,o),
(423,47,o),
(317,47,cs)
);
}
);
width = 630;
}
);
unicode = 98;
},
{
glyphname = c;
kernLeft = o;
lastChange = "2024-08-29 04:23:07 +0000";
layers = (
{
anchors = (
{
name = bottom;
pos = (280,-11);
},
{
name = top;
pos = (301,511);
}
);
layerId = m01;
shapes = (
{
closed = 1;
nodes = (
(370,-11,o),
(431,39,o),
(473,90,c),
(449,117,l),
(408,83,o),
(362,63,o),
(299,63,cs),
(220,63,o),
(155,120,o),
(155,253,cs),
(155,381,o),
(223,449,o),
(278,449,cs),
(311,449,o),
(343,438,o),
(385,386,c),
(417,386,l),
(479,431,l),
(452,480,o),
(398,511,o),
(301,511,cs),
(151,511,o),
(40,399,o),
(40,223,cs),
(40,70,o),
(164,-11,o),
(281,-11,cs)
);
}
);
width = 509;
}
);
unicode = 99;
},
{
glyphname = d;
lastChange = "2024-08-29 04:18:49 +0000";
layers = (
{
associatedMasterId = m01;
layerId = "D332F00D-44A8-4B3E-A59C-40EBFD7E9683";
name = "from b";
shapes = (
{
closed = 1;
nodes = (
(434,-20,l),
(578,8,l),
(578,52,l),
(524,52,o),
(497,91,o),
(497,141,cs),
(500,860,l),
(462,860,l),
(336,790,l),
(336,764,l),
(403,734,l),
(401,-20,l)
);
},
{
closed = 1;
nodes = (
(147,500,o),
(10,411,o),
(10,223,cs),
(10,62,o),
(99,0,o),
(217,0,cs),
(298,0,o),
(385,33,o),
(463,143,c),
(463,443,l),
(420,485,o),
(350,500,o),
(280,500,cs)
);
},
{
closed = 1;
nodes = (
(342,441,o),
(398,399,o),
(399,324,cs),
(401,136,l),
(367,95,o),
(326,68,o),
(272,68,cs),
(178,68,o),
(102,127,o),
(102,248,cs),
(102,365,o),
(166,441,o),
(272,441,cs)
);
}
);
width = 598;
},
{
layerId = m01;
name = Regular;
shapes = (
{
closed = 1;
nodes = (
(364,-7,o),
(424,69,o),
(465,119,c),
(453,171,l),
(413,103,o),
(364,74,o),
(282,74,cs),
(213,74,o),
(142,143,o),
(142,257,cs),
(142,375,o),
(193,445,o),
(284,445,cs),
(364,445,o),
(430,396,o),
(430,300,cs),
(430,212,l),
(476,429,l),
(423,483,o),
(358,514,o),
(293,514,cs),
(154,514,o),
(40,399,o),
(40,225,cs),
(40,66,o),
(142,-7,o),
(250,-7,cs)
);
},
{
closed = 1;
nodes = (
(462,-10,l),
(608,28,l),
(608,66,l),
(554,66,o),
(525,105,o),
(525,155,cs),
(528,860,l),
(490,860,l),
(364,790,l),
(364,764,l),
(431,734,l),
(429,-10,l)
);
}
);
width = 628;
},
{
associatedMasterId = m01;
layerId = "CEFFE2B9-A0F9-4B6E-AAF0-30026C39339B";
name = "Aug 6, 24 at 18:51";
shapes = (
{
closed = 1;
nodes = (
(348,-9,o),
(418,69,o),
(459,119,c),
(449,148,l),
(409,104,o),
(358,74,o),
(276,74,cs),
(197,74,o),
(129,134,o),
(129,257,cs),
(129,377,o),
(199,448,o),
(276,448,cs),
(351,448,o),
(424,403,o),
(424,306,c),
(492,463,l),
(437,499,o),
(391,516,o),
(292,516,cs),
(162,516,o),
(25,411,o),
(25,234,cs),
(25,79,o),
(126,-9,o),
(234,-9,cs)
);
},
{
closed = 1;
nodes = (
(456,-10,l),
(600,18,l),
(600,62,l),
(546,62,o),
(519,101,o),
(519,151,cs),
(522,860,l),
(484,860,l),
(358,790,l),
(358,764,l),
(425,734,l),
(423,-10,l)
);
}
);
width = 610;
}
);
unicode = 100;
},
{
glyphname = eth;
lastChange = "2024-08-23 22:19:52 +0000";
layers = (
{
layerId = m01;
shapes = (
{
closed = 1;
nodes = (
(452,-17,o),
(567,130,o),
(567,286,cs),
(567,522,o),
(367,731,o),
(134,875,c),
(101,827,l),
(295,681,o),
(407,551,o),
(455,360,c),
(483,376,l),
(458,435,o),
(367,509,o),
(283,507,cs),
(141,504,o),
(20,417,o),
(20,254,cs),
(20,101,o),
(112,-17,o),
(270,-17,cs)
);
},
{
closed = 1;
nodes = (
(210,51,o),
(131,145,o),
(131,270,cs),
(131,376,o),
(197,435,o),
(266,435,cs),
(371,435,o),
(451,385,o),
(451,228,cs),
(451,111,o),
(386,51,o),
(305,51,cs)
);
},
{
closed = 1;
nodes = (
(422,828,l),
(386,873,l),
(107,648,l),
(136,614,l)
);
}
);
width = 600;
}
);
unicode = 240;
},
{
glyphname = e;
kernLeft = o;
lastChange = "2024-09-14 08:06:35 +0000";
layers = (
{
anchors = (
{
name = bottom;
pos = (264,0);
},
{
name = ogonek;
pos = (474,10);
},
{
name = top;
pos = (273,511);
}
);
background = {
shapes = (
{
closed = 1;
nodes = (
(354,-10,o),
(431,35,o),
(480,102,c),
(456,129,l),
(404,86,o),
(339,66,o),
(283,66,cs),
(205,66,o),
(141,130,o),
(141,258,cs),
(141,406,o),
(190,463,o),
(247,463,cs),
(289,463,o),
(340,421,o),
(363,338,c),
(389,354,l),
(115,296,l),
(122,247,l),
(470,325,l),
(442,435,o),
(365,510,o),
(268,510,cs),
(146,510,o),
(38,406,o),
(38,233,cs),
(38,80,o),
(148,-10,o),
(265,-10,cs)
);
}
);
};
guides = (
{
angle = 90;
pos = (485,474);
}
);
layerId = m01;
shapes = (
{
closed = 1;
nodes = (
(369,-12,o),
(448,35,o),
(497,102,c),
(473,129,l),
(421,86,o),
(356,68,o),
(300,68,cs),
(222,68,o),
(151,130,o),
(151,278,cs),
(151,396,o),
(189,451,o),
(251,451,cs),
(298,451,o),
(341,416,o),
(367,344,c),
(393,360,l),
(120,293,l),
(127,247,l),
(487,325,l),
(451,447,o),
(380,511,o),
(273,511,cs),
(151,511,o),
(40,406,o),
(40,233,cs),
(40,74,o),
(157,-12,o),
(280,-12,cs)
);
}
);
width = 527;
}
);
unicode = 101;
},
{
glyphname = f;
lastChange = "2024-09-08 04:37:23 +0000";
layers = (
{
associatedMasterId = m01;
backgroundImage = {
imagePath = "../../Desktop/Screenshot 2024-07-22 at 10.06.58 PM.png";
locked = 1;
pos = (-67,-67);
scale = (14.7975,14.7975);
};
layerId = "3A90523D-445A-434F-99F2-DAC9827BF553";
name = longer;
shapes = (
{
closed = 1;
nodes = (
(322,0,l),
(322,47,l),
(257,51,o),
(226,77,o),
(226,135,cs),
(226,590,ls),
(226,740,o),
(294,800,o),
(368,800,cs),
(402,800,o),
(430,782,o),
(453,740,c),
(477,740,l),
(552,768,l),
(550,836,o),
(480,866,o),
(406,866,cs),
(248,866,o),
(124,762,o),
(125,548,cs),
(126,135,ls),
(126,77,o),
(96,51,o),
(40,47,c),
(40,0,l)
);
},
{
closed = 1;
nodes = (
(372,434,l),
(372,500,l),
(50,500,l),
(50,434,l)
);
}
);
width = 412;
},
{
associatedMasterId = m01;
backgroundImage = {
imagePath = "../../Desktop/Screenshot 2024-07-22 at 10.06.58 PM.png";
locked = 1;
pos = (-67,-67);
scale = (14.7975,14.7975);
};
layerId = "2D2C9A17-E20D-4575-8A9F-78BFA4D1C78D";
name = shorter;
shapes = (
{
closed = 1;
nodes = (
(322,0,l),
(322,47,l),
(257,51,o),
(226,77,o),
(226,135,cs),
(226,590,ls),
(226,735,o),
(263,800,o),
(328,800,cs),
(362,800,o),
(390,782,o),
(413,740,c),
(437,740,l),
(512,768,l),
(526,822,o),
(452,870,o),
(367,870,cs),
(228,870,o),
(125,743,o),
(125,548,cs),
(126,135,ls),
(126,77,o),
(96,51,o),
(40,47,c),
(40,0,l)
);
},
{
closed = 1;
nodes = (
(372,430,l),
(372,500,l),
(54,500,l),
(54,430,l)
);
}
);
width = 402;
},
{
backgroundImage = {
imagePath = "../../Desktop/Screenshot 2024-07-22 at 10.06.58 PM.png";
locked = 1;
pos = (-87,-67);
scale = (14.7975,14.7975);
};
layerId = m01;
name = Regular;
shapes = (
{
closed = 1;
nodes = (
(312,0,l),
(312,41,l),
(242,45,o),
(211,61,o),
(211,119,cs),
(211,590,ls),
(211,750,o),
(266,800,o),
(333,800,cs),
(363,800,o),
(393,784,o),
(408,754,c),
(439,754,l),
(501,795,l),
(489,843,o),
(439,871,o),
(371,871,cs),
(242,871,o),
(112,756,o),
(112,548,cs),
(111,119,ls),
(111,61,o),
(81,45,o),
(20,41,c),
(20,0,l)
);
},
{
closed = 1;
nodes = (
(367,430,l),
(367,500,l),
(45,500,l),
(45,430,l)
);
}
);
width = 397;
}
);
unicode = 102;
},
{
glyphname = g;
lastChange = "2024-08-26 00:22:04 +0000";
layers = (
{
backgroundImage = {
imagePath = "../../Desktop/Screenshot 2024-08-02 at 9.52.51 AM.png";
locked = 1;
pos = (-3,-411);
scale = (8.2241,8.2241);
};
layerId = m01;
shapes = (
{
closed = 1;
nodes = (
(434,-353,o),
(559,-242,o),
(559,-126,cs),
(559,95,o),
(172,-29,o),
(172,43,cs),
(172,70,o),
(222,96,o),
(295,115,c),
(258,126,l),
(191,118,o),
(82,75,o),
(82,9,cs),
(82,-131,o),
(464,15,o),
(464,-156,cs),
(464,-233,o),
(393,-282,o),
(278,-282,cs),
(162,-282,o),
(124,-240,o),
(124,-188,cs),
(124,-121,o),
(179,-75,o),
(280,-41,c),
(254,-26,l),
(111,-67,o),
(20,-122,o),
(20,-213,cs),
(20,-298,o),
(96,-353,o),
(220,-353,cs)
);
},
{
closed = 1;
nodes = (
(380,105,o),
(471,185,o),
(471,311,cs),
(471,424,o),
(391,514,o),
(272,514,cs),
(149,514,o),
(49,438,o),
(49,314,cs),
(49,193,o),
(121,105,o),
(248,105,cs)
);
},
{
closed = 1;
nodes = (
(202,165,o),
(143,231,o),
(143,325,cs),
(143,406,o),
(180,450,o),
(244,450,cs),
(325,450,o),
(378,379,o),
(378,288,cs),
(378,212,o),
(345,165,o),
(276,165,cs)
);
},
{
closed = 1;
nodes = (
(544,430,l),
(544,496,l),
(272,496,l),
(363,430,l)
);
}
);
width = 579;
}
);
unicode = 103;
},
{
glyphname = h;
lastChange = "2024-09-10 03:45:43 +0000";
layers = (
{
layerId = m01;
shapes = (
{
closed = 1;
nodes = (
(640,0,l),
(640,47,l),
(576,49,o),
(554,65,o),
(554,123,cs),
(553,345,ls),
(552,458,o),
(496,514,o),
(393,514,cs),
(328,514,o),
(211,445,o),
(166,408,c),
(185,367,l),
(241,417,o),
(308,434,o),
(358,434,cs),
(409,434,o),
(454,391,o),
(454,307,cs),
(454,123,ls),
(454,65,o),
(428,49,o),
(368,45,c),
(368,0,l)
);
},
{
closed = 1;
nodes = (
(294,0,l),
(294,45,l),
(239,49,o),
(208,65,o),
(208,123,cs),
(208,876,l),
(165,876,l),
(30,799,l),
(30,773,l),
(106,740,l),
(108,123,ls),
(108,65,o),
(78,49,o),
(22,45,c),
(22,0,l)
);
}
);
width = 650;
}
);
unicode = 104;
},
{
glyphname = i;
lastChange = "2024-08-26 22:11:05 +0000";
layers = (
{
backgroundImage = {
imagePath = "../../Desktop/Screenshot 2024-07-23 at 9.53.53 PM.png";
locked = 1;
pos = (-25,-56);
scale = (14.6927,14.6927);
};
guides = (
{
angle = 270;
pos = (229,635);
},
{
angle = 270;
pos = (129,633);
}
);
layerId = m01;
shapes = (
{
closed = 1;
nodes = (
(226,670,o),
(258,702,o),
(258,740,cs),
(258,777,o),
(226,809,o),
(189,809,cs),
(152,809,o),
(120,777,o),
(120,740,cs),
(120,702,o),
(152,670,o),
(189,670,cs)
);
},
{
pos = (10,0);
ref = idotless;
}
);
width = 336;
}
);
unicode = 105;
},
{
glyphname = idotless;
lastChange = "2024-09-08 04:38:01 +0000";
layers = (
{
anchors = (
{
name = bottom;
pos = (158,0);
},
{
name = ogonek;
pos = (298,0);
},
{
name = top;
pos = (151,540);
}
);
layerId = m01;
shapes = (
{
closed = 1;
nodes = (
(298,0,l),
(298,41,l),
(243,45,o),
(212,61,o),
(212,119,cs),
(212,539,l),
(169,539,l),
(30,465,l),
(30,433,l),
(114,400,l),
(114,119,ls),
(114,61,o),
(84,45,o),
(28,41,c),
(28,0,l)
);
}
);
width = 318;
}
);
unicode = 305;
},
{
glyphname = j;
lastChange = "2024-08-23 22:19:52 +0000";
layers = (
{
layerId = m01;
shapes = (
{
closed = 1;
nodes = (
(231,670,o),
(263,702,o),
(263,740,cs),
(263,777,o),
(231,809,o),
(194,809,cs),
(157,809,o),
(125,777,o),
(125,740,cs),
(125,702,o),
(157,670,o),
(194,670,cs)
);
},
{
pos = (10,0);
ref = jdotless;
}
);
width = 333;
}
);
unicode = 106;
},
{
glyphname = jdotless;
lastChange = "2024-09-08 04:41:25 +0000";
layers = (
{
anchors = (
{
name = bottom;
pos = (157,-340);
},
{
name = top;
pos = (155,541);
}
);
layerId = m01;
shapes = (
{
closed = 1;
nodes = (
(182,-206,o),
(224,-111,o),
(224,45,cs),
(224,539,l),
(181,539,l),
(42,465,l),
(42,433,l),
(126,400,l),
(128,45,ls),
(129,-111,o),
(102,-209,o),
(10,-301,c),
(47,-344,l)
);
}
);
width = 313;
}
);
unicode = 567;
},
{
glyphname = k;
lastChange = "2024-09-08 04:38:50 +0000";
layers = (
{
background = {
shapes = (
{
closed = 1;
nodes = (
(321,-150,l),
(321,-88,l),
(247,-83,o),
(208,-50,o),
(208,9,cs),
(208,498,ls),
(208,552,o),
(236,584,o),
(317,591,c),
(317,650,l),
(-13,650,l),
(-13,591,l),
(65,584,o),
(102,552,o),
(102,498,cs),
(102,9,ls),
(102,-51,o),
(75,-80,o),
(-8,-88,c),
(-8,-150,l)
);
},
{
closed = 1;
nodes = (
(779,-150,l),
(779,-88,l),
(722,-76,o),
(697,-59,o),
(653,-20,cs),
(315,280,l),
(616,534,ls),
(659,571,o),
(688,584,o),
(745,591,c),
(745,650,l),
(465,650,l),
(465,591,l),
(538,584,o),
(536,556,o),
(496,522,cs),
(198,273,l),
(493,-2,ls),
(547,-52,o),
(534,-82,o),
(460,-88,c),
(460,-150,l)
);
}
);
};
layerId = m01;
shapes = (
{
closed = 1;
nodes = (
(294,0,l),
(294,41,l),
(229,45,o),
(208,61,o),
(208,119,cs),
(208,876,l),
(165,876,l),
(30,799,l),
(30,773,l),
(106,740,l),
(108,119,ls),
(108,61,o),
(78,45,o),
(22,41,c),
(22,0,l)
);
},
{
closed = 1;
nodes = (
(607,0,l),
(607,41,l),
(564,47,o),
(537,60,o),
(484,110,cs),
(306,281,l),
(453,405,ls),
(499,444,o),
(519,453,o),
(570,461,c),
(570,500,l),
(310,500,l),
(310,461,l),
(354,453,o),
(383,430,o),
(333,386,cs),
(203,273,l),
(362,110,ls),
(401,71,o),
(402,56,o),
(355,41,c),
(355,0,l)
);
}
);
width = 627;
}
);
unicode = 107;
},
{
glyphname = l;
lastChange = "2024-09-08 04:38:56 +0000";
layers = (
{
layerId = m01;
shapes = (
{
closed = 1;
nodes = (
(294,0,l),
(294,41,l),
(239,45,o),
(218,61,o),
(218,119,cs),
(218,876,l),
(175,876,l),
(40,799,l),
(40,773,l),
(116,740,l),
(118,119,ls),
(118,61,o),
(98,45,o),
(42,41,c),
(42,0,l)
);
}
);
width = 334;
}
);
unicode = 108;
},
{
glyphname = m;
kernLeft = n;
kernRight = n;
lastChange = "2024-09-10 03:45:27 +0000";
layers = (
{
background = {
shapes = (
{
closed = 1;
nodes = (
(635,0,l),
(635,49,l),
(571,51,o),
(549,77,o),
(549,135,cs),
(548,345,ls),
(547,458,o),
(491,514,o),
(388,514,cs),
(323,514,o),
(206,445,o),
(161,408,c),
(180,367,l),
(236,417,o),
(303,434,o),
(353,434,cs),
(404,434,o),
(449,393,o),
(449,309,cs),
(449,135,ls),
(449,77,o),
(423,51,o),
(363,47,c),
(363,0,l)
);
},
{
closed = 1;
nodes = (
(289,0,l),
(289,47,l),
(234,51,o),
(203,77,o),
(203,135,cs),
(203,539,l),
(160,539,l),
(25,462,l),
(25,436,l),
(101,403,l),
(103,135,ls),
(103,77,o),
(73,51,o),
(17,47,c),
(17,0,l)
);
}
);
};
backgroundImage = {
imagePath = "../../Desktop/Screenshot 2024-07-21 at 8.41.43 PM.png";
locked = 1;
pos = (-63,-120);
scale = (30.6954,30.6954);
};
layerId = m01;
shapes = (
{
closed = 1;
nodes = (
(946,0,l),
(946,45,l),
(882,47,o),
(860,65,o),
(860,123,cs),
(859,345,ls),
(858,458,o),
(812,514,o),
(709,514,cs),
(636,514,o),
(527,425,o),
(492,388,c),
(511,347,l),
(537,397,o),
(613,434,o),
(674,434,cs),
(725,434,o),
(760,393,o),
(760,309,cs),
(760,123,ls),
(760,65,o),
(734,49,o),
(674,45,c),
(674,0,l)
);
},
{
closed = 1;
nodes = (
(294,0,l),
(294,45,l),
(239,49,o),
(208,65,o),
(208,123,cs),
(208,539,l),
(165,539,l),
(20,462,l),
(20,436,l),
(106,403,l),
(108,123,ls),
(108,65,o),
(78,49,o),
(22,45,c),
(22,0,l)
);
},
{
closed = 1;
nodes = (
(620,0,l),
(620,45,l),
(556,47,o),
(534,65,o),
(534,123,cs),
(533,345,ls),
(532,458,o),
(486,514,o),
(383,514,cs),
(310,514,o),
(201,425,o),
(166,388,c),
(185,347,l),
(211,397,o),
(287,434,o),
(348,434,cs),
(399,434,o),
(434,393,o),
(434,309,cs),
(434,123,ls),
(434,65,o),
(408,49,o),
(348,45,c),
(348,0,l)
);
}
);
width = 956;
}
);
unicode = 109;
},
{
glyphname = n;
kernLeft = n;
kernRight = n;
lastChange = "2024-09-11 03:43:19 +0000";
layers = (
{
anchors = (
{
name = bottom;
pos = (316,0);
},
{
name = top;
pos = (316,516);
}
);
layerId = m01;
shapes = (
{
closed = 1;
nodes = (
(630,0,l),
(630,45,l),
(566,47,o),
(544,63,o),
(544,121,cs),
(543,355,ls),
(543,458,o),
(486,514,o),
(383,514,cs),
(318,514,o),
(211,445,o),
(166,408,c),
(185,367,l),
(241,417,o),
(298,434,o),
(348,434,cs),
(399,434,o),
(444,393,o),
(444,319,cs),
(444,121,ls),
(444,63,o),
(418,47,o),
(358,43,c),
(358,0,l)
);
},
{
closed = 1;
nodes = (
(294,0,l),
(294,43,l),
(239,47,o),
(208,63,o),
(208,121,cs),
(208,539,l),
(165,539,l),
(30,462,l),
(30,436,l),
(108,403,l),
(108,121,ls),
(108,63,o),
(78,47,o),
(22,43,c),
(22,0,l)
);
}
);
width = 640;
}
);
unicode = 110;
},
{
glyphname = o;
kernLeft = o;
kernRight = o;
lastChange = "2024-08-29 04:20:40 +0000";
layers = (
{
anchors = (
{
name = bottom;
pos = (300,-17);
},
{
name = center;
pos = (305,250);
},
{
name = ogonek;
pos = (541,10);
},
{
name = top;
pos = (313,514);
},
{
name = topright;
pos = (580,500);
}
);
background = {
shapes = (
{
closed = 1;
nodes = (
(441,14,o),
(482,56,cs),
(547,122,o),
(579,223,o),
(553,320,cs),
(527,417,o),
(449,487,o),
(356,508,cs),
(297,522,o),
(164,485,o),
(119,443,cs),
(50,378,o),
(21,280,o),
(47,184,cs),
(73,85,o),
(153,9,o),
(246,-11,cs),
(307,-24,o)
);
},
{
closed = 1;
nodes = (
(270,28,o),
(180,98,o),
(151,206,cs),
(124,312,o),
(166,419,o),
(248,441,cs),
(332,463,o),
(421,393,o),
(450,286,cs),
(479,179,o),
(435,73,o),
(353,52,cs)
);
}
);
};
layerId = m01;
shapes = (
{
closed = 1;
nodes = (
(457,-17,o),
(570,86,o),
(570,251,cs),
(570,396,o),
(471,514,o),
(321,514,cs),
(165,514,o),
(40,417,o),
(40,254,cs),
(40,101,o),
(132,-17,o),
(290,-17,cs)
);
},
{
closed = 1;
nodes = (
(230,51,o),
(151,145,o),
(151,270,cs),
(151,376,o),
(204,441,o),
(284,441,cs),
(389,441,o),
(461,340,o),
(461,221,cs),
(461,120,o),
(413,51,o),
(325,51,cs)
);
}
);
width = 610;
}
);
unicode = 111;
},
{
glyphname = oe;
lastChange = "2024-08-23 22:19:52 +0000";
layers = (
{
layerId = m01;
shapes = (
{
closed = 1;
nodes = (
(457,-17,o),
(570,86,o),
(570,251,cs),
(570,396,o),
(471,514,o),
(321,514,cs),
(165,514,o),
(40,417,o),
(40,254,cs),
(40,101,o),
(132,-17,o),
(290,-17,cs)
);
},
{
closed = 1;
nodes = (
(230,51,o),
(151,145,o),
(151,270,cs),
(151,376,o),
(204,441,o),
(284,441,cs),
(389,441,o),
(461,340,o),
(461,221,cs),
(461,120,o),
(413,51,o),
(325,51,cs)
);
},
{
closed = 1;
nodes = (
(808,-12,o),
(887,35,o),
(936,102,c),
(912,129,l),
(860,86,o),
(795,68,o),
(739,68,cs),
(661,68,o),
(578,130,o),
(578,278,cs),
(578,396,o),
(628,451,o),
(690,451,cs),
(737,451,o),
(780,416,o),
(806,344,c),
(832,360,l),
(549,293,l),
(556,247,l),
(926,325,l),
(895,447,o),
(819,511,o),
(712,511,cs),
(590,511,o),
(470,406,o),
(470,233,cs),
(470,80,o),
(602,-12,o),
(719,-12,cs)
);
}
);
width = 966;
}
);
metricLeft = "=o";
metricRight = "=e";
unicode = 339;
},
{
glyphname = p;
lastChange = "2024-09-08 04:38:35 +0000";
layers = (
{
layerId = m01;
shapes = (
{
closed = 1;
nodes = (
(482,-12,o),
(595,97,o),
(595,265,cs),
(595,427,o),
(512,514,o),
(385,514,cs),
(314,514,o),
(218,450,o),
(161,377,c),
(161,57,l),
(195,12,o),
(254,-12,o),
(338,-12,cs)
);
},
{
closed = 1;
nodes = (
(313,-340,l),
(313,-299,l),
(239,-288,o),
(205,-271,o),
(205,-210,cs),
(205,517,l),
(165,517,l),
(30,437,l),
(30,411,l),
(107,374,l),
(107,-210,ls),
(107,-268,o),
(83,-285,o),
(13,-299,c),
(13,-340,l)
);
},
{
closed = 1;
nodes = (
(272,45,o),
(206,89,o),
(205,164,cs),
(203,363,l),
(238,402,o),
(291,428,o),
(345,428,cs),
(441,428,o),
(490,350,o),
(490,243,cs),
(490,136,o),
(438,45,o),
(342,45,cs)
);
}
);
width = 645;
}
);
unicode = 112;
},
{
glyphname = thorn;
lastChange = "2024-09-08 04:44:39 +0000";
layers = (
{
layerId = m01;
shapes = (
{
closed = 1;
nodes = (
(292,-340,l),
(292,-303,l),
(237,-299,o),
(196,-283,o),
(196,-225,cs),
(196,876,l),
(153,876,l),
(18,799,l),
(18,773,l),
(94,740,l),
(96,-225,ls),
(96,-283,o),
(56,-299,o),
(10,-303,c),
(10,-340,l)
);
},
{
closed = 1;
nodes = (
(422,-12,o),
(560,77,o),
(560,265,cs),
(560,426,o),
(470,510,o),
(352,510,cs),
(271,510,o),
(184,455,o),
(106,345,c),
(106,45,l),
(149,3,o),
(219,-12,o),
(289,-12,cs)
);
},
{
closed = 1;
nodes = (
(227,47,o),
(171,89,o),
(170,164,cs),
(168,358,l),
(202,399,o),
(243,424,o),
(297,424,cs),
(391,424,o),
(457,361,o),
(457,240,cs),
(457,123,o),
(403,47,o),
(297,47,cs)
);
}
);
width = 600;
}
);
metricLeft = "=b";
metricRight = "=o";
unicode = 254;
},
{
glyphname = q;
lastChange = "2024-09-08 04:39:37 +0000";
layers = (
{
associatedMasterId = m01;
layerId = "DC6496AB-4B35-4A09-A44D-9D47F92FF4D4";
name = "from p";
shapes = (
{
closed = 1;
nodes = (
(619,-340,l),
(619,-293,l),
(555,-282,o),
(531,-265,o),
(531,-194,cs),
(531,516,l),
(501,516,l),
(431,457,l),
(431,-194,ls),
(431,-262,o),
(407,-279,o),
(347,-293,c),
(347,-340,l)
);
},
{
closed = 1;
nodes = (
(153,514,o),
(40,405,o),
(40,237,cs),
(40,75,o),
(123,-12,o),
(250,-12,cs),
(321,-12,o),
(417,52,o),
(474,125,c),
(474,445,l),
(440,490,o),
(381,514,o),
(297,514,cs)
);
},
{
closed = 1;
nodes = (
(363,457,o),
(429,413,o),
(430,338,cs),
(432,139,l),
(397,100,o),
(347,77,o),
(293,77,cs),
(197,77,o),
(148,155,o),
(148,262,cs),
(148,369,o),
(197,457,o),
(293,457,cs)
);
}
);
width = 600;
},
{
associatedMasterId = m01;
layerId = "61E02B98-8446-47C8-8FCA-16B68EE48C40";
name = "from b";
shapes = (
{
closed = 1;
nodes = (
(158,506,o),
(10,417,o),
(10,229,cs),
(10,68,o),
(110,-16,o),
(228,-16,cs),
(309,-16,o),
(396,39,o),
(474,149,c),
(474,449,l),
(431,491,o),
(361,506,o),
(291,506,cs)
);
},
{
closed = 1;
nodes = (
(489,494,l),
(415,453,l),
(412,-382,l),
(455,-382,l),
(590,-305,l),
(590,-279,l),
(514,-246,l),
(514,494,l)
);
},
{
closed = 1;
nodes = (
(353,447,o),
(409,405,o),
(410,330,cs),
(412,136,l),
(378,95,o),
(337,70,o),
(283,70,cs),
(189,70,o),
(113,133,o),
(113,254,cs),
(113,371,o),
(177,447,o),
(283,447,cs)
);
}
);
width = 600;
},
{
layerId = m01;
name = Regular;
shapes = (
{
closed = 1;
nodes = (
(378,-9,o),
(438,59,o),
(479,99,c),
(459,128,l),
(419,94,o),
(388,65,o),
(306,65,cs),
(234,65,o),
(138,132,o),
(138,264,cs),
(138,373,o),
(203,448,o),
(291,448,cs),
(364,448,o),
(424,406,o),
(424,309,cs),
(424,179,l),
(494,459,l),
(449,493,o),
(387,516,o),
(302,516,cs),
(170,516,o),
(40,406,o),
(40,234,cs),
(40,79,o),
(146,-9,o),
(264,-9,cs)
);
},
{
closed = 1;
nodes = (
(610,-340,l),
(610,-299,l),
(546,-288,o),
(522,-271,o),
(522,-210,cs),
(522,516,l),
(497,516,l),
(424,468,l),
(424,-210,ls),
(424,-268,o),
(390,-285,o),
(310,-299,c),
(310,-340,l)
);
}
);
width = 620;
}
);
unicode = 113;
},
{
glyphname = r;
kernLeft = n;
lastChange = "2024-09-08 04:37:04 +0000";
layers = (
{
associatedMasterId = m01;
background = {
shapes = (
{
closed = 1;
nodes = (
(458,411,l),
(447,467,o),
(413,508,o),
(365,508,cs),
(328,508,o),
(256,478,o),
(163,398,c),
(182,333,l),
(233,402,o),
(267,430,o),
(286,430,cs),
(311,430,o),
(336,385,o),
(344,357,c)
);
},
{
closed = 1;
nodes = (
(312,0,l),
(312,47,l),
(237,51,o),
(206,77,o),
(206,135,cs),
(206,539,l),
(163,539,l),
(28,462,l),
(28,436,l),
(104,403,l),
(106,135,ls),
(106,77,o),
(76,51,o),
(20,47,c),
(20,0,l)
);
}
);
};
backgroundImage = {
angle = -0.1;
imagePath = "../../Desktop/IMG_2831.jpeg";
locked = 1;
pos = (-114,-55);
scale = (0.7699,0.7699);
};
layerId = "9C1E6CAB-6EFD-4C41-9745-C5D4F95E1871";
name = "Jul 26, 24 at 18:28";
shapes = (
{
closed = 1;
nodes = (
(312,0,l),
(312,47,l),
(237,51,o),
(203,77,o),
(203,135,cs),
(203,539,l),
(163,539,l),
(28,462,l),
(28,436,l),
(104,403,l),
(106,135,ls),
(106,77,o),
(76,51,o),
(20,47,c),
(20,0,l)
);
},
{
closed = 1;
nodes = (
(226,379,o),
(276,413,o),
(289,413,cs),
(312,413,o),
(336,403,o),
(354,375,c),
(379,375,l),
(440,444,l),
(431,489,o),
(394,517,o),
(355,517,cs),
(284,517,o),
(191,385,o),
(155,323,c),
(198,286,l)
);
}
);
width = 440;
},
{
associatedMasterId = m01;
background = {
shapes = (
{
closed = 1;
nodes = (
(458,411,l),
(447,467,o),
(413,508,o),
(365,508,cs),
(328,508,o),
(256,478,o),
(163,398,c),
(182,333,l),
(233,402,o),
(267,430,o),
(286,430,cs),
(311,430,o),
(336,385,o),
(344,357,c)
);
},
{
closed = 1;
nodes = (
(312,0,l),
(312,47,l),
(237,51,o),
(206,77,o),
(206,135,cs),
(206,539,l),
(163,539,l),
(28,462,l),
(28,436,l),
(104,403,l),
(106,135,ls),
(106,77,o),
(76,51,o),
(20,47,c),
(20,0,l)
);
}
);
};
backgroundImage = {
angle = -0.1;
imagePath = "../../Desktop/IMG_2831.jpeg";
locked = 1;
pos = (-114,-55);
scale = (0.7699,0.7699);
};
layerId = "F878F24B-1396-41F0-84BD-2CAC62624364";
name = "Jul 26, 24 at 18:50";
shapes = (
{
closed = 1;
nodes = (
(312,0,l),
(312,47,l),
(237,51,o),
(203,77,o),
(203,135,cs),
(203,539,l),
(163,539,l),
(30,462,l),
(30,436,l),
(106,403,l),
(108,135,ls),
(108,77,o),
(78,51,o),
(22,47,c),
(22,0,l)
);
},
{
closed = 1;
nodes = (
(234,351,o),
(288,418,o),
(307,422,cs),
(323,425,o),
(347,408,o),
(367,372,c),
(390,376,l),
(463,430,l),
(460,486,o),
(411,531,o),
(364,524,cs),
(313,514,o),
(251,430,o),
(173,335,c),
(196,274,l)
);
}
);
width = 473;
},
{
background = {
shapes = (
{
closed = 1;
nodes = (
(450,411,l),
(439,467,o),
(405,508,o),
(357,508,cs),
(320,508,o),
(248,478,o),
(155,398,c),
(174,333,l),
(225,402,o),
(259,430,o),
(278,430,cs),
(303,430,o),
(328,385,o),
(336,357,c)
);
},
{
closed = 1;
nodes = (
(304,0,l),
(304,47,l),
(229,51,o),
(198,77,o),
(198,135,cs),
(198,539,l),
(155,539,l),
(20,462,l),
(20,436,l),
(96,403,l),
(98,135,ls),
(98,77,o),
(68,51,o),
(12,47,c),
(12,0,l)
);
}
);
};
backgroundImage = {
angle = -0.1;
imagePath = "../../Desktop/IMG_2831.jpeg";
locked = 1;
pos = (-122,-55);
scale = (0.7699,0.7699);
};
layerId = m01;
name = Regular;
shapes = (
{
closed = 1;
nodes = (
(309,0,l),
(309,41,l),
(234,45,o),
(200,61,o),
(200,119,cs),
(200,539,l),
(160,539,l),
(30,462,l),
(30,436,l),
(106,403,l),
(108,119,ls),
(108,61,o),
(78,45,o),
(22,41,c),
(22,0,l)
);
},
{
closed = 1;
nodes = (
(202,399,o),
(237,419,o),
(264,419,cs),
(293,419,o),
(310,409,o),
(328,368,c),
(356,368,l),
(442,414,l),
(445,470,o),
(417,516,o),
(362,516,cs),
(314,516,o),
(239,488,o),
(132,331,c),
(169,308,l)
);
}
);
width = 452;
},
{
associatedMasterId = m01;
background = {
shapes = (
{
closed = 1;
nodes = (
(458,411,l),
(447,467,o),
(413,508,o),
(365,508,cs),
(328,508,o),
(256,478,o),
(163,398,c),
(182,333,l),
(233,402,o),
(267,430,o),
(286,430,cs),
(311,430,o),
(336,385,o),
(344,357,c)
);
},
{
closed = 1;
nodes = (
(312,0,l),
(312,47,l),
(237,51,o),
(206,77,o),
(206,135,cs),
(206,539,l),
(163,539,l),
(28,462,l),
(28,436,l),
(104,403,l),
(106,135,ls),
(106,77,o),
(76,51,o),
(20,47,c),
(20,0,l)
);
}
);
};
backgroundImage = {
angle = -0.1;
imagePath = "../../Desktop/IMG_2831.jpeg";
locked = 1;
pos = (-114,-55);
scale = (0.7699,0.7699);
};
layerId = "085B5625-16E7-43E1-A397-7441E6865D55";
name = "Jul 26, 24 at 18:50";
shapes = (
{
closed = 1;
nodes = (
(312,0,l),
(312,47,l),
(237,51,o),
(203,77,o),
(203,135,cs),
(203,539,l),
(163,539,l),
(28,462,l),
(28,436,l),
(104,403,l),
(106,135,ls),
(106,77,o),
(76,51,o),
(20,47,c),
(20,0,l)
);
},
{
closed = 1;
nodes = (
(233,373,o),
(271,425,o),
(290,425,cs),
(307,425,o),
(327,405,o),
(341,366,c),
(364,366,l),
(445,406,l),
(452,462,o),
(412,515,o),
(364,515,cs),
(312,515,o),
(256,449,o),
(163,369,c),
(182,304,l)
);
}
);
width = 456;
}
);
unicode = 114;
},
{
glyphname = s;
lastChange = "2024-08-29 04:31:00 +0000";
layers = (
{
associatedMasterId = m01;
backgroundImage = {
imagePath = "../../Desktop/Screenshot 2024-07-23 at 11.35.04 AM.png";
locked = 1;
pos = (-7,-70);
scale = (16.7692,16.7692);
};
layerId = "FE64CD1F-0CE5-453A-8441-1A0C6112AF07";
name = "Jul 24, 24 at 22:37";
shapes = (
{
closed = 1;
nodes = (
(360,-16,o),
(417,31,o),
(417,135,cs),
(417,323,o),
(130,248,o),
(141,392,cs),
(144,430,o),
(166,448,o),
(219,448,cs),
(269,448,o),
(314,425,o),
(342,358,c),
(389,358,l),
(370,491,l),
(310,496,o),
(301,518,o),
(235,518,cs),
(114,518,o),
(57,473,o),
(57,372,cs),
(57,182,o),
(322,262,o),
(319,121,cs),
(318,78,o),
(299,56,o),
(231,57,cs),
(161,58,o),
(106,95,o),
(90,172,c),
(50,173,l),
(58,14,l),
(124,7,o),
(163,-16,o),
(230,-16,cs)
);
}
);
width = 467;
},
{
backgroundImage = {
imagePath = "../../Desktop/Screenshot 2024-07-23 at 11.35.04 AM.png";
locked = 1;
pos = (0,-70);
scale = (16.7692,16.7692);
};
guides = (
{
angle = 90;
pos = (433,135);
}
);
layerId = m01;
name = Regular;
shapes = (
{
closed = 1;
nodes = (
(373,-16,o),
(431,43,o),
(431,131,cs),
(431,302,o),
(140,292,o),
(143,394,cs),
(144,431,o),
(171,450,o),
(212,450,cs),
(283,450,o),
(346,429,o),
(371,338,c),
(416,338,l),
(394,507,l),
(323,499,o),
(307,518,o),
(229,518,cs),
(151,518,o),
(67,473,o),
(67,368,cs),
(67,198,o),
(335,232,o),
(335,107,cs),
(335,69,o),
(309,49,o),
(261,49,cs),
(163,49,o),
(115,103,o),
(99,180,c),
(50,181,l),
(83,-8,l),
(157,4,o),
(176,-16,o),
(242,-16,cs)
);
}
);
width = 481;
},
{
associatedMasterId = m01;
backgroundImage = {
imagePath = "../../Desktop/Screenshot 2024-07-23 at 11.35.04 AM.png";
locked = 1;
pos = (-5,-70);
scale = (16.7692,16.7692);
};
guides = (
{
angle = 90;
pos = (423,135);
}
);
layerId = "0FF74F8C-58B6-4FBD-9367-9D048606AF7C";
name = "Aug 8, 24 at 18:39";
shapes = (
{
closed = 1;
nodes = (
(363,-16,o),
(421,47,o),
(421,135,cs),
(421,306,o),
(131,277,o),
(133,402,cs),
(134,441,o),
(166,462,o),
(202,462,cs),
(269,462,o),
(330,431,o),
(357,338,c),
(406,338,l),
(384,507,l),
(313,499,o),
(297,518,o),
(219,518,cs),
(141,518,o),
(59,466,o),
(57,372,cs),
(53,202,o),
(323,237,o),
(321,102,cs),
(320,58,o),
(299,38,o),
(251,37,cs),
(153,35,o),
(109,103,o),
(93,180,c),
(40,181,l),
(73,-8,l),
(147,4,o),
(166,-16,o),
(232,-16,cs)
);
}
);
width = 461;
}
);
unicode = 115;
},
{
glyphname = germandbls;
lastChange = "2024-09-08 04:45:10 +0000";
layers = (
{
background = {
shapes = (
{
closed = 1;
nodes = (
(152,430,l),
(152,500,l),
(30,500,l),
(30,430,l)
);
}
);
};
layerId = m01;
shapes = (
{
closed = 1;
nodes = (
(573,-16,o),
(631,57,o),
(631,145,cs),
(631,336,o),
(414,366,o),
(413,482,cs),
(412,560,o),
(566,532,o),
(566,701,cs),
(566,790,o),
(478,871,o),
(340,871,cs),
(178,871,o),
(97,756,o),
(97,548,cs),
(96,125,ls),
(96,67,o),
(66,46,o),
(10,42,c),
(10,0,l),
(196,0,l),
(196,590,ls),
(196,708,o),
(227,800,o),
(324,800,cs),
(390,800,o),
(452,753,o),
(452,678,cs),
(452,540,o),
(316,584,o),
(316,435,cs),
(316,279,o),
(531,247,o),
(531,117,cs),
(531,76,o),
(506,43,o),
(461,41,cs),
(383,38,o),
(329,103,o),
(313,180,c),
(260,181,l),
(293,-8,l),
(367,4,o),
(396,-16,o),
(442,-16,cs)
);
}
);
width = 651;
}
);
unicode = 223;
},
{
glyphname = t;
lastChange = "2024-08-29 04:30:13 +0000";
layers = (
{
backgroundImage = {
imagePath = "../../Desktop/Screenshot 2024-07-23 at 11.12.50 AM.png";
locked = 1;
pos = (-38,-75);
scale = (15.9911,15.9911);
};
guides = (
{
angle = 270;
pos = (410,394);
}
);
layerId = m01;
shapes = (
{
closed = 1;
nodes = (
(320,-15,o),
(369,21,o),
(411,59,c),
(388,96,l),
(350,75,o),
(318,67,o),
(282,67,cs),
(236,67,o),
(214,109,o),
(214,178,cs),
(214,643,l),
(182,643,l),
(151,563,o),
(101,503,o),
(30,463,c),
(30,431,l),
(400,431,l),
(400,500,l),
(115,500,l),
(111,145,ls),
(110,35,o),
(159,-15,o),
(239,-15,cs)
);
}
);
width = 431;
},
{
associatedMasterId = m01;
backgroundImage = {
imagePath = "../../Desktop/Screenshot 2024-07-23 at 11.12.50 AM.png";
locked = 1;
pos = (-12,-75);
scale = (15.9911,15.9911);
};
guides = (
{
angle = 270;
pos = (431,443);
}
);
layerId = "FA12F2EF-3490-4B4E-8428-D470BD86DDD6";
name = "straigh serif";
shapes = (
{
closed = 1;
nodes = (
(213,623,l),
(50,453,l),
(50,435,l),
(431,435,l),
(431,500,l),
(131,500,l),
(127,110,ls),
(126,22,o),
(174,-15,o),
(256,-15,cs),
(348,-15,o),
(389,26,o),
(441,66,c),
(413,104,l),
(370,71,o),
(345,62,o),
(297,62,cs),
(271,62,o),
(231,87,o),
(231,143,cs),
(231,623,l)
);
}
);
width = 491;
},
{
associatedMasterId = m01;
backgroundImage = {
imagePath = "../../Desktop/Screenshot 2024-07-23 at 11.12.50 AM.png";
locked = 1;
pos = (-32,-75);
scale = (15.9911,15.9911);
};
guides = (
{
angle = 270;
pos = (411,394);
}
);
layerId = "8CB67F83-B088-4BA6-BB0F-737F2D6688B3";
name = wide;
shapes = (
{
closed = 1;
nodes = (
(321,-15,o),
(372,27,o),
(418,70,c),
(393,104,l),
(356,75,o),
(319,62,o),
(287,62,cs),
(249,62,o),
(211,87,o),
(211,163,cs),
(211,613,l),
(183,613,l),
(142,553,o),
(91,503,o),
(30,463,c),
(30,435,l),
(411,435,l),
(411,500,l),
(111,500,l),
(107,145,ls),
(106,30,o),
(162,-15,o),
(230,-15,cs)
);
}
);
width = 438;
}
);
unicode = 116;
},
{
glyphname = u;
lastChange = "2024-09-11 03:43:16 +0000";
layers = (
{
anchors = (
{
name = bottom;
pos = (305,0);
},
{
name = ogonek;
pos = (556,10);
},
{
name = top;
pos = (305,490);
},
{
name = topright;
pos = (599,500);
}
);
background = {
shapes = (
{
closed = 1;
nodes = (
(-5,499,l),
(-5,450,l),
(59,448,o),
(81,422,o),
(81,364,cs),
(82,154,ls),
(83,41,o),
(139,-15,o),
(242,-15,cs),
(307,-15,o),
(424,54,o),
(469,91,c),
(450,132,l),
(394,82,o),
(327,65,o),
(277,65,cs),
(226,65,o),
(181,106,o),
(181,190,cs),
(181,364,ls),
(181,422,o),
(207,448,o),
(267,452,c),
(267,499,l)
);
},
{
closed = 1;
nodes = (
(341,499,l),
(341,452,l),
(396,448,o),
(427,422,o),
(427,364,cs),
(427,-40,l),
(470,-40,l),
(605,37,l),
(605,63,l),
(529,96,l),
(527,364,ls),
(527,422,o),
(557,448,o),
(613,452,c),
(613,499,l)
);
}
);
};
layerId = m01;
shapes = (
{
closed = 1;
nodes = (
(312,-15,o),
(429,79,o),
(474,116,c),
(455,157,l),
(399,107,o),
(342,70,o),
(282,65,cs),
(231,61,o),
(182,116,o),
(183,200,cs),
(186,516,l),
(155,516,l),
(20,460,l),
(20,430,l),
(90,404,l),
(88,164,ls),
(87,51,o),
(144,-15,o),
(247,-15,cs)
);
},
{
closed = 1;
nodes = (
(452,-10,l),
(596,28,l),
(596,65,l),
(542,65,o),
(518,84,o),
(518,134,cs),
(517,516,l),
(490,516,l),
(356,456,l),
(356,422,l),
(423,400,l),
(421,-10,l)
);
}
);
width = 616;
},
{
associatedMasterId = m01;
background = {
shapes = (
{
closed = 1;
nodes = (
(0,499,l),
(0,450,l),
(64,448,o),
(86,422,o),
(86,364,cs),
(87,154,ls),
(88,41,o),
(144,-15,o),
(247,-15,cs),
(312,-15,o),
(429,54,o),
(474,91,c),
(455,132,l),
(399,82,o),
(332,65,o),
(282,65,cs),
(231,65,o),
(186,106,o),
(186,190,cs),
(186,364,ls),
(186,422,o),
(212,448,o),
(272,452,c),
(272,499,l)
);
},
{
closed = 1;
nodes = (
(346,499,l),
(346,452,l),
(401,448,o),
(432,422,o),
(432,364,cs),
(432,-40,l),
(475,-40,l),
(610,37,l),
(610,63,l),
(534,96,l),
(532,364,ls),
(532,422,o),
(562,448,o),
(618,452,c),
(618,499,l)
);
}
);
};
layerId = "00D8F9AE-F178-4151-85A0-051F5F3D947A";
name = "Jul 26, 24 at 18:01";
shapes = (
{
closed = 1;
nodes = (
(312,-15,o),
(429,79,o),
(474,116,c),
(455,157,l),
(399,107,o),
(342,70,o),
(282,65,cs),
(231,61,o),
(185,116,o),
(185,200,cs),
(186,520,l),
(20,490,l),
(20,440,l),
(74,438,o),
(88,422,o),
(88,354,cs),
(88,164,ls),
(88,51,o),
(144,-15,o),
(247,-15,cs)
);
},
{
closed = 1;
nodes = (
(455,0,l),
(599,28,l),
(599,72,l),
(545,72,o),
(521,91,o),
(521,141,cs),
(518,520,l),
(356,490,l),
(356,440,l),
(411,436,o),
(422,417,o),
(422,349,cs),
(422,0,l)
);
}
);
width = 619;
}
);
unicode = 117;
},
{
glyphname = v;
kernLeft = v;
kernRight = v;
lastChange = "2024-09-09 03:59:31 +0000";
layers = (
{
background = {
shapes = (
{
closed = 1;
nodes = (
(376,503,l),
(376,463,l),
(442,458,o),
(465,433,o),
(441,377,cs),
(304,61,l),
(164,376,ls),
(138,435,o),
(144,458,o),
(220,463,c),
(220,503,l),
(14,503,l),
(14,463,l),
(30,459,o),
(54,442,o),
(68,412,cs),
(265,-23,l),
(325,-23,l),
(502,396,ls),
(519,436,o),
(536,458,o),
(568,463,c),
(568,503,l)
);
}
);
};
layerId = m01;
shapes = (
{
closed = 1;
nodes = (
(338,0,l),
(498,367,ls),
(530,440,o),
(550,454,o),
(584,458,c),
(584,499,l),
(352,499,l),
(352,458,l),
(426,452,o),
(451,428,o),
(426,367,cs),
(313,93,l),
(190,379,ls),
(172,422,o),
(194,452,o),
(268,458,c),
(268,499,l),
(5,499,l),
(5,456,l),
(29,452,o),
(55,434,o),
(81,379,cs),
(258,0,l)
);
}
);
width = 589;
}
);
unicode = 118;
},
{
glyphname = w;
kernLeft = v;
kernRight = v;
lastChange = "2024-09-09 03:58:24 +0000";
layers = (
{
anchors = (
{
name = bottom;
pos = (417,0);
},
{
name = top;
pos = (419,500);
}
);
guides = (
{
angle = 270;
pos = (576,1137);
},
{
angle = 270;
pos = (287,1050);
}
);
layerId = m01;
shapes = (
{
closed = 1;
nodes = (
(603,0,l),
(753,367,ls),
(783,441,o),
(815,454,o),
(839,458,c),
(839,499,l),
(627,499,l),
(627,458,l),
(683,452,o),
(706,428,o),
(682,367,cs),
(575,91,l),
(479,370,ls),
(460,424,o),
(476,451,o),
(533,458,c),
(533,499,l),
(300,499,l),
(300,458,l),
(324,454,o),
(358,453,o),
(388,370,cs),
(520,0,l)
);
},
{
closed = 1;
nodes = (
(308,0,l),
(425,285,l),
(390,377,l),
(286,91,l),
(177,370,ls),
(151,436,o),
(171,454,o),
(208,458,c),
(208,499,l),
(5,499,l),
(5,458,l),
(37,454,o),
(56,436,o),
(84,370,cs),
(238,0,l)
);
}
);
width = 844;
}
);
unicode = 119;
},
{
glyphname = x;
lastChange = "2024-09-07 19:54:38 +0000";
layers = (
{
layerId = m01;
shapes = (
{
closed = 1;
nodes = (
(583,0,l),
(583,41,l),
(556,45,o),
(531,52,o),
(495,93,cs),
(252,364,ls),
(196,426,o),
(211,451,o),
(273,459,c),
(273,500,l),
(21,500,l),
(21,459,l),
(47,454,o),
(72,445,o),
(90,425,cs),
(334,147,ls),
(397,75,o),
(389,52,o),
(324,41,c),
(324,0,l)
);
},
{
closed = 1;
nodes = (
(244,0,l),
(244,41,l),
(183,52,o),
(171,71,o),
(236,147,cs),
(330,258,l),
(248,258,l),
(93,85,ls),
(68,57,o),
(41,45,o),
(10,41,c),
(10,0,l)
);
},
{
closed = 1;
nodes = (
(338,258,l),
(482,419,ls),
(501,440,o),
(524,451,o),
(554,459,c),
(554,500,l),
(338,500,l),
(338,459,l),
(394,451,o),
(408,432,o),
(350,366,cs),
(255,258,l)
);
}
);
width = 593;
}
);
unicode = 120;
},
{
glyphname = y;
kernLeft = v;
kernRight = v;
lastChange = "2024-09-09 03:58:36 +0000";
layers = (
{
associatedMasterId = m01;
layerId = "3D185CF7-BC5B-40EF-ABD9-865994874E40";
name = "Aug 2, 24 at 18:16";
shapes = (
{
closed = 1;
nodes = (
(338,35,l),
(200,364,ls),
(175,423,o),
(189,446,o),
(273,452,c),
(273,499,l),
(20,499,l),
(20,450,l),
(44,446,o),
(57,439,o),
(91,364,cs),
(287,-66,l)
);
},
{
closed = 1;
nodes = (
(221,-295,l),
(503,361,ls),
(534,434,o),
(545,448,o),
(579,452,c),
(579,499,l),
(357,499,l),
(357,452,l),
(443,446,o),
(461,421,o),
(435,361,cs),
(170,-257,l)
);
},
{
closed = 1;
nodes = (
(135,-327,l),
(145,-354,l),
(226,-354,l),
(356,24,l),
(279,-7,l)
);
}
);
visible = 1;
width = 600;
},
{
anchors = (
{
name = bottom;
pos = (300,0);
},
{
name = top;
pos = (312,500);
}
);
layerId = m01;
name = Regular;
shapes = (
{
closed = 1;
nodes = (
(503,367,ls),
(534,440,o),
(565,454,o),
(589,458,c),
(589,499,l),
(347,499,l),
(347,458,l),
(430,452,o),
(453,427,o),
(427,367,cs),
(162,-257,l),
(221,-295,l)
);
},
{
closed = 1;
nodes = (
(202,-354,l),
(336,-26,l),
(279,-7,l),
(108,-327,l),
(111,-354,l)
);
},
{
closed = 1;
nodes = (
(341,30,l),
(199,370,ls),
(174,429,o),
(202,452,o),
(283,458,c),
(283,499,l),
(10,499,l),
(10,456,l),
(34,452,o),
(57,445,o),
(91,370,cs),
(287,-66,l)
);
}
);
width = 599;
},
{
associatedMasterId = m01;
layerId = "C66E34C7-E3AB-4F10-A95B-989C17498DC7";
name = "Aug 3, 24 at 23:06";
shapes = (
{
closed = 1;
nodes = (
(503,361,ls),
(534,434,o),
(545,448,o),
(579,452,c),
(579,499,l),
(357,499,l),
(357,452,l),
(443,446,o),
(461,421,o),
(435,361,cs),
(170,-257,l),
(221,-295,l)
);
},
{
closed = 1;
nodes = (
(218,-354,l),
(336,-26,l),
(279,-7,l),
(110,-327,l),
(125,-354,l)
);
},
{
closed = 1;
nodes = (
(338,35,l),
(200,364,ls),
(175,423,o),
(189,446,o),
(273,452,c),
(273,499,l),
(20,499,l),
(20,450,l),
(44,446,o),
(57,439,o),
(91,364,cs),
(287,-66,l)
);
}
);
width = 600;
}
);
unicode = 121;
},
{
glyphname = z;
lastChange = "2024-09-16 04:36:38 +0000";
layers = (
{
layerId = m01;
shapes = (
{
closed = 1;
nodes = (
(478,0,l),
(518,174,l),
(473,174,l),
(437,105,o),
(400,88,o),
(362,87,cs),
(159,84,l),
(499,442,l),
(499,500,l),
(87,500,l),
(50,322,l),
(98,322,l),
(119,397,o),
(147,414,o),
(195,414,cs),
(387,414,l),
(40,57,l),
(40,0,l)
);
}
);
width = 548;
},
{
associatedMasterId = m01;
layerId = "C8E5517C-225F-4820-A2BC-05941D8DA3CC";
name = "Sep 15, 24 at 21:35";
shapes = (
{
closed = 1;
nodes = (
(478,0,l),
(518,174,l),
(473,174,l),
(437,105,o),
(400,88,o),
(362,87,cs),
(167,84,l),
(499,452,l),
(499,500,l),
(87,500,l),
(50,322,l),
(98,322,l),
(119,397,o),
(147,414,o),
(195,414,cs),
(381,414,l),
(40,47,l),
(40,0,l)
);
}
);
width = 548;
}
);
unicode = 122;
},
{
glyphname = zero;
lastChange = "2024-08-23 22:19:52 +0000";
layers = (
{
associatedMasterId = m01;
layerId = "7CAC40A4-535D-4C1A-802F-940E03FC0680";
name = "Aug 13, 24 at 20:53";
shapes = (
{
closed = 1;
nodes = (
(482,-16,o),
(583,155,o),
(583,401,cs),
(583,647,o),
(482,819,o),
(313,819,cs),
(144,819,o),
(40,647,o),
(40,401,cs),
(40,155,o),
(144,-16,o),
(313,-16,cs)
);
},
{
closed = 1;
nodes = (
(237,59,o),
(150,191,o),
(150,439,cs),
(150,655,o),
(207,744,o),
(305,744,cs),
(405,744,o),
(473,633,o),
(473,363,cs),
(473,145,o),
(408,59,o),
(321,59,cs)
);
}
);
width = 623;
},
{
layerId = m01;
name = Regular;
shapes = (
{
closed = 1;
nodes = (
(487,-16,o),
(603,145,o),
(603,401,cs),
(603,657,o),
(487,819,o),
(323,819,cs),
(159,819,o),
(40,657,o),
(40,401,cs),
(40,145,o),
(159,-16,o),
(323,-16,cs)
);
},
{
closed = 1;
nodes = (
(234,61,o),
(153,185,o),
(153,401,cs),
(153,617,o),
(234,742,o),
(323,742,cs),
(412,742,o),
(490,617,o),
(490,401,cs),
(490,185,o),
(412,61,o),
(323,61,cs)
);
}
);
width = 643;
}
);
unicode = 48;
},
{
glyphname = one;
lastChange = "2024-08-23 22:19:52 +0000";
layers = (
{
layerId = m01;
shapes = (
{
closed = 1;
nodes = (
(435,0,l),
(435,57,l),
(346,64,o),
(309,107,o),
(309,165,cs),
(309,816,l),
(263,816,l),
(30,633,l),
(52,570,l),
(215,655,l),
(212,165,ls),
(212,107,o),
(165,64,o),
(76,57,c),
(76,0,l)
);
}
);
width = 475;
}
);
unicode = 49;
},
{
glyphname = two;
lastChange = "2024-08-23 22:19:52 +0000";
layers = (
{
backgroundImage = {
imagePath = "../../Desktop/Screenshot 2024-08-09 at 3.18.12 PM.png";
locked = 1;
pos = (-39,-54);
scale = (7.6674,7.6674);
};
layerId = m01;
shapes = (
{
closed = 1;
nodes = (
(550,0,l),
(602,217,l),
(548,217,l),
(519,146,o),
(481,98,o),
(408,98,cs),
(168,98,l),
(367,318,o),
(566,433,o),
(563,609,cs),
(561,742,o),
(464,817,o),
(323,817,cs),
(231,817,o),
(109,755,o),
(55,594,c),
(110,565,l),
(162,664,o),
(226,717,o),
(298,717,cs),
(365,717,o),
(441,662,o),
(441,578,cs),
(441,455,o),
(306,361,o),
(50,60,c),
(50,0,l)
);
}
);
width = 652;
}
);
unicode = 50;
},
{
glyphname = three;
lastChange = "2024-08-23 22:35:42 +0000";
layers = (
{
backgroundImage = {
imagePath = "../../Desktop/Screenshot 2024-08-09 at 3.36.35 PM.png";
locked = 1;
pos = (-37,-65);
scale = (8.4995,8.4995);
};
layerId = m01;
shapes = (
{
closed = 1;
nodes = (
(438,-20,o),
(568,89,o),
(568,245,cs),
(568,358,o),
(475,442,o),
(315,466,c),
(326,443,l),
(459,488,o),
(522,562,o),
(522,648,cs),
(522,746,o),
(448,824,o),
(312,824,cs),
(187,824,o),
(99,750,o),
(74,660,c),
(119,638,l),
(166,714,o),
(215,745,o),
(288,745,cs),
(363,745,o),
(414,700,o),
(414,625,cs),
(414,551,o),
(293,477,o),
(186,449,c),
(192,405,l),
(363,385,o),
(446,324,o),
(446,218,cs),
(446,119,o),
(375,54,o),
(286,54,cs),
(201,54,o),
(126,88,o),
(84,207,c),
(30,207,l),
(60,51,l),
(118,10,o),
(164,-20,o),
(267,-20,cs)
);
}
);
width = 608;
},
{
associatedMasterId = m01;
backgroundImage = {
imagePath = "../../Desktop/Screenshot 2024-08-09 at 3.36.35 PM.png";
locked = 1;
pos = (-31,-65);
scale = (8.4995,8.4995);
};
layerId = "EF85B288-572E-4E1D-BD84-CA0E7E530862";
name = "Aug 9, 24 at 15:49";
shapes = (
{
closed = 1;
nodes = (
(119,646,l),
(166,722,o),
(209,750,o),
(282,750,cs),
(349,750,o),
(420,698,o),
(420,629,cs),
(420,555,o),
(342,463,o),
(235,464,c),
(228,417,l),
(422,417,o),
(470,289,o),
(470,216,cs),
(470,109,o),
(388,43,o),
(306,43,cs),
(219,43,o),
(155,64,o),
(113,183,c),
(56,181,l),
(86,41,l),
(144,0,o),
(190,-20,o),
(293,-20,cs),
(429,-20,o),
(584,64,o),
(584,247,cs),
(584,376,o),
(485,452,o),
(341,476,c),
(342,453,l),
(465,508,o),
(518,580,o),
(518,658,cs),
(518,757,o),
(439,824,o),
(318,824,cs),
(193,824,o),
(115,750,o),
(80,660,c)
);
}
);
width = 600;
},
{
associatedMasterId = m01;
backgroundImage = {
imagePath = "../../Desktop/Screenshot 2024-08-09 at 3.36.35 PM.png";
locked = 1;
pos = (-31,-65);
scale = (8.4995,8.4995);
};
layerId = "3F1BCFFF-F6D5-4AFA-B2FD-AC474D06C09C";
name = "Aug 9, 24 at 15:57";
shapes = (
{
closed = 1;
nodes = (
(120,633,l),
(177,709,o),
(229,747,o),
(302,747,cs),
(369,747,o),
(424,698,o),
(424,629,cs),
(424,555,o),
(329,477,o),
(232,459,c),
(238,425,l),
(409,395,o),
(454,317,o),
(454,211,cs),
(454,112,o),
(382,52,o),
(286,54,cs),
(199,56,o),
(132,78,o),
(90,197,c),
(36,197,l),
(66,51,l),
(124,10,o),
(170,-20,o),
(273,-20,cs),
(444,-20,o),
(574,79,o),
(574,226,cs),
(574,361,o),
(491,429,o),
(351,476,c),
(352,453,l),
(475,508,o),
(528,580,o),
(528,658,cs),
(528,757,o),
(449,824,o),
(328,824,cs),
(203,824,o),
(125,750,o),
(80,660,c)
);
}
);
width = 600;
}
);
unicode = 51;
},
{
glyphname = four;
lastChange = "2024-08-23 22:35:42 +0000";
layers = (
{
associatedMasterId = m01;
backgroundImage = {
angle = -3.1;
imagePath = "../../Desktop/Screenshot 2024-08-09 at 4.09.35 PM.png";
locked = 1;
pos = (-115,-43);
scale = (6.9494,6.9494);
};
layerId = "045CCC73-A916-4736-88FC-17F36F460641";
name = "Aug 19, 24 at 21:13";
shapes = (
{
closed = 1;
nodes = (
(501,0,l),
(501,820,l),
(405,810,l),
(40,305,l),
(40,239,l),
(642,239,l),
(642,318,l),
(134,318,l),
(395,685,l),
(395,0,l)
);
},
{
closed = 1;
nodes = (
(645,239,l),
(675,391,l),
(621,391,l),
(611,344,o),
(576,318,o),
(533,318,c),
(533,239,l)
);
}
);
width = 672;
},
{
associatedMasterId = m01;
backgroundImage = {
angle = -3.1;
imagePath = "../../Desktop/Screenshot 2024-08-09 at 4.09.35 PM.png";
locked = 1;
pos = (-115,-43);
scale = (6.9494,6.9494);
};
layerId = "4676BA37-B811-46B8-8EE8-75DB5B7F97DF";
name = "Aug 19, 24 at 21:13";
shapes = (
{
closed = 1;
nodes = (
(599,0,l),
(599,47,l),
(535,52,o),
(495,85,o),
(495,144,cs),
(495,243,l),
(554,243,ls),
(614,243,o),
(643,215,o),
(651,162,c),
(688,162,l),
(688,392,l),
(651,392,l),
(646,338,o),
(613,318,o),
(554,318,cs),
(495,318,l),
(495,810,l),
(405,810,l),
(40,305,l),
(40,243,l),
(395,243,l),
(395,144,ls),
(395,84,o),
(357,55,o),
(284,47,c),
(284,0,l)
);
},
{
closed = 1;
nodes = (
(395,686,l),
(395,318,l),
(133,318,l)
);
}
);
width = 696;
},
{
backgroundImage = {
angle = -3.1;
imagePath = "../../Desktop/Screenshot 2024-08-09 at 4.09.35 PM.png";
locked = 1;
pos = (-115,-43);
scale = (6.9494,6.9494);
};
layerId = m01;
name = Regular;
shapes = (
{
closed = 1;
nodes = (
(501,0,l),
(501,820,l),
(405,810,l),
(40,305,l),
(40,239,l),
(642,239,l),
(642,318,l),
(134,318,l),
(395,685,l),
(395,0,l)
);
}
);
width = 672;
}
);
unicode = 52;
},
{
glyphname = five;
lastChange = "2024-08-23 22:19:52 +0000";
layers = (
{
backgroundImage = {
angle = -2.1;
imagePath = "../../Desktop/Screenshot 2024-08-09 at 4.22.17 PM.png";
locked = 1;
pos = (-49,-69);
scale = (7.8609,7.8609);
};
layerId = m01;
shapes = (
{
closed = 1;
nodes = (
(470,-18,o),
(587,109,o),
(583,263,cs),
(579,424,o),
(451,544,o),
(186,523,c),
(210,698,l),
(523,698,l),
(546,800,l),
(138,800,l),
(85,433,l),
(111,410,l),
(353,468,o),
(467,350,o),
(467,225,cs),
(467,124,o),
(398,55,o),
(308,55,cs),
(211,55,o),
(134,112,o),
(104,230,c),
(40,230,l),
(69,63,l),
(123,18,o),
(198,-18,o),
(292,-18,cs)
);
}
);
width = 643;
},
{
associatedMasterId = m01;
backgroundImage = {
angle = -2.1;
imagePath = "../../Desktop/Screenshot 2024-08-09 at 4.22.17 PM.png";
locked = 1;
pos = (-54,-69);
scale = (7.8609,7.8609);
};
layerId = "FC4054D1-FA62-41E8-A676-2AC61ECB5E3C";
name = "Aug 9, 24 at 16:38";
shapes = (
{
closed = 1;
nodes = (
(544,700,l),
(577,840,l),
(540,840,l),
(502,800,l),
(183,800,l),
(110,475,l),
(136,452,l),
(336,452,o),
(462,369,o),
(462,245,cs),
(462,148,o),
(394,67,o),
(300,67,cs),
(193,67,o),
(129,102,o),
(99,220,c),
(45,220,l),
(64,73,l),
(108,13,o),
(173,-18,o),
(274,-18,cs),
(466,-18,o),
(582,113,o),
(582,283,cs),
(582,404,o),
(461,544,o),
(194,548,c),
(232,700,l)
);
}
);
width = 640;
},
{
associatedMasterId = m01;
backgroundImage = {
angle = -2.1;
imagePath = "../../Desktop/Screenshot 2024-08-09 at 4.22.17 PM.png";
locked = 1;
pos = (-49,-69);
scale = (7.8609,7.8609);
};
layerId = "98909436-C668-4C10-9C02-E69FC76BBFF6";
name = "Aug 9, 24 at 21:35";
shapes = (
{
closed = 1;
nodes = (
(461,-18,o),
(583,103,o),
(583,263,cs),
(583,394,o),
(473,519,o),
(206,539,c),
(244,700,l),
(549,700,l),
(586,850,l),
(525,850,l),
(511,817,o),
(485,800,o),
(431,800,cs),
(188,800,l),
(115,465,l),
(141,442,l),
(341,432,o),
(465,349,o),
(465,225,cs),
(465,124,o),
(398,57,o),
(308,57,cs),
(211,57,o),
(134,102,o),
(104,220,c),
(50,220,l),
(79,53,l),
(133,8,o),
(208,-18,o),
(290,-18,cs)
);
}
);
width = 646;
}
);
unicode = 53;
},
{
glyphname = six;
lastChange = "2024-08-23 22:35:42 +0000";
layers = (
{
backgroundImage = {
imagePath = "../../Desktop/Screenshot 2024-08-09 at 5.06.45 PM.png";
locked = 1;
pos = (-79,-77);
scale = (5.5117,5.5117);
};
layerId = m01;
shapes = (
{
closed = 1;
nodes = (
(469,-20,o),
(588,106,o),
(588,257,cs),
(588,395,o),
(492,486,o),
(350,486,cs),
(235,486,o),
(153,397,o),
(138,311,c),
(151,286,l),
(182,359,o),
(248,406,o),
(327,406,cs),
(400,406,o),
(476,344,o),
(476,226,cs),
(476,130,o),
(408,54,o),
(332,54,cs),
(211,54,o),
(164,167,o),
(164,306,cs),
(164,566,o),
(273,718,o),
(526,777,c),
(514,837,l),
(198,791,o),
(50,550,o),
(50,294,cs),
(50,78,o),
(172,-20,o),
(312,-20,cs)
);
}
);
width = 628;
},
{
associatedMasterId = m01;
backgroundImage = {
imagePath = "../../Desktop/Screenshot 2024-08-09 at 5.06.45 PM.png";
locked = 1;
pos = (-55,-77);
scale = (5.5117,5.5117);
};
layerId = "2C6B1D04-AD39-4687-9096-4A11274A30E2";
name = "Aug 9, 24 at 17:17";
shapes = (
{
closed = 1;
nodes = (
(538,837,l),
(182,771,o),
(74,510,o),
(74,294,cs),
(74,68,o),
(224,-20,o),
(354,-20,cs),
(491,-20,o),
(622,106,o),
(622,257,cs),
(622,415,o),
(526,496,o),
(384,496,cs),
(299,496,o),
(197,437,o),
(155,344,c),
(168,319,l),
(226,389,o),
(282,411,o),
(361,411,cs),
(454,411,o),
(512,364,o),
(512,226,cs),
(512,120,o),
(454,58,o),
(368,58,cs),
(237,58,o),
(193,157,o),
(193,306,cs),
(193,526,o),
(257,698,o),
(550,777,c)
);
}
);
width = 700;
}
);
unicode = 54;
},
{
glyphname = seven;
lastChange = "2024-08-23 22:35:42 +0000";
layers = (
{
backgroundImage = {
imagePath = "../../Desktop/Screenshot 2024-08-09 at 5.20.42 PM.png";
locked = 1;
pos = (-15,-126);
scale = (11.4541,11.4541);
};
layerId = m01;
shapes = (
{
closed = 1;
nodes = (
(259,-19,l),
(359,235,o),
(459,490,o),
(579,724,c),
(580,800,l),
(65,800,l),
(20,604,l),
(87,604,l),
(108,679,o),
(144,698,o),
(201,698,cs),
(495,698,l),
(154,22,l),
(154,-19,l)
);
}
);
width = 620;
}
);
unicode = 55;
},
{
glyphname = eight;
lastChange = "2024-08-23 22:19:52 +0000";
layers = (
{
layerId = m01;
shapes = (
{
closed = 1;
nodes = (
(460,-18,o),
(564,101,o),
(566,215,cs),
(570,480,o),
(166,427,o),
(166,619,cs),
(166,689,o),
(221,748,o),
(297,748,cs),
(382,748,o),
(452,689,o),
(452,608,cs),
(452,540,o),
(412,490,o),
(315,440,c),
(346,418,l),
(483,476,o),
(533,535,o),
(533,634,cs),
(533,738,o),
(429,816,o),
(312,816,cs),
(154,816,o),
(66,696,o),
(66,599,cs),
(66,358,o),
(460,421,o),
(460,197,cs),
(460,116,o),
(398,61,o),
(302,61,cs),
(211,61,o),
(133,120,o),
(133,215,cs),
(133,302,o),
(200,373,o),
(278,409,c),
(240,430,l),
(121,378,o),
(40,308,o),
(40,187,cs),
(40,79,o),
(152,-18,o),
(286,-18,cs)
);
}
);
width = 606;
}
);
unicode = 56;
},
{
glyphname = zero.osf;
lastChange = "2024-08-23 22:19:52 +0000";
layers = (
{
background = {
shapes = (
{
closed = 1;
nodes = (
(170,78,o),
(118,189,o),
(150,310,cs),
(177,412,o),
(245,462,o),
(323,441,cs),
(424,414,o),
(468,297,o),
(437,183,cs),
(411,85,o),
(346,31,o),
(261,54,cs)
);
}
);
};
layerId = m01;
shapes = (
{
closed = 1;
nodes = (
(448,-7,o),
(546,110,o),
(546,279,cs),
(546,447,o),
(448,564,o),
(293,564,cs),
(139,564,o),
(39,447,o),
(39,279,cs),
(39,110,o),
(139,-7,o),
(293,-7,cs)
);
},
{
closed = 1;
nodes = (
(204,63,o),
(148,146,o),
(148,278,cs),
(148,410,o),
(204,492,o),
(294,492,cs),
(385,492,o),
(441,410,o),
(441,278,cs),
(441,146,o),
(385,63,o),
(294,63,cs)
);
}
);
width = 590;
},
{
associatedMasterId = m01;
layerId = "F84EC8F9-8739-4433-8261-AB5D1742C1EA";
name = "Aug 19, 24 at 21:00";
shapes = (
{
closed = 1;
nodes = (
(501,-11,o),
(619,122,o),
(619,281,cs),
(619,440,o),
(501,573,o),
(342,573,cs),
(182,573,o),
(64,440,o),
(64,281,cs),
(64,122,o),
(182,-11,o),
(342,-11,cs)
);
},
{
closed = 1;
nodes = (
(229,78,o),
(154,167,o),
(154,279,cs),
(154,393,o),
(229,482,o),
(341,482,cs),
(454,482,o),
(530,393,o),
(530,279,cs),
(530,167,o),
(454,78,o),
(341,78,cs)
);
}
);
width = 683;
}
);
},
{
glyphname = one.osf;
lastChange = "2024-08-23 22:19:52 +0000";
layers = (
{
layerId = m01;
shapes = (
{
closed = 1;
nodes = (
(412,0,l),
(412,47,l),
(333,54,o),
(296,97,o),
(296,155,cs),
(296,596,l),
(250,596,l),
(40,473,l),
(52,425,l),
(205,460,l),
(202,155,ls),
(201,97,o),
(155,54,o),
(66,47,c),
(66,0,l)
);
}
);
width = 442;
}
);
},
{
glyphname = two.osf;
lastChange = "2024-08-23 22:19:52 +0000";
layers = (
{
layerId = m01;
shapes = (
{
closed = 1;
nodes = (
(456,0,l),
(497,178,l),
(447,178,l),
(420,113,o),
(392,88,o),
(326,87,cs),
(141,84,l),
(287,218,o),
(447,302,o),
(447,437,cs),
(447,521,o),
(387,594,o),
(257,594,cs),
(146,594,o),
(72,539,o),
(44,411,c),
(90,397,l),
(113,456,o),
(154,515,o),
(234,515,cs),
(304,515,o),
(337,465,o),
(337,408,cs),
(337,306,o),
(204,230,o),
(30,55,c),
(30,0,l)
);
}
);
width = 537;
}
);
},
{
glyphname = three.osf;
lastChange = "2024-08-24 23:25:37 +0000";
layers = (
{
associatedMasterId = m01;
layerId = "79C9B218-E053-43FE-A1A6-AC30205E0A49";
name = "Aug 24, 24 at 16:25";
shapes = (
{
closed = 1;
nodes = (
(269,-296,o),
(522,-207,o),
(522,33,cs),
(522,138,o),
(431,243,o),
(273,238,c),
(274,215,l),
(399,269,o),
(485,359,o),
(485,438,cs),
(485,524,o),
(420,588,o),
(301,588,cs),
(185,588,o),
(106,519,o),
(81,437,c),
(124,416,l),
(169,479,o),
(222,514,o),
(278,514,cs),
(338,514,o),
(389,468,o),
(389,399,cs),
(389,330,o),
(263,247,o),
(164,221,c),
(170,180,l),
(339,181,o),
(410,103,o),
(410,7,cs),
(410,-172,o),
(208,-217,o),
(87,-227,c),
(89,-287,l)
);
}
);
width = 562;
},
{
layerId = m01;
name = Regular;
shapes = (
{
closed = 1;
nodes = (
(419,-186,o),
(522,-87,o),
(522,43,cs),
(522,148,o),
(431,243,o),
(293,258,c),
(294,235,l),
(399,269,o),
(485,359,o),
(485,438,cs),
(485,524,o),
(420,588,o),
(301,588,cs),
(185,588,o),
(106,519,o),
(81,437,c),
(124,416,l),
(169,479,o),
(222,514,o),
(278,514,cs),
(338,514,o),
(389,468,o),
(389,399,cs),
(389,330,o),
(283,267,o),
(184,241,c),
(190,200,l),
(339,181,o),
(410,113,o),
(410,17,cs),
(410,-72,o),
(338,-117,o),
(267,-117,cs),
(208,-117,o),
(139,-87,o),
(100,23,c),
(40,23,l),
(68,-121,l),
(122,-159,o),
(174,-187,o),
(249,-187,cs)
);
}
);
width = 562;
}
);
},
{
glyphname = four.osf;
lastChange = "2024-08-23 22:19:52 +0000";
layers = (
{
layerId = m01;
shapes = (
{
closed = 1;
nodes = (
(440,-186,l),
(440,589,l),
(349,589,l),
(30,167,l),
(30,64,l),
(583,64,l),
(582,143,l),
(93,143,l),
(340,464,l),
(340,-186,l)
);
}
);
width = 603;
}
);
},
{
glyphname = five.osf;
lastChange = "2024-08-24 23:25:35 +0000";
layers = (
{
associatedMasterId = m01;
layerId = "A977CFAB-0005-4F85-A737-5FEBACB12582";
name = "Aug 24, 24 at 16:25";
shapes = (
{
closed = 1;
nodes = (
(263,-301,o),
(533,-218,o),
(533,37,cs),
(533,207,o),
(385,284,o),
(155,305,c),
(183,473,l),
(482,473,l),
(526,629,l),
(472,629,l),
(457,588,o),
(429,572,o),
(374,572,cs),
(129,572,l),
(71,229,l),
(95,208,l),
(304,209,o),
(415,148,o),
(415,6,cs),
(415,-179,o),
(175,-232,o),
(81,-242,c),
(94,-311,l)
);
}
);
width = 600;
},
{
layerId = m01;
name = Regular;
shapes = (
{
closed = 1;
nodes = (
(423,-191,o),
(533,-78,o),
(533,67,cs),
(533,237,o),
(385,334,o),
(155,305,c),
(183,473,l),
(482,473,l),
(526,629,l),
(472,629,l),
(457,588,o),
(429,572,o),
(374,572,cs),
(129,572,l),
(71,229,l),
(95,208,l),
(304,259,o),
(415,188,o),
(415,46,cs),
(415,-49,o),
(365,-122,o),
(281,-122,cs),
(190,-122,o),
(128,-79,o),
(100,31,c),
(40,31,l),
(67,-125,l),
(117,-167,o),
(187,-191,o),
(264,-191,cs)
);
}
);
width = 600;
}
);
},
{
glyphname = six.osf;
lastChange = "2024-08-23 22:19:52 +0000";
layers = (
{
layerId = m01;
shapes = (
{
closed = 1;
nodes = (
(434,-15,o),
(558,106,o),
(558,251,cs),
(558,384,o),
(465,471,o),
(329,471,cs),
(218,471,o),
(139,385,o),
(125,303,c),
(138,279,l),
(167,349,o),
(231,392,o),
(307,392,cs),
(377,392,o),
(450,335,o),
(450,221,cs),
(450,129,o),
(385,58,o),
(311,58,cs),
(195,58,o),
(150,164,o),
(150,298,cs),
(150,548,o),
(275,684,o),
(488,761,c),
(476,818,l),
(203,754,o),
(40,532,o),
(40,286,cs),
(40,79,o),
(158,-15,o),
(292,-15,cs)
);
}
);
width = 588;
}
);
},
{
glyphname = seven.osf;
lastChange = "2024-08-23 22:19:52 +0000";
layers = (
{
layerId = m01;
shapes = (
{
closed = 1;
nodes = (
(250,-203,l),
(346,41,o),
(442,276,o),
(557,501,c),
(558,574,l),
(83,574,l),
(40,385,l),
(94,385,l),
(126,465,o),
(149,475,o),
(204,475,cs),
(476,475,l),
(150,-164,l),
(150,-203,l)
);
}
);
width = 588;
}
);
},
{
glyphname = eight.osf;
lastChange = "2024-08-23 22:19:52 +0000";
layers = (
{
layerId = m01;
shapes = (
{
closed = 1;
nodes = (
(433,-20,o),
(533,94,o),
(535,204,cs),
(540,460,o),
(152,410,o),
(152,595,cs),
(152,667,o),
(206,715,o),
(277,715,cs),
(362,715,o),
(426,658,o),
(426,582,cs),
(426,516,o),
(388,469,o),
(295,420,c),
(324,399,l),
(456,455,o),
(504,511,o),
(504,607,cs),
(504,707,o),
(404,782,o),
(292,782,cs),
(140,782,o),
(56,677,o),
(56,576,cs),
(56,345,o),
(434,402,o),
(434,187,cs),
(434,109,o),
(374,57,o),
(282,57,cs),
(195,57,o),
(119,113,o),
(119,204,cs),
(119,288,o),
(184,356,o),
(259,391,c),
(222,410,l),
(108,361,o),
(30,293,o),
(30,177,cs),
(30,74,o),
(138,-20,o),
(267,-20,cs)
);
}
);
width = 565;
}
);
},
{
glyphname = period;
kernLeft = bpunc;
kernRight = bpunc;
lastChange = "2024-09-16 04:41:56 +0000";
layers = (
{
associatedMasterId = m01;
background = {
shapes = (
{
closed = 1;
nodes = (
(224,17,o),
(256,49,o),
(256,87,cs),
(256,124,o),
(224,156,o),
(187,156,cs),
(150,156,o),
(118,124,o),
(118,87,cs),
(118,49,o),
(150,17,o),
(187,17,cs)
);
}
);
};
layerId = "5FF13195-1F81-4767-A937-434C65E52424";
name = "Aug 3, 24 at 10:17";
shapes = (
{
closed = 1;
nodes = (
(223,39,o),
(226,42,o),
(314,88,c),
(226,134,o),
(223,137,o),
(177,225,c),
(131,137,o),
(128,134,o),
(40,88,c),
(128,42,o),
(131,39,o),
(177,-49,c)
);
}
);
width = 374;
},
{
associatedMasterId = m01;
background = {
shapes = (
{
closed = 1;
nodes = (
(258,17,o),
(290,49,o),
(290,87,cs),
(290,124,o),
(258,156,o),
(221,156,cs),
(184,156,o),
(152,124,o),
(152,87,cs),
(152,49,o),
(184,17,o),
(221,17,cs)
);
}
);
};
layerId = "ABC6CD11-07A5-4003-9D26-0F0B4DCF8985";
name = "Aug 8, 24 at 20:41";
shapes = (
{
closed = 1;
nodes = (
(232,-46,l),
(271,38,l),
(357,77,l),
(357,96,l),
(271,135,l),
(231,221,l),
(210,221,l),
(171,135,l),
(90,99,l),
(90,75,l),
(171,38,l),
(208,-46,l)
);
}
);
width = 447;
},
{
background = {
shapes = (
{
closed = 1;
nodes = (
(237,17,o),
(269,49,o),
(269,87,cs),
(269,124,o),
(237,156,o),
(200,156,cs),
(163,156,o),
(131,124,o),
(131,87,cs),
(131,49,o),
(163,17,o),
(200,17,cs)
);
}
);
};
layerId = m01;
name = Regular;
shapes = (
{
closed = 1;
nodes = (
(243,-14,o),
(281,24,o),
(281,70,cs),
(281,115,o),
(243,153,o),
(198,153,cs),
(153,153,o),
(115,115,o),
(115,70,cs),
(115,24,o),
(153,-14,o),
(198,-14,cs)
);
}
);
width = 396;
}
);
unicode = 46;
},
{
glyphname = comma;
kernLeft = bpunc;
kernRight = bpunc;
lastChange = "2024-09-08 04:35:30 +0000";
layers = (
{
associatedMasterId = m01;
background = {
shapes = (
{
closed = 1;
nodes = (
(135,137,o),
(132,134,o),
(54,93,c),
(132,52,o),
(135,49,o),
(176,-29,c),
(217,49,o),
(220,52,o),
(298,93,c),
(220,134,o),
(217,137,o),
(176,215,c)
);
}
);
};
backgroundImage = {
imagePath = "../../Desktop/Screenshot 2024-08-03 at 9.20.14 AM.png";
locked = 1;
pos = (-12,-216);
scale = (3.3619,3.3619);
};
layerId = "321949F9-5B72-4728-AF01-1B7B00D2AA16";
name = "Aug 3, 24 at 09:27";
shapes = (
{
closed = 1;
nodes = (
(96,145,l),
(83,133,l)
);
},
{
closed = 1;
nodes = (
(83,133,l),
(108,98,o),
(110,63,o),
(88,27,c),
(125,17,o),
(149,-13,o),
(149,-61,cs),
(149,-104,o),
(107,-149,o),
(19,-167,c),
(33,-197,l),
(156,-191,o),
(260,-94,o),
(260,4,cs),
(260,64,o),
(240,122,o),
(194,150,c),
(164,127,o),
(128,125,o),
(96,145,c)
);
}
);
width = 297;
},
{
associatedMasterId = m01;
background = {
shapes = (
{
closed = 1;
nodes = (
(91,75,l),
(172,38,l),
(209,-46,l),
(233,-46,l),
(272,38,l),
(358,77,l),
(358,96,l),
(272,135,l),
(232,221,l),
(211,221,l),
(172,135,l),
(91,99,l)
);
}
);
};
layerId = "6C0B85DB-E5E3-4451-98FD-B1DAB748D890";
name = "Aug 23, 24 at 15:58";
shapes = (
{
closed = 1;
nodes = (
(224,-149,o),
(275,-61,o),
(275,27,cs),
(275,99,o),
(236,152,o),
(199,161,c),
(100,104,l),
(100,61,l),
(134,50,o),
(169,8,o),
(169,-34,cs),
(169,-79,o),
(153,-122,o),
(70,-159,c),
(88,-198,l)
);
}
);
width = 396;
},
{
background = {
shapes = (
{
closed = 1;
nodes = (
(224,-149,o),
(275,-61,o),
(275,27,cs),
(275,99,o),
(236,152,o),
(199,161,c),
(100,104,l),
(100,61,l),
(134,50,o),
(169,8,o),
(169,-34,cs),
(169,-79,o),
(153,-122,o),
(70,-159,c),
(88,-198,l)
);
}
);
};
layerId = m01;
name = Regular;
shapes = (
{
closed = 1;
nodes = (
(231,-155,o),
(281,-70,o),
(281,18,cs),
(281,105,o),
(230,155,o),
(181,155,cs),
(129,155,o),
(100,123,o),
(101,79,cs),
(102,15,o),
(182,27,o),
(182,-34,cs),
(182,-70,o),
(153,-122,o),
(76,-157,c),
(98,-198,l)
);
}
);
width = 396;
}
);
unicode = 44;
},
{
glyphname = exclam;
lastChange = "2024-08-25 02:08:00 +0000";
layers = (
{
layerId = m01;
shapes = (
{
closed = 1;
nodes = (
(212,264,l),
(218,448,o),
(244,629,o),
(251,734,cs),
(259,848,o),
(114,848,o),
(122,734,cs),
(129,629,o),
(154,448,o),
(160,264,c)
);
},
{
pos = (-15,0);
ref = period;
}
);
width = 366;
}
);
unicode = 33;
},
{
glyphname = question;
lastChange = "2024-08-25 02:07:55 +0000";
layers = (
{
background = {
shapes = (
{
closed = 1;
nodes = (
(226,263,l),
(226,441,l),
(199,404,l),
(281,416,o),
(411,482,o),
(411,628,cs),
(411,755,o),
(271,837,o),
(166,817,cs),
(115,807,o),
(94,781,o),
(106,744,c),
(248,735,o),
(315,690,o),
(315,604,cs),
(315,545,o),
(294,486,o),
(181,467,c),
(133,421,l),
(171,263,l)
);
}
);
};
backgroundImage = {
angle = -4.1;
imagePath = "../../Desktop/Screenshot 2024-08-19 at 10.19.48 PM.png";
locked = 1;
pos = (-118,42);
scale = (3.5774,3.5774);
};
guides = (
{
pos = (353,263);
}
);
layerId = m01;
shapes = (
{
closed = 1;
nodes = (
(237,275,l),
(233,290,o),
(233,307,o),
(234,326,cs),
(238,446,o),
(429,444,o),
(435,611,cs),
(439,730,o),
(321,805,o),
(198,809,cs),
(132,811,o),
(85,780,o),
(91,718,c),
(126,681,l),
(234,703,o),
(364,667,o),
(361,597,cs),
(359,531,o),
(170,495,o),
(165,363,cs),
(164,331,o),
(177,286,o),
(197,265,c)
);
},
{
pos = (18,0);
ref = period;
}
);
width = 495;
},
{
associatedMasterId = m01;
background = {
shapes = (
{
closed = 1;
nodes = (
(241,243,l),
(246,459,l),
(148,424,l),
(195,243,l)
);
}
);
};
backgroundImage = {
imagePath = "../../Desktop/Screenshot 2024-08-03 at 9.47.25 PM.png";
locked = 1;
pos = (-147,-27);
scale = (4.1771,4.1771);
};
layerId = "1E16CB75-EF8E-4E2A-A48C-DA63EE54AB9D";
name = "Aug 3, 24 at 21:59";
shapes = (
{
closed = 1;
nodes = (
(211,410,o),
(230,389,o),
(275,389,cs),
(365,389,o),
(469,487,o),
(477,586,cs),
(489,715,o),
(353,834,o),
(198,848,c),
(128,805,l),
(127,771,l),
(305,740,o),
(380,630,o),
(377,525,cs),
(375,459,o),
(353,451,o),
(217,489,c),
(148,424,l),
(196,243,l),
(240,244,l),
(246,459,l),
(210,433,l)
);
},
{
closed = 1;
nodes = (
(232,-46,l),
(271,38,l),
(357,77,l),
(357,96,l),
(271,135,l),
(231,201,l),
(210,201,l),
(171,135,l),
(90,99,l),
(90,75,l),
(171,38,l),
(208,-46,l)
);
}
);
width = 600;
},
{
associatedMasterId = m01;
backgroundImage = {
imagePath = "../../Desktop/Screenshot 2024-08-03 at 9.47.25 PM.png";
locked = 1;
pos = (-153,-27);
scale = (4.1771,4.1771);
};
layerId = "40E1FB24-3751-4623-BA65-B088B759A466";
name = "Aug 8, 24 at 21:03";
shapes = (
{
pos = (17,0);
ref = period;
},
{
closed = 1;
nodes = (
(238,281,l),
(238,484,l),
(204,429,l),
(219,421,o),
(229,418,o),
(271,418,cs),
(365,418,o),
(463,495,o),
(463,611,cs),
(463,723,o),
(344,817,o),
(198,830,c),
(132,790,l),
(132,758,l),
(300,728,o),
(367,635,o),
(367,536,cs),
(367,474,o),
(334,480,o),
(190,514,c),
(137,460,l),
(193,281,l)
);
}
);
width = 523;
},
{
associatedMasterId = m01;
backgroundImage = {
imagePath = "../../Desktop/Screenshot 2024-08-03 at 9.47.25 PM.png";
locked = 1;
pos = (-158,-27);
scale = (4.1771,4.1771);
};
guides = (
{
pos = (360,263);
}
);
layerId = "8289E5D6-C7A4-49EC-9086-60A328762092";
name = "Aug 19, 24 at 21:18";
shapes = (
{
closed = 1;
nodes = (
(233,263,l),
(233,471,l),
(199,416,l),
(214,408,o),
(224,405,o),
(266,405,cs),
(360,405,o),
(458,482,o),
(458,598,cs),
(458,725,o),
(318,817,o),
(193,817,cs),
(141,817,o),
(121,781,o),
(133,744,c),
(295,715,o),
(362,622,o),
(362,556,cs),
(362,497,o),
(328,459,o),
(188,497,c),
(140,451,l),
(178,263,l)
);
},
{
pos = (25,0);
ref = period;
}
);
width = 518;
}
);
unicode = 63;
},
{
glyphname = bullet;
lastChange = "2024-08-23 22:19:52 +0000";
layers = (
{
guides = (
{
pos = (394,260);
}
);
layerId = m01;
shapes = (
{
closed = 1;
nodes = (
(269,132,o),
(326,189,o),
(326,259,cs),
(326,330,o),
(269,387,o),
(199,387,cs),
(127,387,o),
(70,330,o),
(70,259,cs),
(70,189,o),
(127,132,o),
(199,132,cs)
);
}
);
width = 396;
}
);
unicode = 8226;
},
{
glyphname = numbersign;
lastChange = "2024-08-23 22:19:52 +0000";
layers = (
{
layerId = m01;
shapes = (
{
closed = 1;
nodes = (
(430,0,l),
(590,800,l),
(519,800,l),
(359,0,l)
);
},
{
closed = 1;
nodes = (
(634,234,l),
(634,309,l),
(46,309,l),
(46,234,l)
);
},
{
closed = 1;
nodes = (
(216,0,l),
(376,800,l),
(305,800,l),
(145,0,l)
);
},
{
closed = 1;
nodes = (
(691,488,l),
(691,563,l),
(103,563,l),
(103,488,l)
);
}
);
width = 731;
}
);
unicode = 35;
},
{
glyphname = slash;
lastChange = "2024-08-26 00:23:02 +0000";
layers = (
{
layerId = m01;
shapes = (
{
closed = 1;
nodes = (
(110,-160,l),
(511,860,l),
(421,860,l),
(20,-160,l)
);
}
);
width = 531;
}
);
unicode = 47;
},
{
glyphname = backslash;
lastChange = "2024-08-26 21:56:08 +0000";
layers = (
{
layerId = m01;
shapes = (
{
closed = 1;
nodes = (
(531,-160,l),
(110,860,l),
(20,860,l),
(441,-160,l)
);
}
);
width = 551;
}
);
unicode = 92;
},
{
glyphname = bullet.case;
lastChange = "2024-08-23 23:18:55 +0000";
layers = (
{
guides = (
{
pos = (420,260);
}
);
layerId = m01;
shapes = (
{
closed = 1;
nodes = (
(290,260,o),
(353,323,o),
(353,401,cs),
(353,479,o),
(290,542,o),
(212,542,cs),
(133,542,o),
(70,479,o),
(70,401,cs),
(70,323,o),
(133,260,o),
(212,260,cs)
);
}
);
width = 423;
}
);
},
{
glyphname = slash.case;
lastChange = "2024-08-23 23:18:47 +0000";
layers = (
{
layerId = m01;
shapes = (
{
closed = 1;
nodes = (
(189,-43,l),
(541,860,l),
(451,860,l),
(99,-43,l)
);
}
);
width = 581;
}
);
},
{
glyphname = backslash.case;
lastChange = "2024-08-23 23:18:53 +0000";
layers = (
{
layerId = m01;
shapes = (
{
closed = 1;
nodes = (
(510,-39,l),
(140,860,l),
(50,860,l),
(420,-39,l)
);
}
);
width = 601;
}
);
},
{
glyphname = period.ss01;
kernLeft = bpunc;
kernRight = bpunc;
lastChange = "2024-08-24 21:37:45 +0000";
layers = (
{
background = {
shapes = (
{
closed = 1;
nodes = (
(258,17,o),
(290,49,o),
(290,87,cs),
(290,124,o),
(258,156,o),
(221,156,cs),
(184,156,o),
(152,124,o),
(152,87,cs),
(152,49,o),
(184,17,o),
(221,17,cs)
);
}
);
};
layerId = m01;
name = Regular;
shapes = (
{
closed = 1;
nodes = (
(232,-46,l),
(271,38,l),
(357,77,l),
(357,96,l),
(271,135,l),
(231,221,l),
(210,221,l),
(171,135,l),
(90,99,l),
(90,75,l),
(171,38,l),
(208,-46,l)
);
}
);
width = 447;
},
{
associatedMasterId = m01;
background = {
shapes = (
{
closed = 1;
nodes = (
(224,17,o),
(256,49,o),
(256,87,cs),
(256,124,o),
(224,156,o),
(187,156,cs),
(150,156,o),
(118,124,o),
(118,87,cs),
(118,49,o),
(150,17,o),
(187,17,cs)
);
}
);
};
layerId = "5FF13195-1F81-4767-A937-434C65E52424";
name = "Aug 3, 24 at 10:17";
shapes = (
{
closed = 1;
nodes = (
(223,39,o),
(226,42,o),
(314,88,c),
(226,134,o),
(223,137,o),
(177,225,c),
(131,137,o),
(128,134,o),
(40,88,c),
(128,42,o),
(131,39,o),
(177,-49,c)
);
}
);
width = 374;
}
);
},
{
glyphname = comma.ss01;
kernLeft = bpunc;
kernRight = bpunc;
lastChange = "2024-08-24 21:37:45 +0000";
layers = (
{
associatedMasterId = m01;
background = {
shapes = (
{
closed = 1;
nodes = (
(135,137,o),
(132,134,o),
(54,93,c),
(132,52,o),
(135,49,o),
(176,-29,c),
(217,49,o),
(220,52,o),
(298,93,c),
(220,134,o),
(217,137,o),
(176,215,c)
);
}
);
};
backgroundImage = {
imagePath = "../../Desktop/Screenshot 2024-08-03 at 9.20.14 AM.png";
locked = 1;
pos = (-12,-216);
scale = (3.3619,3.3619);
};
layerId = "321949F9-5B72-4728-AF01-1B7B00D2AA16";
name = "Aug 3, 24 at 09:27";
shapes = (
{
closed = 1;
nodes = (
(96,145,l),
(83,133,l)
);
},
{
closed = 1;
nodes = (
(83,133,l),
(108,98,o),
(110,63,o),
(88,27,c),
(125,17,o),
(149,-13,o),
(149,-61,cs),
(149,-104,o),
(107,-149,o),
(19,-167,c),
(33,-197,l),
(156,-191,o),
(260,-94,o),
(260,4,cs),
(260,64,o),
(240,122,o),
(194,150,c),
(164,127,o),
(128,125,o),
(96,145,c)
);
}
);
width = 297;
},
{
associatedMasterId = m01;
background = {
shapes = (
{
closed = 1;
nodes = (
(224,-149,o),
(275,-61,o),
(275,27,cs),
(275,99,o),
(236,152,o),
(199,161,c),
(100,104,l),
(100,61,l),
(134,50,o),
(169,8,o),
(169,-34,cs),
(169,-79,o),
(153,-122,o),
(70,-159,c),
(88,-198,l)
);
}
);
};
layerId = "5D640BC7-495B-40E4-B9E8-395B4D7F24B5";
name = "Aug 23, 24 at 16:12";
shapes = (
{
closed = 1;
nodes = (
(231,-155,o),
(281,-70,o),
(281,18,cs),
(281,90,o),
(238,152,o),
(179,152,cs),
(134,152,o),
(100,123,o),
(101,79,cs),
(102,15,o),
(182,27,o),
(182,-34,cs),
(182,-70,o),
(153,-112,o),
(76,-147,c),
(98,-198,l)
);
}
);
width = 396;
},
{
background = {
shapes = (
{
closed = 1;
nodes = (
(91,75,l),
(172,38,l),
(209,-46,l),
(233,-46,l),
(272,38,l),
(358,77,l),
(358,96,l),
(272,135,l),
(232,221,l),
(211,221,l),
(172,135,l),
(91,99,l)
);
}
);
};
layerId = m01;
name = Regular;
shapes = (
{
closed = 1;
nodes = (
(224,-149,o),
(275,-61,o),
(275,27,cs),
(275,99,o),
(236,152,o),
(199,161,c),
(100,104,l),
(100,61,l),
(134,50,o),
(169,8,o),
(169,-34,cs),
(169,-79,o),
(153,-122,o),
(70,-159,c),
(88,-198,l)
);
}
);
width = 396;
}
);
},
{
glyphname = exclam.ss01;
lastChange = "2024-08-23 22:19:52 +0000";
layers = (
{
layerId = m01;
shapes = (
{
closed = 1;
nodes = (
(241,304,l),
(247,438,o),
(259,602,o),
(285,776,c),
(254,805,l),
(231,841,l),
(199,841,l),
(176,805,l),
(146,776,l),
(172,602,o),
(183,438,o),
(189,304,c)
);
},
{
closed = 1;
nodes = (
(226,-40,l),
(263,40,l),
(345,77,l),
(345,95,l),
(263,132,l),
(225,195,l),
(205,195,l),
(168,132,l),
(90,98,l),
(90,75,l),
(168,40,l),
(203,-40,l)
);
}
);
width = 435;
}
);
},
{
glyphname = question.ss01;
lastChange = "2024-08-23 22:19:52 +0000";
layers = (
{
backgroundImage = {
imagePath = "../../Desktop/Screenshot 2024-08-03 at 9.47.25 PM.png";
locked = 1;
pos = (-153,-27);
scale = (4.1771,4.1771);
};
layerId = m01;
shapes = (
{
closed = 1;
nodes = (
(238,281,l),
(238,484,l),
(204,429,l),
(219,421,o),
(229,418,o),
(271,418,cs),
(365,418,o),
(463,495,o),
(463,611,cs),
(463,723,o),
(344,817,o),
(198,830,c),
(132,790,l),
(132,758,l),
(300,728,o),
(367,635,o),
(367,563,cs),
(367,505,o),
(328,482,o),
(190,514,c),
(137,460,l),
(193,281,l)
);
},
{
closed = 1;
nodes = (
(226,-40,l),
(263,40,l),
(345,77,l),
(345,95,l),
(263,132,l),
(225,195,l),
(205,195,l),
(168,132,l),
(90,98,l),
(90,75,l),
(168,40,l),
(203,-40,l)
);
}
);
width = 523;
},
{
associatedMasterId = m01;
background = {
shapes = (
{
closed = 1;
nodes = (
(241,243,l),
(246,459,l),
(148,424,l),
(195,243,l)
);
}
);
};
backgroundImage = {
imagePath = "../../Desktop/Screenshot 2024-08-03 at 9.47.25 PM.png";
locked = 1;
pos = (-147,-27);
scale = (4.1771,4.1771);
};
layerId = "1E16CB75-EF8E-4E2A-A48C-DA63EE54AB9D";
name = "Aug 3, 24 at 21:59";
shapes = (
{
closed = 1;
nodes = (
(211,410,o),
(230,389,o),
(275,389,cs),
(365,389,o),
(469,487,o),
(477,586,cs),
(489,715,o),
(353,834,o),
(198,848,c),
(128,805,l),
(127,771,l),
(305,740,o),
(380,630,o),
(377,525,cs),
(375,459,o),
(353,451,o),
(217,489,c),
(148,424,l),
(196,243,l),
(240,244,l),
(246,459,l),
(210,433,l)
);
},
{
closed = 1;
nodes = (
(232,-46,l),
(271,38,l),
(357,77,l),
(357,96,l),
(271,135,l),
(231,201,l),
(210,201,l),
(171,135,l),
(90,99,l),
(90,75,l),
(171,38,l),
(208,-46,l)
);
}
);
width = 600;
}
);
},
{
glyphname = hyphen;
kernLeft = cbar;
kernRight = cbar;
lastChange = "2024-08-23 23:50:12 +0000";
layers = (
{
guides = (
{
pos = (234,258);
}
);
layerId = m01;
shapes = (
{
closed = 1;
nodes = (
(379,239,l),
(399,332,l),
(70,302,l),
(50,209,l)
);
}
);
width = 449;
},
{
associatedMasterId = m01;
guides = (
{
pos = (229,258);
}
);
layerId = "16BC5C9D-3838-49A3-9C2B-E31911D29431";
name = "Aug 3, 24 at 21:02";
shapes = (
{
closed = 1;
nodes = (
(369,217,l),
(399,310,l),
(70,310,l),
(40,217,l)
);
}
);
width = 439;
}
);
unicode = 45;
},
{
glyphname = endash;
kernLeft = cbar;
kernRight = cbar;
lastChange = "2024-08-23 23:49:38 +0000";
layers = (
{
layerId = m01;
shapes = (
{
closed = 1;
nodes = (
(647,223,l),
(667,313,l),
(60,313,l),
(40,223,l)
);
}
);
width = 707;
}
);
unicode = 8211;
},
{
glyphname = emdash;
kernLeft = cbar;
kernRight = cbar;
lastChange = "2024-08-23 23:49:38 +0000";
layers = (
{
layerId = m01;
shapes = (
{
closed = 1;
nodes = (
(1067,224,l),
(1087,311,l),
(70,311,l),
(50,224,l)
);
}
);
width = 1137;
}
);
unicode = 8212;
},
{
glyphname = underscore;
lastChange = "2024-08-23 22:19:52 +0000";
layers = (
{
layerId = m01;
shapes = (
{
closed = 1;
nodes = (
(607,-147,l),
(607,-57,l),
(40,-57,l),
(40,-147,l)
);
}
);
width = 647;
}
);
unicode = 95;
},
{
glyphname = hyphen.case;
kernLeft = cbar;
kernRight = cbar;
lastChange = "2024-08-23 23:52:18 +0000";
layers = (
{
guides = (
{
pos = (234,258);
}
);
layerId = m01;
shapes = (
{
pos = (0,123);
ref = hyphen;
}
);
width = 449;
},
{
associatedMasterId = m01;
guides = (
{
pos = (229,258);
}
);
layerId = "16BC5C9D-3838-49A3-9C2B-E31911D29431";
name = "Aug 3, 24 at 21:02";
shapes = (
{
closed = 1;
nodes = (
(369,217,l),
(399,310,l),
(70,310,l),
(40,217,l)
);
}
);
width = 439;
}
);
},
{
glyphname = hyphen.flat;
kernLeft = cbar;
kernRight = cbar;
lastChange = "2024-08-23 23:49:44 +0000";
layers = (
{
associatedMasterId = m01;
guides = (
{
pos = (224,258);
}
);
layerId = "BAC7E632-EF83-4CDE-B090-B62FDE6C0C9E";
name = "Aug 3, 24 at 21:05";
shapes = (
{
closed = 1;
nodes = (
(369,239,l),
(389,332,l),
(60,302,l),
(40,209,l)
);
}
);
width = 429;
},
{
guides = (
{
pos = (229,258);
}
);
layerId = m01;
name = Regular;
shapes = (
{
closed = 1;
nodes = (
(369,222,l),
(399,315,l),
(70,315,l),
(40,222,l)
);
}
);
width = 439;
}
);
},
{
glyphname = parenright;
kernLeft = parenright;
lastChange = "2024-08-29 04:36:01 +0000";
layers = (
{
guides = (
{
pos = (270,-140);
},
{
pos = (304,804);
}
);
layerId = m01;
shapes = (
{
closed = 1;
nodes = (
(309,-94,o),
(392,103,o),
(392,329,cs),
(392,543,o),
(296,770,o),
(60,863,c),
(30,823,l),
(210,716,o),
(278,533,o),
(278,329,cs),
(278,113,o),
(225,-52,o),
(35,-167,c),
(65,-207,l)
);
}
);
width = 490;
}
);
metricLeft = "=bracketright";
unicode = 41;
},
{
glyphname = braceright;
lastChange = "2024-08-29 04:39:23 +0000";
layers = (
{
background = {
shapes = (
{
closed = 1;
nodes = (
(150,-230,o),
(329,-191,o),
(329,-40,cs),
(329,51,o),
(247,115,o),
(247,188,cs),
(247,277,o),
(333,300,o),
(427,310,c),
(427,338,l),
(292,352,o),
(162,320,o),
(162,178,cs),
(162,79,o),
(215,30,o),
(215,-40,cs),
(215,-154,o),
(120,-167,o),
(33,-164,c),
(30,-208,l)
);
},
{
closed = 1;
nodes = (
(427,357,l),
(333,367,o),
(247,380,o),
(247,469,cs),
(247,542,o),
(329,596,o),
(329,687,cs),
(329,838,o),
(160,877,o),
(40,855,c),
(43,811,l),
(130,814,o),
(215,801,o),
(215,687,cs),
(215,617,o),
(162,578,o),
(162,479,cs),
(162,337,o),
(292,315,o),
(427,329,c)
);
}
);
};
backgroundImage = {
angle = -175;
imagePath = "../../Desktop/Screenshot 2024-08-03 at 10.51.36 PM.png";
locked = 1;
pos = (480,-65);
scale = (7.802,-7.802);
};
guides = (
{
pos = (386,804);
},
{
pos = (386,-136);
}
);
layerId = m01;
shapes = (
{
closed = 1;
nodes = (
(150,-230,o),
(329,-191,o),
(329,-40,cs),
(329,51,o),
(247,115,o),
(247,188,cs),
(247,277,o),
(333,310,o),
(387,320,c),
(387,348,l),
(292,362,o),
(162,320,o),
(162,178,cs),
(162,79,o),
(215,30,o),
(215,-40,cs),
(215,-154,o),
(120,-167,o),
(33,-164,c),
(30,-208,l)
);
},
{
closed = 1;
nodes = (
(387,367,l),
(333,377,o),
(247,380,o),
(247,469,cs),
(247,542,o),
(329,596,o),
(329,687,cs),
(329,838,o),
(160,877,o),
(40,855,c),
(43,811,l),
(130,814,o),
(215,801,o),
(215,687,cs),
(215,617,o),
(162,578,o),
(162,479,cs),
(162,337,o),
(292,325,o),
(387,339,c)
);
}
);
width = 490;
}
);
metricLeft = "=bracketright";
unicode = 125;
},
{
glyphname = bracketright;
kernLeft = parenright;
lastChange = "2024-08-29 04:38:16 +0000";
layers = (
{
layerId = m01;
shapes = (
{
closed = 1;
nodes = (
(370,144,o),
(370,852,o),
(370,860,c),
(57,856,l),
(57,803,l),
(221,801,ls),
(253,801,o),
(270,783,o),
(270,751,cs),
(270,-84,ls),
(270,-116,o),
(253,-134,o),
(221,-134,cs),
(30,-136,l),
(30,-190,l),
(370,-195,l)
);
}
);
width = 490;
}
);
unicode = 93;
},
{
glyphname = guilsinglright;
lastChange = "2024-08-23 22:19:52 +0000";
layers = (
{
layerId = m01;
shapes = (
{
closed = 1;
nodes = (
(274,247,l),
(274,271,l),
(106,469,l),
(70,447,l),
(179,259,l),
(70,71,l),
(106,49,l)
);
}
);
width = 344;
}
);
unicode = 8250;
},
{
glyphname = quotesingle;
kernLeft = tdot;
kernRight = tdot;
lastChange = "2024-08-25 02:09:38 +0000";
layers = (
{
layerId = m01;
shapes = (
{
closed = 1;
nodes = (
(158,548,l),
(196,787,ls),
(213,895,o),
(54,895,o),
(71,787,cs),
(108,548,l)
);
}
);
width = 267;
}
);
unicode = 39;
},
{
glyphname = at;
lastChange = "2024-08-23 22:19:52 +0000";
layers = (
{
backgroundImage = {
imagePath = "../../Desktop/Screenshot 2024-08-05 at 10.54.34 PM.png";
locked = 1;
pos = (-34,-198);
scale = (3.7193,3.7193);
};
layerId = m01;
shapes = (
{
closed = 1;
nodes = (
(772,-77,l),
(424,-242,o),
(149,-97,o),
(149,200,cs),
(149,435,o),
(336,650,o),
(557,650,cs),
(776,650,o),
(874,526,o),
(874,371,cs),
(874,154,o),
(751,100,o),
(694,100,cs),
(683,100,o),
(673,110,o),
(679,133,cs),
(762,501,l),
(723,520,o),
(672,519,o),
(621,519,cs),
(470,518,o),
(271,339,o),
(271,155,cs),
(271,65,o),
(318,10,o),
(379,10,cs),
(470,10,o),
(601,141,o),
(658,258,c),
(650,308,l),
(600,209,o),
(503,103,o),
(437,103,cs),
(403,103,o),
(374,119,o),
(374,201,cs),
(374,353,o),
(513,489,o),
(684,445,c),
(662,489,l),
(563,41,ls),
(559,23,o),
(575,14,o),
(602,14,cs),
(738,12,o),
(976,96,o),
(976,388,cs),
(976,588,o),
(818,728,o),
(577,728,cs),
(282,728,o),
(50,499,o),
(50,160,cs),
(50,-168,o),
(420,-353,o),
(780,-117,c)
);
}
);
width = 1016;
}
);
unicode = 64;
},
{
glyphname = ampersand;
lastChange = "2024-08-23 22:19:52 +0000";
layers = (
{
associatedMasterId = m01;
backgroundImage = {
imagePath = "../../Desktop/Screenshot 2024-08-05 at 6.44.00 PM.png";
locked = 1;
pos = (-108,-158);
scale = (21.4242,21.4242);
};
layerId = "CA75C20F-1A22-4C0F-A1B3-072ACFF3526B";
name = "Aug 5, 24 at 20:16";
shapes = (
{
closed = 1;
nodes = (
(681,-35,o),
(789,-34,o),
(857,110,c),
(822,134,l),
(772,53,o),
(710,62,o),
(667,93,cs),
(584,152,o),
(571,310,o),
(450,418,cs),
(372,488,o),
(323,456,o),
(273,504,cs),
(213,562,o),
(253,660,o),
(328,660,cs),
(396,660,o),
(439,630,o),
(439,580,cs),
(439,519,o),
(413,488,o),
(327,451,c),
(350,431,l),
(445,463,o),
(501,518,o),
(501,599,cs),
(501,672,o),
(447,734,o),
(349,734,cs),
(183,734,o),
(112,534,o),
(222,444,cs),
(305,376,o),
(322,416,o),
(380,362,cs),
(497,252,o),
(484,77,o),
(609,6,cs)
);
},
{
closed = 1;
nodes = (
(426,-20,o),
(513,67,o),
(583,167,c),
(537,242,l),
(492,133,o),
(417,77,o),
(338,77,cs),
(255,77,o),
(187,129,o),
(184,202,cs),
(180,300,o),
(229,376,o),
(323,416,c),
(290,442,l),
(164,400,o),
(81,300,o),
(81,188,cs),
(81,70,o),
(170,-20,o),
(287,-20,cs)
);
},
{
closed = 1;
nodes = (
(768,529,l),
(781,557,o),
(803,566,o),
(849,571,c),
(849,618,l),
(688,618,l),
(688,571,l),
(716,566,o),
(719,556,o),
(706,529,cs),
(560,250,l),
(591,181,l)
);
}
);
width = 900;
},
{
associatedMasterId = m01;
backgroundImage = {
imagePath = "../../Desktop/Screenshot 2024-08-05 at 6.44.00 PM.png";
locked = 1;
pos = (-119,-158);
scale = (21.4242,21.4242);
};
layerId = "63A2FDB3-46F2-4F77-8F6A-3CD4A4C31357";
name = "Aug 5, 24 at 20:48";
shapes = (
{
closed = 1;
nodes = (
(694,-39,o),
(808,-38,o),
(876,99,c),
(841,124,l),
(791,57,o),
(729,66,o),
(686,100,cs),
(603,164,o),
(579,373,o),
(473,466,cs),
(395,534,o),
(322,539,o),
(279,572,cs),
(208,626,o),
(246,724,o),
(321,724,cs),
(381,724,o),
(421,698,o),
(421,642,cs),
(421,576,o),
(392,549,o),
(306,519,c),
(331,490,l),
(427,521,o),
(483,575,o),
(483,663,cs),
(483,743,o),
(436,801,o),
(338,801,cs),
(172,801,o),
(113,581,o),
(239,506,cs),
(310,464,o),
(341,456,o),
(402,408,cs),
(518,317,o),
(496,83,o),
(621,5,cs)
);
},
{
closed = 1;
nodes = (
(455,-13,o),
(532,82,o),
(602,191,c),
(546,272,l),
(491,154,o),
(416,85,o),
(327,85,cs),
(244,85,o),
(156,170,o),
(156,259,cs),
(156,345,o),
(198,462,o),
(402,455,c),
(369,489,l),
(141,520,o),
(50,335,o),
(50,224,cs),
(50,75,o),
(159,-13,o),
(296,-13,cs)
);
},
{
closed = 1;
nodes = (
(787,575,l),
(800,605,o),
(832,615,o),
(868,621,c),
(868,673,l),
(697,673,l),
(697,621,l),
(725,615,o),
(739,602,o),
(725,575,cs),
(569,271,l),
(600,196,l)
);
}
);
width = 906;
},
{
backgroundImage = {
imagePath = "../../Desktop/Screenshot 2024-08-05 at 6.44.00 PM.png";
locked = 1;
pos = (-119,-158);
scale = (21.4242,21.4242);
};
layerId = m01;
name = Regular;
shapes = (
{
closed = 1;
nodes = (
(639,-25,o),
(730,-16,o),
(757,116,c),
(723,127,l),
(704,83,o),
(676,78,o),
(649,97,cs),
(564,158,o),
(567,318,o),
(487,406,cs),
(415,486,o),
(324,503,o),
(259,552,cs),
(171,618,o),
(193,710,o),
(259,723,cs),
(330,737,o),
(378,686,o),
(378,636,cs),
(378,581,o),
(342,530,o),
(288,514,c),
(348,491,l),
(419,518,o),
(460,574,o),
(460,650,cs),
(460,730,o),
(406,807,o),
(308,807,cs),
(132,807,o),
(82,600,o),
(176,514,cs),
(268,430,o),
(325,435,o),
(401,364,cs),
(506,266,o),
(466,83,o),
(591,5,cs)
);
},
{
closed = 1;
nodes = (
(419,-13,o),
(512,76,o),
(566,195,c),
(517,266,l),
(472,157,o),
(400,91,o),
(306,91,cs),
(223,91,o),
(152,160,o),
(152,249,cs),
(152,352,o),
(212,437,o),
(351,460,c),
(351,492,l),
(136,495,o),
(40,352,o),
(40,225,cs),
(40,76,o),
(139,-13,o),
(276,-13,cs)
);
},
{
closed = 1;
nodes = (
(655,398,ls),
(672,435,o),
(694,448,o),
(739,458,c),
(739,510,l),
(533,510,l),
(533,458,l),
(590,448,o),
(597,430,o),
(585,400,cs),
(525,252,l),
(558,187,l)
);
}
);
width = 777;
},
{
associatedMasterId = m01;
backgroundImage = {
imagePath = "../../Desktop/Screenshot 2024-08-05 at 6.44.00 PM.png";
locked = 1;
pos = (-119,-158);
scale = (21.4242,21.4242);
};
layerId = "90823893-48C4-44B4-965B-65CB44A78183";
name = wide;
shapes = (
{
closed = 1;
nodes = (
(724,-39,o),
(818,-35,o),
(886,99,c),
(851,124,l),
(801,60,o),
(752,66,o),
(709,97,cs),
(624,158,o),
(582,339,o),
(497,416,cs),
(417,489,o),
(388,482,o),
(295,539,cs),
(215,588,o),
(235,723,o),
(323,723,cs),
(383,723,o),
(423,685,o),
(423,629,cs),
(423,554,o),
(380,509,o),
(306,499,c),
(366,476,l),
(447,513,o),
(490,568,o),
(490,650,cs),
(490,730,o),
(436,807,o),
(338,807,cs),
(176,807,o),
(91,620,o),
(219,499,cs),
(299,424,o),
(332,440,o),
(411,374,cs),
(516,286,o),
(526,83,o),
(651,5,cs)
);
},
{
closed = 1;
nodes = (
(424,-13,o),
(533,101,o),
(592,212,c),
(546,280,l),
(491,162,o),
(405,81,o),
(316,81,cs),
(233,81,o),
(155,150,o),
(155,239,cs),
(155,325,o),
(180,439,o),
(391,440,c),
(391,472,l),
(156,495,o),
(50,326,o),
(50,215,cs),
(50,66,o),
(149,-13,o),
(286,-13,cs)
);
},
{
closed = 1;
nodes = (
(820,541,ls),
(838,568,o),
(853,582,o),
(889,588,c),
(889,640,l),
(703,640,l),
(703,588,l),
(740,583,o),
(766,567,o),
(750,543,cs),
(555,252,l),
(588,197,l)
);
}
);
width = 946;
},
{
associatedMasterId = m01;
backgroundImage = {
imagePath = "../../Desktop/Screenshot 2024-08-05 at 6.44.00 PM.png";
locked = 1;
pos = (-119,-158);
scale = (21.4242,21.4242);
};
layerId = "B92CD5C9-A7DB-4A9D-895C-11973DE351FF";
name = "Aug 12, 24 at 00:06";
shapes = (
{
closed = 1;
nodes = (
(714,-29,o),
(805,-12,o),
(856,109,c),
(821,134,l),
(790,81,o),
(742,76,o),
(699,107,cs),
(614,168,o),
(582,339,o),
(497,416,cs),
(417,489,o),
(388,482,o),
(295,539,cs),
(215,588,o),
(235,723,o),
(323,723,cs),
(383,723,o),
(423,685,o),
(423,629,cs),
(423,554,o),
(380,509,o),
(306,499,c),
(366,476,l),
(447,513,o),
(490,568,o),
(490,650,cs),
(490,730,o),
(436,807,o),
(338,807,cs),
(176,807,o),
(91,620,o),
(219,499,cs),
(299,424,o),
(332,440,o),
(411,374,cs),
(516,286,o),
(516,93,o),
(641,15,cs)
);
},
{
closed = 1;
nodes = (
(419,-13,o),
(513,131,o),
(572,242,c),
(526,310,l),
(471,192,o),
(400,91,o),
(306,91,cs),
(223,91,o),
(152,150,o),
(152,239,cs),
(152,325,o),
(180,439,o),
(391,440,c),
(391,472,l),
(156,495,o),
(50,326,o),
(50,215,cs),
(50,66,o),
(139,-13,o),
(276,-13,cs)
);
},
{
closed = 1;
nodes = (
(760,571,ls),
(776,598,o),
(793,612,o),
(829,618,c),
(829,670,l),
(643,670,l),
(643,618,l),
(680,613,o),
(704,597,o),
(690,573,cs),
(515,272,l),
(548,207,l)
);
}
);
width = 889;
},
{
associatedMasterId = m01;
backgroundImage = {
imagePath = "../../Desktop/Screenshot 2024-08-05 at 6.44.00 PM.png";
locked = 1;
pos = (-119,-158);
scale = (21.4242,21.4242);
};
layerId = "110F015C-E181-435A-BF95-0EC90F539370";
name = "Aug 20, 24 at 17:33";
shapes = (
{
closed = 1;
nodes = (
(714,-29,o),
(805,-12,o),
(856,109,c),
(821,134,l),
(790,81,o),
(742,76,o),
(699,107,cs),
(614,168,o),
(581,339,o),
(497,416,cs),
(417,489,o),
(334,503,o),
(269,552,cs),
(181,618,o),
(203,710,o),
(269,723,cs),
(340,737,o),
(388,686,o),
(388,636,cs),
(388,581,o),
(352,530,o),
(288,514,c),
(348,491,l),
(419,518,o),
(470,574,o),
(470,650,cs),
(470,730,o),
(416,807,o),
(318,807,cs),
(142,807,o),
(92,600,o),
(186,514,cs),
(278,430,o),
(332,440,o),
(411,374,cs),
(516,286,o),
(516,93,o),
(641,15,cs)
);
},
{
closed = 1;
nodes = (
(419,-13,o),
(516,81,o),
(592,192,c),
(546,260,l),
(481,153,o),
(400,91,o),
(306,91,cs),
(223,91,o),
(152,160,o),
(152,249,cs),
(152,352,o),
(212,437,o),
(351,460,c),
(351,492,l),
(136,495,o),
(40,352,o),
(40,225,cs),
(40,76,o),
(139,-13,o),
(276,-13,cs)
);
},
{
closed = 1;
nodes = (
(760,571,ls),
(773,598,o),
(793,612,o),
(829,618,c),
(829,670,l),
(643,670,l),
(643,618,l),
(680,613,o),
(702,599,o),
(690,573,cs),
(535,242,l),
(568,177,l)
);
}
);
width = 889;
}
);
unicode = 38;
},
{
glyphname = bar;
lastChange = "2024-08-23 22:19:52 +0000";
layers = (
{
layerId = m01;
shapes = (
{
closed = 1;
nodes = (
(233,-186,l),
(233,860,l),
(150,860,l),
(150,-186,l)
);
}
);
width = 383;
}
);
unicode = 124;
},
{
glyphname = dollar;
lastChange = "2024-08-23 22:19:52 +0000";
layers = (
{
layerId = m01;
shapes = (
{
closed = 1;
nodes = (
(519,9,o),
(618,107,o),
(619,243,cs),
(621,501,o),
(174,441,o),
(177,616,cs),
(178,702,o),
(254,738,o),
(328,736,cs),
(440,734,o),
(493,663,o),
(516,564,c),
(589,563,l),
(572,748,l),
(487,767,o),
(450,804,o),
(345,806,cs),
(193,809,o),
(82,721,o),
(80,586,cs),
(76,357,o),
(507,416,o),
(503,222,cs),
(502,150,o),
(443,91,o),
(343,93,cs),
(220,95,o),
(144,175,o),
(121,284,c),
(50,286,l),
(70,85,l),
(167,64,o),
(195,15,o),
(340,12,cs)
);
},
{
closed = 1;
nodes = (
(440,908,l),
(367,914,l),
(240,-131,l),
(304,-137,l)
);
}
);
width = 669;
}
);
metricLeft = "=S";
metricRight = "=S";
unicode = 36;
},
{
glyphname = plus;
lastChange = "2024-08-24 07:32:04 +0000";
layers = (
{
background = {
shapes = (
{
closed = 1;
nodes = (
(360,170,l),
(360,650,l),
(280,650,l),
(280,170,l)
);
},
{
closed = 1;
nodes = (
(560,370,l),
(560,450,l),
(80,450,l),
(80,370,l)
);
},
{
pos = (30,0);
ref = pluscomb;
},
{
angle = -89.1;
pos = (-90,700);
ref = pluscomb;
}
);
};
layerId = m01;
shapes = (
{
closed = 1;
nodes = (
(360,140,l),
(360,680,l),
(280,680,l),
(280,140,l)
);
},
{
closed = 1;
nodes = (
(590,370,l),
(590,450,l),
(50,450,l),
(50,370,l)
);
}
);
width = 640;
}
);
metricLeft = "=50";
metricRight = "=50";
unicode = 43;
},
{
glyphname = minus;
lastChange = "2024-08-24 07:32:04 +0000";
layers = (
{
layerId = m01;
shapes = (
{
closed = 1;
nodes = (
(590,360,l),
(590,450,l),
(50,450,l),
(50,360,l)
);
}
);
width = 640;
}
);
metricLeft = "=plus";
metricRight = "=plus";
unicode = 8722;
},
{
glyphname = multiply;
lastChange = "2024-08-24 07:32:04 +0000";
layers = (
{
guides = (
{
pos = (67,411);
}
);
layerId = m01;
shapes = (
{
closed = 1;
nodes = (
(517,233,l),
(106,644,l),
(50,587,l),
(461,176,l)
);
},
{
closed = 1;
nodes = (
(517,587,l),
(461,644,l),
(50,233,l),
(106,176,l)
);
}
);
width = 567;
}
);
metricLeft = "=plus";
metricRight = "=plus";
unicode = 215;
},
{
glyphname = divide;
lastChange = "2024-08-24 07:32:04 +0000";
layers = (
{
layerId = m01;
shapes = (
{
pos = (142,133);
ref = period;
scale = (0.9,0.9);
},
{
pos = (142,563);
ref = period;
scale = (0.9,0.9);
},
{
closed = 1;
nodes = (
(590,370,l),
(590,450,l),
(50,450,l),
(50,370,l)
);
}
);
width = 640;
}
);
metricLeft = "=plus";
metricRight = "=plus";
unicode = 247;
},
{
glyphname = equal;
lastChange = "2024-08-24 07:32:04 +0000";
layers = (
{
layerId = m01;
shapes = (
{
closed = 1;
nodes = (
(530,475,l),
(530,555,l),
(50,555,l),
(50,475,l)
);
},
{
closed = 1;
nodes = (
(530,265,l),
(530,345,l),
(50,345,l),
(50,265,l)
);
}
);
width = 580;
}
);
metricLeft = "=plus";
metricRight = "=plus";
unicode = 61;
},
{
glyphname = less;
lastChange = "2024-08-24 21:36:59 +0000";
layers = (
{
guides = (
{
pos = (178,411);
}
);
layerId = m01;
shapes = (
{
closed = 1;
nodes = (
(483,581,l),
(483,666,l),
(30,446,l),
(30,361,l)
);
},
{
closed = 1;
nodes = (
(483,221,l),
(30,441,l),
(30,356,l),
(483,136,l)
);
}
);
width = 533;
}
);
metricLeft = "=plus-20";
metricRight = "=plus";
unicode = 60;
},
{
glyphname = asciitilde;
lastChange = "2024-08-26 00:24:28 +0000";
layers = (
{
guides = (
{
pos = (204,259);
}
);
layerId = m01;
shapes = (
{
closed = 1;
nodes = (
(454,194,o),
(498,229,o),
(553,360,c),
(495,380,l),
(461,318,o),
(440,284,o),
(414,284,cs),
(356,284,o),
(294,400,o),
(218,400,cs),
(161,400,o),
(114,369,o),
(50,233,c),
(104,210,l),
(141,280,o),
(168,315,o),
(197,315,cs),
(245,315,o),
(312,194,o),
(392,194,cs)
);
}
);
width = 603;
}
);
metricLeft = "=50";
metricRight = "=50";
unicode = 126;
},
{
glyphname = dieresiscomb;
lastChange = "2024-08-25 21:35:49 +0000";
layers = (
{
anchors = (
{
name = _top;
pos = (232,500);
},
{
name = top;
pos = (232,739);
}
);
layerId = m01;
shapes = (
{
closed = 1;
nodes = (
(385,608,o),
(414,638,o),
(414,674,cs),
(414,708,o),
(385,739,o),
(350,739,cs),
(314,739,o),
(285,708,o),
(285,674,cs),
(285,638,o),
(314,608,o),
(350,608,cs)
);
},
{
closed = 1;
nodes = (
(150,608,o),
(179,638,o),
(179,674,cs),
(179,708,o),
(150,739,o),
(114,739,cs),
(79,739,o),
(50,708,o),
(50,674,cs),
(50,638,o),
(79,608,o),
(114,608,cs)
);
}
);
width = 464;
}
);
metricLeft = "=50";
metricRight = "=50";
unicode = 776;
},
{
glyphname = acutecomb;
lastChange = "2024-08-23 22:19:52 +0000";
layers = (
{
anchors = (
{
name = _top;
pos = (124,500);
},
{
name = top;
pos = (128,860);
}
);
layerId = m01;
shapes = (
{
closed = 1;
nodes = (
(312,842,l),
(206,893,l),
(50,614,l),
(103,593,l)
);
}
);
width = 362;
}
);
metricLeft = "=50";
metricRight = "=50";
unicode = 769;
},
{
glyphname = circumflexcomb;
lastChange = "2024-08-25 21:35:58 +0000";
layers = (
{
anchors = (
{
name = _top;
pos = (216,500);
},
{
name = top;
pos = (216,805);
}
);
layerId = m01;
shapes = (
{
closed = 1;
nodes = (
(217,716,l),
(342,585,l),
(384,606,l),
(249,819,l),
(185,819,l),
(50,606,l),
(92,585,l)
);
}
);
width = 434;
}
);
metricLeft = "=50";
metricRight = "=50";
unicode = 770;
},
{
glyphname = ringcomb;
lastChange = "2024-08-25 21:35:28 +0000";
layers = (
{
anchors = (
{
name = _top;
pos = (168,500);
},
{
name = top;
pos = (168,789);
}
);
layerId = m01;
shapes = (
{
closed = 1;
nodes = (
(241,572,o),
(295,627,o),
(295,695,cs),
(295,762,o),
(241,817,o),
(172,817,cs),
(105,817,o),
(50,762,o),
(50,695,cs),
(50,627,o),
(105,572,o),
(172,572,cs)
);
},
{
closed = 1;
nodes = (
(140,632,o),
(111,661,o),
(111,695,cs),
(111,728,o),
(140,755,o),
(172,755,cs),
(205,755,o),
(233,728,o),
(233,695,cs),
(233,661,o),
(205,632,o),
(172,632,cs)
);
}
);
width = 345;
}
);
metricLeft = "=50";
metricRight = "=50";
unicode = 778;
},
{
glyphname = tildecomb;
lastChange = "2024-08-25 21:35:35 +0000";
layers = (
{
anchors = (
{
name = _top;
pos = (223,500);
},
{
name = top;
pos = (233,728);
}
);
backgroundImage = {
imagePath = "../../Desktop/Screenshot 2024-08-11 at 9.04.59 PM.png";
locked = 1;
pos = (33,505);
scale = (2.4776,2.4776);
};
layerId = m01;
shapes = (
{
closed = 1;
nodes = (
(355,589,o),
(391,619,o),
(434,731,c),
(392,744,l),
(365,691,o),
(345,674,o),
(324,674,cs),
(285,674,o),
(244,765,o),
(183,765,cs),
(135,765,o),
(101,741,o),
(50,622,c),
(89,606,l),
(118,666,o),
(144,684,o),
(167,684,cs),
(205,684,o),
(250,589,o),
(306,589,cs)
);
}
);
width = 484;
}
);
metricLeft = "=50";
metricRight = "=50";
unicode = 771;
},
{
glyphname = cedillacomb;
lastChange = "2024-08-25 21:37:01 +0000";
layers = (
{
anchors = (
{
name = _bottom;
pos = (143,0);
},
{
name = bottom;
pos = (143,-289);
}
);
backgroundImage = {
imagePath = "../../Desktop/Screenshot 2024-08-11 at 9.44.00 PM.png";
locked = 1;
pos = (-25,-337);
scale = (2.3907,2.3907);
};
layerId = m01;
shapes = (
{
closed = 1;
nodes = (
(192,-315,o),
(293,-233,o),
(293,-153,cs),
(293,-67,o),
(224,-26,o),
(128,-69,c),
(130,-89,l),
(160,17,l),
(110,17,l),
(57,-118,l),
(91,-138,l),
(161,-104,o),
(216,-119,o),
(216,-179,cs),
(216,-213,o),
(154,-271,o),
(50,-297,c),
(61,-333,l)
);
}
);
width = 343;
}
);
metricLeft = "=50";
metricRight = "=50";
unicode = 807;
},
{
glyphname = slashlongcomb;
lastChange = "2024-08-23 22:19:52 +0000";
layers = (
{
anchors = (
{
name = _center;
pos = (324,281);
}
);
layerId = m01;
shapes = (
{
closed = 1;
nodes = (
(606,553,l),
(552,601,l),
(50,12,l),
(93,-28,l)
);
}
);
width = 656;
}
);
metricLeft = "=50";
metricRight = "=50";
unicode = 824;
},
{
glyphname = strokeshortcomb.D;
lastChange = "2024-08-23 22:19:52 +0000";
layers = (
{
anchors = (
{
name = _center;
pos = (223,414);
}
);
layerId = m01;
shapes = (
{
closed = 1;
nodes = (
(455,450,l),
(60,454,l),
(50,375,l),
(445,373,l)
);
}
);
width = 505;
}
);
metricLeft = "=50";
metricRight = "=50";
},
{
glyphname = dieresiscomb.case;
lastChange = "2024-08-25 21:36:04 +0000";
layers = (
{
anchors = (
{
name = _top;
pos = (240,500);
},
{
name = top;
pos = (240,749);
}
);
layerId = m01;
shapes = (
{
closed = 1;
nodes = (
(399,592,o),
(430,623,o),
(430,660,cs),
(430,697,o),
(399,728,o),
(362,728,cs),
(326,728,o),
(295,697,o),
(295,660,cs),
(295,623,o),
(326,592,o),
(362,592,cs)
);
},
{
closed = 1;
nodes = (
(154,592,o),
(185,623,o),
(185,660,cs),
(185,697,o),
(154,728,o),
(117,728,cs),
(81,728,o),
(50,697,o),
(50,660,cs),
(50,623,o),
(81,592,o),
(117,592,cs)
);
}
);
width = 480;
}
);
metricLeft = "=50";
metricRight = "=50";
},
{
glyphname = acutecomb.case;
lastChange = "2024-08-25 21:36:34 +0000";
layers = (
{
anchors = (
{
name = _top;
pos = (172,500);
},
{
name = top;
pos = (164,800);
}
);
layerId = m01;
shapes = (
{
closed = 1;
nodes = (
(355,774,l),
(267,845,l),
(50,601,l),
(96,570,l)
);
}
);
width = 405;
}
);
metricLeft = "=50";
metricRight = "=50";
},
{
glyphname = circumflexcomb.case;
lastChange = "2024-08-25 21:36:14 +0000";
layers = (
{
anchors = (
{
name = _top;
pos = (253,500);
},
{
name = top;
pos = (253,795);
}
);
layerId = m01;
shapes = (
{
closed = 1;
nodes = (
(250,714,l),
(405,583,l),
(450,611,l),
(282,819,l),
(218,819,l),
(50,611,l),
(95,583,l)
);
}
);
width = 500;
}
);
metricLeft = "=50";
metricRight = "=50";
},
{
glyphname = slashlongcomb.case;
lastChange = "2024-08-23 22:19:52 +0000";
layers = (
{
anchors = (
{
name = _center;
pos = (476,399);
}
);
layerId = m01;
shapes = (
{
closed = 1;
nodes = (
(895,789,l),
(832,846,l),
(50,-3,l),
(102,-52,l)
);
}
);
width = 945;
}
);
metricLeft = "=50";
metricRight = "=50";
},
{
glyphname = dieresiscomb.narrow;
lastChange = "2024-08-23 22:19:52 +0000";
layers = (
{
anchors = (
{
name = _top;
pos = (203,500);
},
{
name = top;
pos = (203,809);
}
);
layerId = m01;
shapes = (
{
closed = 1;
nodes = (
(340,598,o),
(369,628,o),
(369,664,cs),
(369,698,o),
(340,729,o),
(305,729,cs),
(269,729,o),
(240,698,o),
(240,664,cs),
(240,628,o),
(269,598,o),
(305,598,cs)
);
},
{
closed = 1;
nodes = (
(150,598,o),
(179,628,o),
(179,664,cs),
(179,698,o),
(150,729,o),
(114,729,cs),
(79,729,o),
(50,698,o),
(50,664,cs),
(50,628,o),
(79,598,o),
(114,598,cs)
);
}
);
width = 419;
}
);
metricLeft = "=50";
metricRight = "=50";
},
{
glyphname = circumflexcomb.narrow;
lastChange = "2024-08-23 22:19:52 +0000";
layers = (
{
anchors = (
{
name = _top;
pos = (196,500);
},
{
name = top;
pos = (196,855);
}
);
layerId = m01;
shapes = (
{
closed = 1;
nodes = (
(197,712,l),
(302,581,l),
(344,602,l),
(229,815,l),
(165,815,l),
(50,602,l),
(92,581,l)
);
}
);
width = 394;
}
);
metricLeft = "=50";
metricRight = "=50";
},
{
glyphname = dieresiscomb.case.narrow;
lastChange = "2024-08-23 22:19:52 +0000";
layers = (
{
anchors = (
{
name = _top;
pos = (230,500);
},
{
name = top;
pos = (230,809);
}
);
layerId = m01;
shapes = (
{
closed = 1;
nodes = (
(379,602,o),
(410,633,o),
(410,670,cs),
(410,707,o),
(379,738,o),
(342,738,cs),
(306,738,o),
(275,707,o),
(275,670,cs),
(275,633,o),
(306,602,o),
(342,602,cs)
);
},
{
closed = 1;
nodes = (
(154,602,o),
(185,633,o),
(185,670,cs),
(185,707,o),
(154,738,o),
(117,738,cs),
(81,738,o),
(50,707,o),
(50,670,cs),
(50,633,o),
(81,602,o),
(117,602,cs)
);
}
);
width = 460;
}
);
metricLeft = "=50";
metricRight = "=50";
},
{
glyphname = asteriskcomb;
lastChange = "2024-08-23 22:22:02 +0000";
layers = (
{
layerId = m01;
shapes = (
{
closed = 1;
nodes = (
(115,73,l),
(157,290,l),
(122,507,l),
(80,507,l),
(45,290,l),
(79,73,l)
);
}
);
width = 202;
}
);
},
{
glyphname = pluscomb;
lastChange = "2024-08-23 22:25:28 +0000";
layers = (
{
layerId = m01;
shapes = (
{
closed = 1;
nodes = (
(480,370,l),
(480,450,l),
(0,450,l),
(0,370,l)
);
}
